<svg width="1748.926" height="98.975" viewBox="0 0 1748.926 98.975" xmlns="http://www.w3.org/2000/svg"><g id="svgGroup" stroke-linecap="round" fill-rule="evenodd" font-size="9pt" stroke="#000" stroke-width="0.25mm" fill="black" style="stroke:#000;stroke-width:0.25mm;fill:black"><path d="M 105.176 75.635 L 92.188 75.635 L 92.188 40.577 Q 92.188 37.123 90.896 35.89 A 2.547 2.547 0 0 0 89.063 35.206 A 2.918 2.918 0 0 0 86.27 36.94 Q 85.622 38.231 85.555 40.482 A 17.887 17.887 0 0 0 85.547 41.016 L 85.547 75.635 L 75.732 75.635 L 75.732 39.6 A 9.154 9.154 0 0 0 75.613 38.051 Q 75.136 35.286 72.748 35.208 A 4.296 4.296 0 0 0 72.607 35.206 A 3.103 3.103 0 0 0 69.645 36.968 Q 68.896 38.406 68.896 41.016 L 68.896 75.635 L 55.859 75.635 L 55.859 23.877 L 67.725 23.877 L 68.408 30.323 L 69.58 30.323 A 12.396 12.396 0 0 1 70.397 27.251 Q 71.897 23.721 75.602 23.055 A 10.407 10.407 0 0 1 77.441 22.901 A 8.22 8.22 0 0 1 80.821 23.555 Q 84.293 25.104 85.254 30.323 L 86.426 30.323 Q 86.865 26.856 89.136 24.878 A 7.811 7.811 0 0 1 92.633 23.157 A 11.41 11.41 0 0 1 95.117 22.901 A 14.955 14.955 0 0 1 97.972 23.155 Q 99.564 23.465 100.787 24.154 A 7.089 7.089 0 0 1 102.759 25.782 A 8.569 8.569 0 0 1 104.208 28.378 Q 105.079 30.765 105.166 34.309 A 32.614 32.614 0 0 1 105.176 35.108 L 105.176 75.635 Z M 515.332 75.635 L 502.344 75.635 L 502.344 40.577 Q 502.344 37.123 501.052 35.89 A 2.547 2.547 0 0 0 499.219 35.206 A 2.918 2.918 0 0 0 496.427 36.94 Q 495.778 38.231 495.711 40.482 A 17.887 17.887 0 0 0 495.703 41.016 L 495.703 75.635 L 485.889 75.635 L 485.889 39.6 A 9.154 9.154 0 0 0 485.769 38.051 Q 485.292 35.286 482.904 35.208 A 4.296 4.296 0 0 0 482.764 35.206 A 3.103 3.103 0 0 0 479.802 36.968 Q 479.053 38.406 479.053 41.016 L 479.053 75.635 L 466.016 75.635 L 466.016 23.877 L 477.881 23.877 L 478.564 30.323 L 479.736 30.323 A 12.396 12.396 0 0 1 480.554 27.251 Q 482.053 23.721 485.758 23.055 A 10.407 10.407 0 0 1 487.598 22.901 A 8.22 8.22 0 0 1 490.977 23.555 Q 494.449 25.104 495.41 30.323 L 496.582 30.323 Q 497.021 26.856 499.292 24.878 A 7.811 7.811 0 0 1 502.789 23.157 A 11.41 11.41 0 0 1 505.273 22.901 A 14.955 14.955 0 0 1 508.128 23.155 Q 509.72 23.465 510.943 24.154 A 7.089 7.089 0 0 1 512.915 25.782 A 8.569 8.569 0 0 1 514.364 28.378 Q 515.236 30.765 515.322 34.309 A 32.614 32.614 0 0 1 515.332 35.108 L 515.332 75.635 Z M 1511.426 75.635 L 1498.438 75.635 L 1498.438 40.577 Q 1498.438 37.123 1497.146 35.89 A 2.547 2.547 0 0 0 1495.313 35.206 A 2.918 2.918 0 0 0 1492.52 36.94 Q 1491.872 38.231 1491.805 40.482 A 17.887 17.887 0 0 0 1491.797 41.016 L 1491.797 75.635 L 1481.982 75.635 L 1481.982 39.6 A 9.154 9.154 0 0 0 1481.863 38.051 Q 1481.386 35.286 1478.998 35.208 A 4.296 4.296 0 0 0 1478.857 35.206 A 3.103 3.103 0 0 0 1475.895 36.968 Q 1475.146 38.406 1475.146 41.016 L 1475.146 75.635 L 1462.109 75.635 L 1462.109 23.877 L 1473.975 23.877 L 1474.658 30.323 L 1475.83 30.323 A 12.396 12.396 0 0 1 1476.647 27.251 Q 1478.147 23.721 1481.852 23.055 A 10.407 10.407 0 0 1 1483.691 22.901 A 8.22 8.22 0 0 1 1487.071 23.555 Q 1490.543 25.104 1491.504 30.323 L 1492.676 30.323 Q 1493.115 26.856 1495.386 24.878 A 7.811 7.811 0 0 1 1498.883 23.157 A 11.41 11.41 0 0 1 1501.367 22.901 A 14.955 14.955 0 0 1 1504.222 23.155 Q 1505.814 23.465 1507.037 24.154 A 7.089 7.089 0 0 1 1509.009 25.782 A 8.569 8.569 0 0 1 1510.458 28.378 Q 1511.329 30.765 1511.416 34.309 A 32.614 32.614 0 0 1 1511.426 35.108 L 1511.426 75.635 Z M 192.432 98.487 L 177.295 98.975 L 176.807 87.452 L 193.408 86.963 A 21.137 21.137 0 0 0 197.091 86.558 Q 199.055 86.15 200.578 85.345 A 9.281 9.281 0 0 0 203.32 83.179 A 11.451 11.451 0 0 0 205.45 79.31 Q 206.012 77.63 206.24 75.582 A 26.882 26.882 0 0 0 206.396 72.608 L 206.396 66.26 L 205.322 66.26 A 15.542 15.542 0 0 1 204.452 69.613 Q 203.529 71.97 201.842 73.533 A 9.651 9.651 0 0 1 201.27 74.024 Q 198.276 76.392 193.484 76.593 A 21.589 21.589 0 0 1 192.578 76.612 Q 182.959 76.612 177.612 69.678 Q 172.266 62.745 172.266 49.805 A 49.879 49.879 0 0 1 172.788 42.346 Q 173.394 38.349 174.702 35.115 A 22.377 22.377 0 0 1 177.612 29.932 A 17.323 17.323 0 0 1 190.315 23.011 A 24.744 24.744 0 0 1 192.676 22.901 Q 198.584 22.901 201.636 25.464 A 10.336 10.336 0 0 1 204.279 28.939 Q 205.18 30.803 205.615 33.252 L 206.543 33.252 L 207.373 23.877 L 219.629 23.877 L 219.629 71.045 A 46.653 46.653 0 0 1 219.072 78.52 Q 218.441 82.395 217.097 85.475 A 19.404 19.404 0 0 1 213.135 91.431 A 20.452 20.452 0 0 1 206.129 95.953 Q 203.005 97.213 199.097 97.856 A 52.158 52.158 0 0 1 192.432 98.487 Z M 43.848 75.635 L 0 75.635 L 0 64.014 L 15.43 64.014 L 15.43 17.872 L 0 17.872 L 0 6.299 L 43.848 6.299 L 43.848 17.872 L 28.32 17.872 L 28.32 64.014 L 43.848 64.014 L 43.848 75.635 Z M 605.762 53.37 L 605.762 64.307 L 617.871 64.307 L 617.871 75.635 L 581.641 75.635 L 581.641 64.307 L 592.578 64.307 L 592.578 35.206 L 583.594 35.206 L 583.594 23.877 L 603.809 23.877 L 605.322 35.547 L 607.178 35.547 A 18.759 18.759 0 0 1 608.171 30.352 Q 610.243 24.596 616.417 23.287 A 19.266 19.266 0 0 1 620.41 22.901 A 15.982 15.982 0 0 1 625.265 23.601 A 12.472 12.472 0 0 1 631.714 28.321 Q 634.623 32.333 635.379 38.967 A 44.066 44.066 0 0 1 635.645 43.946 L 622.461 43.946 A 19.871 19.871 0 0 0 622.342 41.69 Q 622.067 39.288 621.153 37.866 A 4.958 4.958 0 0 0 620.776 37.354 A 5.174 5.174 0 0 0 618.458 35.807 Q 617.599 35.508 616.542 35.406 A 12.033 12.033 0 0 0 615.381 35.352 Q 610.547 35.352 608.154 40.039 Q 605.762 44.727 605.762 53.37 Z M 898.73 53.37 L 898.73 64.307 L 910.84 64.307 L 910.84 75.635 L 874.609 75.635 L 874.609 64.307 L 885.547 64.307 L 885.547 35.206 L 876.563 35.206 L 876.563 23.877 L 896.777 23.877 L 898.291 35.547 L 900.146 35.547 A 18.759 18.759 0 0 1 901.14 30.352 Q 903.211 24.596 909.386 23.287 A 19.266 19.266 0 0 1 913.379 22.901 A 15.982 15.982 0 0 1 918.234 23.601 A 12.472 12.472 0 0 1 924.683 28.321 Q 927.592 32.333 928.348 38.967 A 44.066 44.066 0 0 1 928.613 43.946 L 915.43 43.946 A 19.871 19.871 0 0 0 915.311 41.69 Q 915.035 39.288 914.122 37.866 A 4.958 4.958 0 0 0 913.745 37.354 A 5.174 5.174 0 0 0 911.426 35.807 Q 910.568 35.508 909.511 35.406 A 12.033 12.033 0 0 0 908.35 35.352 Q 903.516 35.352 901.123 40.039 Q 898.73 44.727 898.73 53.37 Z M 1719.043 53.37 L 1719.043 64.307 L 1731.152 64.307 L 1731.152 75.635 L 1694.922 75.635 L 1694.922 64.307 L 1705.859 64.307 L 1705.859 35.206 L 1696.875 35.206 L 1696.875 23.877 L 1717.09 23.877 L 1718.604 35.547 L 1720.459 35.547 A 18.759 18.759 0 0 1 1721.453 30.352 Q 1723.524 24.596 1729.698 23.287 A 19.266 19.266 0 0 1 1733.691 22.901 A 15.982 15.982 0 0 1 1738.546 23.601 A 12.472 12.472 0 0 1 1744.995 28.321 Q 1747.905 32.333 1748.661 38.967 A 44.066 44.066 0 0 1 1748.926 43.946 L 1735.742 43.946 A 19.871 19.871 0 0 0 1735.623 41.69 Q 1735.348 39.288 1734.434 37.866 A 4.958 4.958 0 0 0 1734.058 37.354 A 5.174 5.174 0 0 0 1731.739 35.807 Q 1730.88 35.508 1729.824 35.406 A 12.033 12.033 0 0 0 1728.662 35.352 Q 1723.828 35.352 1721.436 40.039 Q 1719.043 44.727 1719.043 53.37 Z M 399.805 13.868 L 392.578 23.34 A 15.129 15.129 0 0 0 382.143 17.767 A 21.826 21.826 0 0 0 379.639 17.627 Q 371.24 17.627 366.187 23.56 Q 361.988 28.489 361.277 36.839 A 41.815 41.815 0 0 0 361.133 40.381 A 39.241 39.241 0 0 0 362.078 49.41 Q 365.613 64.307 382.373 64.307 A 35.258 35.258 0 0 0 395.907 61.558 A 40.149 40.149 0 0 0 396.338 61.377 L 398.584 73.291 Q 390.088 76.612 380.713 76.612 A 44.005 44.005 0 0 1 367.192 74.713 Q 347.559 68.374 347.559 40.87 A 55.277 55.277 0 0 1 348.458 30.573 Q 349.576 24.682 352.084 20.063 A 28.394 28.394 0 0 1 355.908 14.624 A 27.154 27.154 0 0 1 370.666 6.231 A 40.994 40.994 0 0 1 379.541 5.323 A 36.341 36.341 0 0 1 385.94 5.861 A 27.677 27.677 0 0 1 391.748 7.544 A 20.336 20.336 0 0 1 396.04 9.944 A 15.717 15.717 0 0 1 399.805 13.868 Z M 702.539 75.147 L 704.102 62.5 A 480.794 480.794 0 0 0 707.056 62.867 Q 711.287 63.377 714.428 63.67 A 193.573 193.573 0 0 0 714.453 63.672 A 135.625 135.625 0 0 0 716.44 63.843 Q 718.592 64.011 720.148 64.051 A 35.517 35.517 0 0 0 721.045 64.063 Q 727.686 64.063 730.664 63.16 A 7.707 7.707 0 0 0 731.825 62.712 Q 732.407 62.426 732.803 62.071 A 2.355 2.355 0 0 0 733.643 60.254 A 2.521 2.521 0 0 0 732.587 58.197 Q 732.147 57.852 731.523 57.576 A 8.328 8.328 0 0 0 730.566 57.227 L 713.721 52.344 Q 709.588 51.135 707.089 48.915 A 11.491 11.491 0 0 1 705.933 47.73 Q 703.496 44.838 703.332 40.097 A 20.064 20.064 0 0 1 703.32 39.405 Q 703.32 23.941 728.227 22.966 A 88.631 88.631 0 0 1 731.689 22.901 A 98.882 98.882 0 0 1 736.821 23.038 A 111.476 111.476 0 0 1 738.599 23.145 A 134.166 134.166 0 0 1 743.247 23.546 A 159.173 159.173 0 0 1 746.191 23.877 L 744.775 36.133 A 236.94 236.94 0 0 0 741.601 35.875 Q 739.087 35.688 737.012 35.596 A 182.318 182.318 0 0 0 734.666 35.507 Q 733.748 35.478 732.931 35.464 A 87.962 87.962 0 0 0 731.396 35.45 A 110.937 110.937 0 0 0 727.827 35.503 Q 722.87 35.663 720.288 36.304 A 10.108 10.108 0 0 0 719.032 36.697 Q 716.846 37.555 716.846 39.112 A 2.581 2.581 0 0 0 718.078 41.344 Q 718.537 41.656 719.167 41.892 A 7.847 7.847 0 0 0 719.775 42.09 L 734.277 46.094 A 31.634 31.634 0 0 1 738.389 47.493 Q 740.447 48.367 742.039 49.466 A 14.362 14.362 0 0 1 744.263 51.343 A 11.697 11.697 0 0 1 747.378 57.831 A 16.284 16.284 0 0 1 747.559 60.303 Q 747.559 75.86 723.432 76.577 A 80.406 80.406 0 0 1 721.045 76.612 A 151.304 151.304 0 0 1 714.244 76.469 Q 707.735 76.175 703.178 75.278 A 42.725 42.725 0 0 1 702.539 75.147 Z M 761.133 75.147 L 762.695 62.5 A 480.794 480.794 0 0 0 765.649 62.867 Q 769.881 63.377 773.022 63.67 A 193.573 193.573 0 0 0 773.047 63.672 A 135.625 135.625 0 0 0 775.034 63.843 Q 777.185 64.011 778.742 64.051 A 35.517 35.517 0 0 0 779.639 64.063 Q 786.279 64.063 789.258 63.16 A 7.707 7.707 0 0 0 790.418 62.712 Q 791.001 62.426 791.396 62.071 A 2.355 2.355 0 0 0 792.236 60.254 A 2.521 2.521 0 0 0 791.181 58.197 Q 790.741 57.852 790.117 57.576 A 8.328 8.328 0 0 0 789.16 57.227 L 772.314 52.344 Q 768.181 51.135 765.683 48.915 A 11.491 11.491 0 0 1 764.526 47.73 Q 762.089 44.838 761.926 40.097 A 20.064 20.064 0 0 1 761.914 39.405 Q 761.914 23.941 786.82 22.966 A 88.631 88.631 0 0 1 790.283 22.901 A 98.882 98.882 0 0 1 795.415 23.038 A 111.476 111.476 0 0 1 797.192 23.145 A 134.166 134.166 0 0 1 801.841 23.546 A 159.173 159.173 0 0 1 804.785 23.877 L 803.369 36.133 A 236.94 236.94 0 0 0 800.195 35.875 Q 797.681 35.688 795.605 35.596 A 182.318 182.318 0 0 0 793.259 35.507 Q 792.342 35.478 791.525 35.464 A 87.962 87.962 0 0 0 789.99 35.45 A 110.937 110.937 0 0 0 786.421 35.503 Q 781.464 35.663 778.882 36.304 A 10.108 10.108 0 0 0 777.625 36.697 Q 775.439 37.555 775.439 39.112 A 2.581 2.581 0 0 0 776.671 41.344 Q 777.13 41.656 777.761 41.892 A 7.847 7.847 0 0 0 778.369 42.09 L 792.871 46.094 A 31.634 31.634 0 0 1 796.983 47.493 Q 799.041 48.367 800.633 49.466 A 14.362 14.362 0 0 1 802.856 51.343 A 11.697 11.697 0 0 1 805.971 57.831 A 16.284 16.284 0 0 1 806.152 60.303 Q 806.152 75.86 782.026 76.577 A 80.406 80.406 0 0 1 779.639 76.612 A 151.304 151.304 0 0 1 772.838 76.469 Q 766.329 76.175 761.771 75.278 A 42.725 42.725 0 0 1 761.133 75.147 Z M 1098.535 75.635 L 1085.303 75.635 L 1085.303 45.215 Q 1085.303 42.089 1084.445 39.918 A 8.077 8.077 0 0 0 1083.374 37.989 A 6.265 6.265 0 0 0 1078.851 35.5 A 9.111 9.111 0 0 0 1077.881 35.45 A 9.581 9.581 0 0 0 1072.954 36.649 Q 1069.09 38.914 1068.192 45.453 A 32.111 32.111 0 0 0 1067.92 49.805 L 1067.92 75.635 L 1054.688 75.635 L 1054.688 23.877 L 1066.504 23.877 L 1067.725 33.252 L 1069.189 33.252 A 18.311 18.311 0 0 1 1069.896 30.11 Q 1070.851 27.187 1072.754 25.464 Q 1074.914 23.509 1078.778 23.045 A 21.591 21.591 0 0 1 1081.348 22.901 A 21.657 21.657 0 0 1 1086.549 23.489 A 14.519 14.519 0 0 1 1094.043 27.881 Q 1097.967 32.231 1098.463 39.71 A 33.718 33.718 0 0 1 1098.535 41.944 L 1098.535 75.635 Z M 1355.273 54.053 L 1355.273 36.036 L 1342.871 36.036 L 1342.871 23.877 L 1355.273 23.877 L 1355.273 8.252 L 1368.457 8.252 L 1368.457 23.877 L 1391.406 23.877 L 1391.406 36.036 L 1368.457 36.036 L 1368.457 52.784 A 18.065 18.065 0 0 0 1368.712 55.93 Q 1369.339 59.468 1371.509 61.377 A 8.921 8.921 0 0 0 1374.28 62.987 Q 1376.841 63.956 1380.678 64.052 A 34.417 34.417 0 0 0 1381.543 64.063 A 42.846 42.846 0 0 0 1384.475 63.958 A 52.644 52.644 0 0 0 1386.353 63.794 A 164.973 164.973 0 0 0 1388.731 63.527 Q 1390.347 63.334 1392.188 63.086 L 1393.359 75.44 A 76.283 76.283 0 0 1 1387.851 76.241 A 69.118 69.118 0 0 1 1387.085 76.319 A 63.783 63.783 0 0 1 1383.108 76.571 A 76.671 76.671 0 0 1 1380.566 76.612 A 52.682 52.682 0 0 1 1373.716 76.199 Q 1366.294 75.222 1362.063 71.937 A 14.745 14.745 0 0 1 1361.23 71.241 A 16.305 16.305 0 0 1 1356.869 64.558 Q 1355.273 60.169 1355.273 54.053 Z M 1625.244 75.635 L 1582.666 75.635 L 1582.666 64.258 L 1609.375 35.254 L 1582.666 35.254 L 1582.666 23.877 L 1624.268 23.877 L 1624.268 35.254 L 1598.242 64.258 L 1625.244 64.258 L 1625.244 75.635 Z M 540.576 98.096 L 527.344 98.096 L 527.344 23.877 L 539.6 23.877 L 540.43 33.252 L 541.357 33.252 A 17.785 17.785 0 0 1 542.246 29.975 Q 542.96 28.119 544.068 26.756 A 9.553 9.553 0 0 1 545.337 25.464 Q 548.389 22.901 554.297 22.901 A 21.432 21.432 0 0 1 560.938 23.879 A 16.969 16.969 0 0 1 569.36 29.932 Q 574.707 36.963 574.707 49.805 A 50.334 50.334 0 0 1 574.185 57.306 Q 573.036 64.911 569.36 69.678 Q 564.014 76.612 554.395 76.612 A 18.446 18.446 0 0 1 550.776 76.278 Q 547.799 75.682 545.703 74.024 A 10.201 10.201 0 0 1 542.587 69.778 Q 541.984 68.3 541.688 66.501 A 18.961 18.961 0 0 1 541.65 66.26 L 540.576 66.26 L 540.576 98.096 Z M 1302.295 98.096 L 1289.063 98.096 L 1289.063 23.877 L 1301.318 23.877 L 1302.148 33.252 L 1303.076 33.252 A 17.785 17.785 0 0 1 1303.965 29.975 Q 1304.679 28.119 1305.787 26.756 A 9.553 9.553 0 0 1 1307.056 25.464 Q 1310.107 22.901 1316.016 22.901 A 21.432 21.432 0 0 1 1322.657 23.879 A 16.969 16.969 0 0 1 1331.079 29.932 Q 1336.426 36.963 1336.426 49.805 A 50.334 50.334 0 0 1 1335.904 57.306 Q 1334.755 64.911 1331.079 69.678 Q 1325.732 76.612 1316.113 76.612 A 18.446 18.446 0 0 1 1312.495 76.278 Q 1309.518 75.682 1307.422 74.024 A 10.201 10.201 0 0 1 1304.305 69.778 Q 1303.702 68.3 1303.407 66.501 A 18.961 18.961 0 0 1 1303.369 66.26 L 1302.295 66.26 L 1302.295 98.096 Z M 167.188 75.635 L 148.633 76.123 L 147.803 64.698 L 146.631 64.698 Q 145.898 70.655 141.87 73.633 Q 138.377 76.216 132.846 76.559 A 28.15 28.15 0 0 1 131.104 76.612 Q 122.852 76.612 118.262 72.559 A 13.165 13.165 0 0 1 114.098 65.271 A 19.915 19.915 0 0 1 113.672 61.036 A 20.052 20.052 0 0 1 114.414 55.425 A 14.709 14.709 0 0 1 119.678 47.706 A 20.037 20.037 0 0 1 126.024 44.494 Q 128.847 43.613 132.259 43.276 A 45.395 45.395 0 0 1 136.719 43.067 A 73.385 73.385 0 0 1 139.403 43.114 Q 140.632 43.159 141.735 43.247 A 43.371 43.371 0 0 1 142.456 43.311 Q 144.971 43.555 147.314 44.092 L 147.314 43.946 Q 147.314 39.795 143.774 37.867 Q 140.569 36.12 134.541 35.795 A 49.773 49.773 0 0 0 133.252 35.743 L 120.02 35.401 L 120.996 23.389 L 132.275 23.536 A 60.557 60.557 0 0 1 139.614 24.053 Q 148.26 25.235 153.174 29.078 A 17.321 17.321 0 0 1 159.634 40.141 A 26.169 26.169 0 0 1 160.01 44.678 L 160.01 63.819 L 167.188 64.893 L 167.188 75.635 Z M 1046.094 75.635 L 1027.539 76.123 L 1026.709 64.698 L 1025.537 64.698 Q 1024.805 70.655 1020.776 73.633 Q 1017.283 76.216 1011.752 76.559 A 28.15 28.15 0 0 1 1010.01 76.612 Q 1001.758 76.612 997.168 72.559 A 13.165 13.165 0 0 1 993.004 65.271 A 19.915 19.915 0 0 1 992.578 61.036 A 20.052 20.052 0 0 1 993.32 55.425 A 14.709 14.709 0 0 1 998.584 47.706 A 20.037 20.037 0 0 1 1004.93 44.494 Q 1007.753 43.613 1011.165 43.276 A 45.395 45.395 0 0 1 1015.625 43.067 A 73.385 73.385 0 0 1 1018.309 43.114 Q 1019.538 43.159 1020.641 43.247 A 43.371 43.371 0 0 1 1021.362 43.311 Q 1023.877 43.555 1026.221 44.092 L 1026.221 43.946 Q 1026.221 39.795 1022.681 37.867 Q 1019.475 36.12 1013.447 35.795 A 49.773 49.773 0 0 0 1012.158 35.743 L 998.926 35.401 L 999.902 23.389 L 1011.182 23.536 A 60.557 60.557 0 0 1 1018.52 24.053 Q 1027.167 25.235 1032.08 29.078 A 17.321 17.321 0 0 1 1038.541 40.141 A 26.169 26.169 0 0 1 1038.916 44.678 L 1038.916 63.819 L 1046.094 64.893 L 1046.094 75.635 Z M 1142.627 33.252 L 1143.896 33.252 L 1143.896 2.393 L 1157.129 2.393 L 1157.129 75.635 L 1145.801 76.123 L 1143.945 66.26 L 1142.822 66.26 A 15.542 15.542 0 0 1 1141.952 69.613 Q 1141.029 71.97 1139.342 73.533 A 9.651 9.651 0 0 1 1138.77 74.024 Q 1135.776 76.392 1130.984 76.593 A 21.589 21.589 0 0 1 1130.078 76.612 Q 1120.459 76.612 1115.112 69.678 Q 1109.766 62.745 1109.766 49.805 A 49.879 49.879 0 0 1 1110.288 42.346 Q 1110.894 38.349 1112.202 35.115 A 22.377 22.377 0 0 1 1115.112 29.932 A 17.323 17.323 0 0 1 1127.815 23.011 A 24.744 24.744 0 0 1 1130.176 22.901 A 20.005 20.005 0 0 1 1133.451 23.151 Q 1136.763 23.702 1138.794 25.464 Q 1141.366 27.697 1142.365 31.947 A 20.766 20.766 0 0 1 1142.627 33.252 Z M 1453.516 75.635 L 1405.859 75.635 L 1405.859 63.428 L 1425 63.428 L 1425 36.084 L 1408.789 36.084 L 1408.789 23.877 L 1438.184 23.877 L 1438.184 63.428 L 1453.516 63.428 L 1453.516 75.635 Z M 1570.703 75.635 L 1523.047 75.635 L 1523.047 63.428 L 1542.188 63.428 L 1542.188 36.084 L 1525.977 36.084 L 1525.977 23.877 L 1555.371 23.877 L 1555.371 63.428 L 1570.703 63.428 L 1570.703 75.635 Z M 279.004 54.981 L 246.143 54.981 Q 248.973 63.518 259.998 64.073 A 31.296 31.296 0 0 0 261.572 64.112 Q 265.088 64.112 268.506 63.746 A 101.536 101.536 0 0 0 275.488 62.745 L 276.758 75.245 A 93.409 93.409 0 0 1 271.997 75.965 A 68.406 68.406 0 0 1 267.676 76.368 Q 263.574 76.612 260.4 76.612 Q 250.285 76.612 243.634 72.663 A 22.266 22.266 0 0 1 239.648 69.654 A 22.47 22.47 0 0 1 233.464 58.999 Q 232.324 54.802 232.324 49.659 A 41.724 41.724 0 0 1 232.995 41.937 Q 233.831 37.5 235.711 34.013 A 21.567 21.567 0 0 1 238.55 29.932 A 20.293 20.293 0 0 1 250.058 23.473 A 30.363 30.363 0 0 1 256.104 22.901 A 30.289 30.289 0 0 1 263.093 23.659 Q 268.679 24.984 272.476 28.618 A 19.208 19.208 0 0 1 273.242 29.395 Q 278.327 34.849 279.142 44.47 A 45.33 45.33 0 0 1 279.297 48.291 A 75.942 75.942 0 0 1 279.146 53.169 A 65.541 65.541 0 0 1 279.004 54.981 Z M 689.16 54.981 L 656.299 54.981 Q 659.129 63.518 670.154 64.073 A 31.296 31.296 0 0 0 671.729 64.112 Q 675.244 64.112 678.662 63.746 A 101.536 101.536 0 0 0 685.645 62.745 L 686.914 75.245 A 93.409 93.409 0 0 1 682.153 75.965 A 68.406 68.406 0 0 1 677.832 76.368 Q 673.73 76.612 670.557 76.612 Q 660.442 76.612 653.79 72.663 A 22.266 22.266 0 0 1 649.805 69.654 A 22.47 22.47 0 0 1 643.621 58.999 Q 642.48 54.802 642.48 49.659 A 41.724 41.724 0 0 1 643.151 41.937 Q 643.987 37.5 645.867 34.013 A 21.567 21.567 0 0 1 648.706 29.932 A 20.293 20.293 0 0 1 660.214 23.473 A 30.363 30.363 0 0 1 666.26 22.901 A 30.289 30.289 0 0 1 673.249 23.659 Q 678.835 24.984 682.632 28.618 A 19.208 19.208 0 0 1 683.398 29.395 Q 688.483 34.849 689.298 44.47 A 45.33 45.33 0 0 1 689.453 48.291 A 75.942 75.942 0 0 1 689.302 53.169 A 65.541 65.541 0 0 1 689.16 54.981 Z M 1685.254 54.981 L 1652.393 54.981 Q 1655.223 63.518 1666.248 64.073 A 31.296 31.296 0 0 0 1667.822 64.112 Q 1671.338 64.112 1674.756 63.746 A 101.536 101.536 0 0 0 1681.738 62.745 L 1683.008 75.245 A 93.409 93.409 0 0 1 1678.247 75.965 A 68.406 68.406 0 0 1 1673.926 76.368 Q 1669.824 76.612 1666.65 76.612 Q 1656.535 76.612 1649.884 72.663 A 22.266 22.266 0 0 1 1645.898 69.654 A 22.47 22.47 0 0 1 1639.714 58.999 Q 1638.574 54.802 1638.574 49.659 A 41.724 41.724 0 0 1 1639.245 41.937 Q 1640.081 37.5 1641.961 34.013 A 21.567 21.567 0 0 1 1644.8 29.932 A 20.293 20.293 0 0 1 1656.308 23.473 A 30.363 30.363 0 0 1 1662.354 22.901 A 30.289 30.289 0 0 1 1669.343 23.659 Q 1674.929 24.984 1678.726 28.618 A 19.208 19.208 0 0 1 1679.492 29.395 Q 1684.577 34.849 1685.392 44.47 A 45.33 45.33 0 0 1 1685.547 48.291 A 75.942 75.942 0 0 1 1685.396 53.169 A 65.541 65.541 0 0 1 1685.254 54.981 Z M 1240.223 74.131 A 27.791 27.791 0 0 0 1252.393 76.612 Q 1278.809 76.612 1278.809 41.456 A 79.151 79.151 0 0 0 1278.249 31.702 Q 1274.963 5.323 1252.393 5.323 A 37.081 37.081 0 0 0 1250.965 5.35 Q 1225.977 6.312 1225.977 41.456 Q 1225.977 67.273 1240.223 74.131 Z M 424.84 75.743 A 28.462 28.462 0 0 0 432.08 76.612 A 29.886 29.886 0 0 0 437.742 76.101 A 20.062 20.062 0 0 0 449.414 69.581 Q 453.548 64.856 454.904 57.531 A 42.754 42.754 0 0 0 455.566 49.756 A 48.214 48.214 0 0 0 455.416 45.886 Q 454.605 35.82 449.414 29.908 A 19.751 19.751 0 0 0 439.321 23.767 A 28.556 28.556 0 0 0 432.08 22.901 A 29.916 29.916 0 0 0 426.341 23.425 A 20.062 20.062 0 0 0 414.746 29.908 A 21.403 21.403 0 0 0 411.792 34.272 Q 410.041 37.681 409.248 42 A 43.04 43.04 0 0 0 408.594 49.756 A 48.013 48.013 0 0 0 408.737 53.526 Q 409.052 57.526 410.061 60.876 A 23.15 23.15 0 0 0 414.746 69.581 A 19.739 19.739 0 0 0 424.84 75.743 Z M 834.996 75.743 A 28.462 28.462 0 0 0 842.236 76.612 A 29.886 29.886 0 0 0 847.899 76.101 A 20.062 20.062 0 0 0 859.57 69.581 Q 863.704 64.856 865.06 57.531 A 42.754 42.754 0 0 0 865.723 49.756 A 48.214 48.214 0 0 0 865.572 45.886 Q 864.761 35.82 859.57 29.908 A 19.751 19.751 0 0 0 849.477 23.767 A 28.556 28.556 0 0 0 842.236 22.901 A 29.916 29.916 0 0 0 836.497 23.425 A 20.062 20.062 0 0 0 824.902 29.908 A 21.403 21.403 0 0 0 821.948 34.272 Q 820.197 37.681 819.405 42 A 43.04 43.04 0 0 0 818.75 49.756 A 48.013 48.013 0 0 0 818.893 53.526 Q 819.208 57.526 820.217 60.876 A 23.15 23.15 0 0 0 824.902 69.581 A 19.739 19.739 0 0 0 834.996 75.743 Z M 1252.393 64.307 A 10.619 10.619 0 0 0 1262.544 57.667 Q 1264.909 52.765 1265.232 44.245 A 73.624 73.624 0 0 0 1265.283 41.456 Q 1265.283 17.627 1252.393 17.627 A 10.56 10.56 0 0 0 1242.334 24.352 Q 1239.95 29.347 1239.573 38.052 A 78.683 78.683 0 0 0 1239.502 41.456 A 60.522 60.522 0 0 0 1239.955 49.221 Q 1241.028 57.46 1244.638 61.199 A 10.301 10.301 0 0 0 1252.393 64.307 Z M 206.396 49.805 A 35.729 35.729 0 0 0 206.203 45.946 Q 205.769 41.967 204.362 39.557 A 8.887 8.887 0 0 0 203.882 38.819 Q 201.367 35.352 196.289 35.352 A 10.649 10.649 0 0 0 192.84 35.884 A 8.698 8.698 0 0 0 188.525 39.136 Q 186.425 42.044 185.938 46.781 A 29.625 29.625 0 0 0 185.791 49.805 A 28.921 28.921 0 0 0 186.208 54.955 Q 187.825 63.846 195.722 64.15 A 14.741 14.741 0 0 0 196.289 64.161 A 14.657 14.657 0 0 0 199.129 63.905 Q 200.738 63.587 201.947 62.872 A 6.663 6.663 0 0 0 204.175 60.743 A 10.868 10.868 0 0 0 205.391 58.067 Q 206.236 55.375 206.371 51.37 A 46.578 46.578 0 0 0 206.396 49.805 Z M 1143.896 49.805 A 35.729 35.729 0 0 0 1143.703 45.946 Q 1143.269 41.967 1141.862 39.557 A 8.887 8.887 0 0 0 1141.382 38.819 Q 1138.867 35.352 1133.789 35.352 A 10.649 10.649 0 0 0 1130.34 35.884 A 8.698 8.698 0 0 0 1126.025 39.136 Q 1123.925 42.044 1123.438 46.781 A 29.625 29.625 0 0 0 1123.291 49.805 A 28.921 28.921 0 0 0 1123.708 54.955 Q 1125.325 63.846 1133.222 64.15 A 14.741 14.741 0 0 0 1133.789 64.161 A 14.657 14.657 0 0 0 1136.629 63.905 Q 1138.238 63.587 1139.447 62.872 A 6.663 6.663 0 0 0 1141.675 60.743 A 10.868 10.868 0 0 0 1142.891 58.067 Q 1143.736 55.375 1143.871 51.37 A 46.578 46.578 0 0 0 1143.896 49.805 Z M 542.244 59.718 A 9.105 9.105 0 0 0 542.822 60.743 Q 544.812 63.77 549.444 64.116 A 16.65 16.65 0 0 0 550.684 64.161 Q 561.182 64.161 561.182 49.805 Q 561.182 45.213 559.965 42 A 12.294 12.294 0 0 0 558.447 39.136 A 8.77 8.77 0 0 0 552.053 35.427 A 12.184 12.184 0 0 0 550.684 35.352 A 11.553 11.553 0 0 0 547.586 35.743 A 8.058 8.058 0 0 0 543.115 38.819 A 10.668 10.668 0 0 0 541.67 41.681 Q 540.576 44.87 540.576 49.805 Q 540.576 56.284 542.244 59.718 Z M 1303.962 59.718 A 9.105 9.105 0 0 0 1304.541 60.743 Q 1306.53 63.77 1311.163 64.116 A 16.65 16.65 0 0 0 1312.402 64.161 Q 1322.9 64.161 1322.9 49.805 Q 1322.9 45.213 1321.684 42 A 12.294 12.294 0 0 0 1320.166 39.136 A 8.77 8.77 0 0 0 1313.771 35.427 A 12.184 12.184 0 0 0 1312.402 35.352 A 11.553 11.553 0 0 0 1309.304 35.743 A 8.058 8.058 0 0 0 1304.834 38.819 A 10.668 10.668 0 0 0 1303.388 41.681 Q 1302.295 44.87 1302.295 49.805 Q 1302.295 56.284 1303.962 59.718 Z M 432.08 64.063 Q 436.865 64.063 439.453 60.328 A 12.835 12.835 0 0 0 441.153 56.703 Q 442.041 53.762 442.041 49.756 A 29.443 29.443 0 0 0 441.788 45.763 Q 441.51 43.738 440.927 42.088 A 12.193 12.193 0 0 0 439.453 39.161 A 8.248 8.248 0 0 0 433.522 35.54 A 11.134 11.134 0 0 0 432.08 35.45 A 9.64 9.64 0 0 0 428.704 36.016 Q 426.361 36.885 424.781 39.09 A 10.58 10.58 0 0 0 424.731 39.161 A 12.571 12.571 0 0 0 423.04 42.7 Q 422.522 44.37 422.295 46.394 A 30.274 30.274 0 0 0 422.119 49.756 A 28.872 28.872 0 0 0 422.374 53.726 Q 422.655 55.743 423.244 57.393 A 12.317 12.317 0 0 0 424.731 60.328 A 8.29 8.29 0 0 0 430.721 63.981 A 10.919 10.919 0 0 0 432.08 64.063 Z M 842.236 64.063 Q 847.021 64.063 849.609 60.328 A 12.835 12.835 0 0 0 851.309 56.703 Q 852.197 53.762 852.197 49.756 A 29.443 29.443 0 0 0 851.945 45.763 Q 851.667 43.738 851.083 42.088 A 12.193 12.193 0 0 0 849.609 39.161 A 8.248 8.248 0 0 0 843.678 35.54 A 11.134 11.134 0 0 0 842.236 35.45 A 9.64 9.64 0 0 0 838.86 36.016 Q 836.517 36.885 834.938 39.09 A 10.58 10.58 0 0 0 834.888 39.161 A 12.571 12.571 0 0 0 833.196 42.7 Q 832.678 44.37 832.452 46.394 A 30.274 30.274 0 0 0 832.275 49.756 A 28.872 28.872 0 0 0 832.53 53.726 Q 832.811 55.743 833.4 57.393 A 12.317 12.317 0 0 0 834.888 60.328 A 8.29 8.29 0 0 0 840.877 63.981 A 10.919 10.919 0 0 0 842.236 64.063 Z M 245.508 45.801 L 266.309 45.801 A 16.45 16.45 0 0 0 266.036 42.705 Q 265.692 40.915 264.917 39.521 A 8.389 8.389 0 0 0 263.647 37.793 A 8.71 8.71 0 0 0 259.24 35.339 A 13.225 13.225 0 0 0 256.201 35.01 A 11.666 11.666 0 0 0 252.897 35.456 A 9.008 9.008 0 0 0 248.95 37.818 Q 246.191 40.625 245.508 45.801 Z M 655.664 45.801 L 676.465 45.801 A 16.45 16.45 0 0 0 676.192 42.705 Q 675.848 40.915 675.073 39.521 A 8.389 8.389 0 0 0 673.804 37.793 A 8.71 8.71 0 0 0 669.396 35.339 A 13.225 13.225 0 0 0 666.357 35.01 A 11.666 11.666 0 0 0 663.053 35.456 A 9.008 9.008 0 0 0 659.106 37.818 Q 656.348 40.625 655.664 45.801 Z M 1651.758 45.801 L 1672.559 45.801 A 16.45 16.45 0 0 0 1672.286 42.705 Q 1671.942 40.915 1671.167 39.521 A 8.389 8.389 0 0 0 1669.897 37.793 A 8.71 8.71 0 0 0 1665.49 35.339 A 13.225 13.225 0 0 0 1662.451 35.01 A 11.666 11.666 0 0 0 1659.147 35.456 A 9.008 9.008 0 0 0 1655.2 37.818 Q 1652.441 40.625 1651.758 45.801 Z M 1428.185 16.508 A 9.812 9.812 0 0 0 1431.006 16.895 Q 1434.766 16.895 1437.109 14.551 A 7.685 7.685 0 0 0 1439.066 11.269 A 9.812 9.812 0 0 0 1439.453 8.448 Q 1439.453 4.688 1437.109 2.344 A 7.685 7.685 0 0 0 1433.827 0.387 A 9.812 9.812 0 0 0 1431.006 0 Q 1427.246 0 1424.902 2.344 A 7.685 7.685 0 0 0 1422.945 5.627 A 9.812 9.812 0 0 0 1422.559 8.448 Q 1422.559 12.207 1424.902 14.551 A 7.685 7.685 0 0 0 1428.185 16.508 Z M 1545.372 16.508 A 9.812 9.812 0 0 0 1548.193 16.895 Q 1551.953 16.895 1554.297 14.551 A 7.685 7.685 0 0 0 1556.254 11.269 A 9.812 9.812 0 0 0 1556.641 8.448 Q 1556.641 4.688 1554.297 2.344 A 7.685 7.685 0 0 0 1551.014 0.387 A 9.812 9.812 0 0 0 1548.193 0 Q 1544.434 0 1542.09 2.344 A 7.685 7.685 0 0 0 1540.133 5.627 A 9.812 9.812 0 0 0 1539.746 8.448 Q 1539.746 12.207 1542.09 14.551 A 7.685 7.685 0 0 0 1545.372 16.508 Z M 147.314 54.981 A 38.794 38.794 0 0 0 144.777 54.539 Q 143.578 54.373 142.495 54.312 A 23.248 23.248 0 0 0 142.188 54.297 A 109.188 109.188 0 0 0 138.762 54.207 A 126.748 126.748 0 0 0 137.354 54.2 Q 130.825 54.2 128.453 56.575 A 4.72 4.72 0 0 0 127.1 60.059 Q 127.1 64.76 132.573 65.384 A 15.958 15.958 0 0 0 134.375 65.479 A 19.007 19.007 0 0 0 137.508 65.235 Q 139.23 64.947 140.656 64.319 A 10.898 10.898 0 0 0 141.431 63.941 A 12.405 12.405 0 0 0 143.931 62.191 A 9.992 9.992 0 0 0 145.752 59.986 A 10.915 10.915 0 0 0 147.03 56.977 A 9.693 9.693 0 0 0 147.314 54.981 Z M 1026.221 54.981 A 38.794 38.794 0 0 0 1023.684 54.539 Q 1022.484 54.373 1021.401 54.312 A 23.248 23.248 0 0 0 1021.094 54.297 A 109.188 109.188 0 0 0 1017.669 54.207 A 126.748 126.748 0 0 0 1016.26 54.2 Q 1009.732 54.2 1007.36 56.575 A 4.72 4.72 0 0 0 1006.006 60.059 Q 1006.006 64.76 1011.479 65.384 A 15.958 15.958 0 0 0 1013.281 65.479 A 19.007 19.007 0 0 0 1016.414 65.235 Q 1018.136 64.947 1019.562 64.319 A 10.898 10.898 0 0 0 1020.337 63.941 A 12.405 12.405 0 0 0 1022.837 62.191 A 9.992 9.992 0 0 0 1024.658 59.986 A 10.915 10.915 0 0 0 1025.936 56.977 A 9.693 9.693 0 0 0 1026.221 54.981 Z" vector-effect="non-scaling-stroke"/></g></svg>