<?xml version="1.0" standalone="no"?>
<!DOCTYPE svg PUBLIC "-//W3C//DTD SVG 20010904//EN"
 "http://www.w3.org/TR/2001/REC-SVG-20010904/DTD/svg10.dtd">
<svg version="1.0" xmlns="http://www.w3.org/2000/svg"
 width="1920.000000pt" height="900.000000pt" viewBox="0 0 1920.000000 900.000000"
 preserveAspectRatio="xMidYMid meet">

<g transform="translate(0.000000,900.000000) scale(0.100000,-0.100000)"
fill="#000000" stroke="none">
<path d="M404 6742 c-9 -5 -12 -241 -10 -912 l1 -905 210 0 210 0 0 910 0 910
-200 2 c-110 2 -205 0 -211 -5z m266 -106 c0 -11 -19 -15 -25 -6 -3 5 1 10 9
10 9 0 16 -2 16 -4z m-180 -279 c0 -17 -20 -37 -37 -37 -7 0 -13 11 -13 25 0
20 5 25 25 25 14 0 25 -6 25 -13z m254 -73 c27 -11 18 -30 -21 -42 -44 -13
-47 -11 -39 23 6 25 27 32 60 19z m-239 -14 c3 -5 1 -10 -4 -10 -6 0 -11 5
-11 10 0 6 2 10 4 10 3 0 8 -4 11 -10z m265 -107 c0 -62 -16 -133 -29 -133 -5
0 -12 10 -16 23 -5 17 -8 18 -12 7 -4 -8 -12 -19 -19 -25 -7 -5 -14 -19 -16
-29 -1 -11 -8 -21 -14 -23 -14 -5 -5 59 10 69 7 5 3 14 -12 28 -23 22 -30 64
-11 75 5 4 9 17 8 28 -2 36 -1 37 56 37 l55 0 0 -57z m-210 13 c0 -3 -4 -8
-10 -11 -5 -3 -10 -1 -10 4 0 6 5 11 10 11 6 0 10 -2 10 -4z m60 -126 c0 -5
-2 -10 -4 -10 -3 0 -8 5 -11 10 -3 6 -1 10 4 10 6 0 11 -4 11 -10z m10 -97 c8
-13 13 -14 16 -5 8 17 34 15 34 -4 0 -9 -6 -14 -12 -11 -7 2 -21 0 -30 -4 -13
-7 -20 -4 -28 10 -12 24 -13 31 0 31 5 0 14 -8 20 -17z m90 -839 c0 -26 -17
-33 -26 -9 -8 20 3 48 16 40 5 -3 10 -17 10 -31z"/>
<path d="M1116 6728 c-3 -13 -7 -50 -11 -83 -20 -199 -34 -362 -40 -445 -4
-52 -15 -192 -26 -310 -11 -118 -24 -260 -29 -315 -12 -137 -37 -388 -51 -517
-6 -59 -9 -115 -5 -123 5 -14 31 -16 212 -14 139 1 207 5 209 13 4 10 15 123
32 329 5 55 8 65 19 56 8 -6 14 -21 14 -33 0 -11 18 -97 38 -191 l38 -170 210
0 209 0 39 198 c24 121 44 196 50 194 6 -2 14 -42 19 -88 4 -46 13 -133 20
-194 l12 -110 208 -3 c174 -2 208 0 213 12 3 8 0 57 -6 108 -6 51 -16 147 -21
213 -17 233 -61 690 -74 770 -3 17 -14 140 -25 275 -27 323 -37 427 -45 440
-4 6 -86 10 -229 10 l-223 0 -6 -32 c-3 -18 -31 -154 -62 -303 -31 -148 -59
-288 -63 -309 -13 -70 -28 -51 -51 66 -12 62 -43 217 -69 343 l-48 230 -227 3
-227 2 -4 -22z m225 -83 c31 -16 31 -35 1 -35 -10 0 -27 -7 -38 -15 -20 -14
-34 -11 -34 7 0 4 7 8 16 8 13 0 14 3 4 15 -12 15 -6 35 11 35 6 0 23 -7 40
-15z m129 -50 c0 -23 -22 -65 -31 -59 -13 8 -11 48 3 62 16 16 28 15 28 -3z
m-126 -36 c4 -3 0 -12 -9 -19 -16 -13 -19 -37 -9 -64 5 -12 11 -13 25 -6 21
12 140 9 132 -3 -2 -4 -2 -15 2 -26 4 -13 12 -17 30 -13 17 3 27 -1 31 -12 10
-27 -3 -31 -83 -28 -49 2 -79 -1 -83 -8 -12 -19 -50 11 -50 38 0 19 -4 22 -19
17 -16 -5 -20 0 -23 21 l-3 26 -25 -19 c-27 -22 -50 -20 -50 3 0 8 -9 14 -20
14 -31 0 -23 18 15 34 23 10 35 22 35 35 0 17 6 19 49 18 27 -1 52 -5 55 -8z
m16 -209 c0 -5 -5 -10 -11 -10 -5 0 -7 5 -4 10 3 6 8 10 11 10 2 0 4 -4 4 -10z
m165 -10 c12 -19 15 -54 5 -60 -10 -6 -14 -54 -8 -95 2 -14 -3 -20 -17 -20
-17 0 -20 6 -18 39 2 22 -4 51 -14 67 -14 23 -15 33 -5 53 12 26 45 35 57 16z
m-105 -37 c0 -35 -13 -63 -27 -63 -9 0 -13 6 -10 14 3 7 -3 20 -14 29 -28 25
-23 37 16 37 27 0 35 -4 35 -17z m650 -13 c0 -5 -7 -10 -15 -10 -8 0 -15 5
-15 10 0 6 7 10 15 10 8 0 15 -4 15 -10z m80 -4 c0 -11 -19 -15 -25 -6 -3 5 1
10 9 10 9 0 16 -2 16 -4z m-280 -36 c0 -5 -4 -10 -10 -10 -5 0 -10 5 -10 10 0
6 5 10 10 10 6 0 10 -4 10 -10z m-430 -20 c0 -5 -7 -10 -16 -10 -8 0 -12 5 -9
10 3 6 10 10 16 10 5 0 9 -4 9 -10z m-23 -84 c3 -2 -5 -10 -17 -16 -23 -13
-50 1 -50 26 0 9 8 10 31 4 18 -5 34 -11 36 -14z m628 14 c3 -6 -1 -13 -10
-16 -19 -8 -30 0 -20 15 8 14 22 14 30 1z m-914 -138 c18 -7 18 -9 3 -30 l-16
-23 -19 25 c-20 25 -24 47 -12 60 4 3 11 -1 16 -9 5 -9 17 -19 28 -23z m1219
-247 c0 -8 -7 -15 -15 -15 -16 0 -20 12 -8 23 11 12 23 8 23 -8z m-1112 -34
c3 -8 -1 -12 -9 -9 -7 2 -15 10 -17 17 -3 8 1 12 9 9 7 -2 15 -10 17 -17z
m1057 -21 c3 -5 -3 -10 -15 -10 -12 0 -18 5 -15 10 3 6 10 10 15 10 5 0 12 -4
15 -10z m-987 -72 c-7 -20 -48 -23 -48 -4 0 11 9 16 26 16 16 0 24 -5 22 -12z
m-93 -58 c3 -5 1 -10 -4 -10 -6 0 -11 5 -11 10 0 6 2 10 4 10 3 0 8 -4 11 -10z
m83 -22 c9 -15 13 -31 9 -35 -11 -10 -61 43 -52 56 10 17 24 10 43 -21z m-158
-109 c0 -5 -4 -9 -10 -9 -5 0 -10 7 -10 16 0 8 5 12 10 9 6 -3 10 -10 10 -16z
m0 -94 c0 -18 -5 -25 -19 -25 -11 0 -21 6 -24 13 -7 20 4 37 24 37 14 0 19 -7
19 -25z m140 0 c0 -14 -4 -25 -9 -25 -12 0 -23 29 -15 41 10 18 24 9 24 -16z
m0 -145 c0 -5 -5 -10 -11 -10 -5 0 -7 5 -4 10 3 6 8 10 11 10 2 0 4 -4 4 -10z
m560 -159 c0 -6 -4 -13 -10 -16 -5 -3 -10 1 -10 9 0 9 5 16 10 16 6 0 10 -4
10 -9z m44 -66 c-6 -25 -27 -32 -52 -16 -21 13 -10 46 16 49 12 2 22 9 22 15
0 7 5 4 11 -5 5 -10 7 -29 3 -43z"/>
<path d="M2961 6727 c-5 -13 -14 -59 -21 -103 -12 -83 -61 -347 -109 -594 -16
-80 -37 -188 -46 -240 -9 -52 -23 -129 -30 -170 -8 -41 -32 -178 -55 -305 -22
-126 -45 -243 -50 -260 -5 -16 -12 -54 -15 -82 l-7 -53 210 0 c118 0 213 4
217 9 5 10 10 32 51 246 13 72 31 163 40 203 l16 72 89 0 c83 0 90 -2 99 -22
9 -22 44 -198 75 -383 9 -49 18 -98 21 -107 5 -16 24 -18 220 -18 118 0 214 4
214 9 0 5 -7 39 -14 77 -8 38 -22 107 -30 154 -14 75 -47 256 -75 405 -6 28
-17 88 -25 135 -9 47 -29 159 -46 250 -17 91 -37 203 -46 250 -8 47 -20 110
-26 140 -5 30 -24 134 -42 230 l-33 175 -286 3 -287 2 -9 -23z m129 -225 c0
-10 -21 -32 -31 -32 -4 0 -5 9 -2 20 5 19 33 29 33 12z m151 -12 c20 -16 21
-19 7 -20 -21 0 -38 -29 -38 -65 0 -21 -4 -26 -16 -21 -9 3 -22 6 -30 6 -7 0
-11 6 -8 14 3 8 1 23 -5 34 -5 10 -7 29 -4 41 4 18 11 21 29 17 14 -4 24 -2
24 4 0 16 15 12 41 -10z m89 -129 c0 -14 -32 -51 -44 -51 -17 0 -26 32 -15 52
8 15 59 14 59 -1z m-314 -39 c-10 -10 -29 15 -21 28 6 9 10 8 17 -4 6 -10 7
-20 4 -24z m552 -73 c-22 -12 -23 -29 -3 -29 19 0 45 -62 45 -110 0 -24 -7
-43 -20 -55 -26 -23 -25 -33 3 -38 21 -4 20 -4 -3 -5 -14 -1 -32 3 -40 8 -11
7 -20 4 -32 -13 -17 -21 -18 -21 -18 -2 -1 34 -16 51 -33 36 -10 -8 -17 -9
-22 -1 -8 14 3 30 21 30 10 0 14 11 14 38 0 72 9 113 36 165 8 15 12 33 8 40
-4 6 9 -3 27 -21 31 -30 32 -34 17 -43z m-223 21 c3 -5 1 -10 -4 -10 -6 0 -11
5 -11 10 0 6 2 10 4 10 3 0 8 -4 11 -10z m45 -110 c0 -5 -5 -10 -11 -10 -5 0
-7 5 -4 10 3 6 8 10 11 10 2 0 4 -4 4 -10z m-107 -176 c8 -60 13 -112 10 -116
-8 -14 -73 -9 -79 6 -6 14 24 223 34 240 10 18 21 -23 35 -130z m174 -26 c21
-19 27 -21 44 -9 12 7 23 10 25 8 7 -7 -19 -24 -47 -31 -21 -5 -30 -1 -43 19
-27 42 -17 48 21 13z m251 -520 c22 -22 12 -29 -18 -13 -16 9 -30 18 -30 20 0
10 36 5 48 -7z m-153 -319 c8 -25 1 -34 -20 -26 -19 8 -20 47 -1 47 8 0 18 -9
21 -21z m-790 0 c10 -15 -1 -23 -20 -15 -9 3 -13 10 -10 16 8 13 22 13 30 -1z"/>
<path d="M4284 6740 c-140 -28 -269 -150 -314 -298 -19 -61 -20 -93 -20 -601
0 -453 2 -546 16 -596 36 -140 105 -225 233 -288 l66 -32 185 0 c172 0 189 2
235 23 130 60 222 168 250 295 13 60 15 130 13 407 l-3 335 -253 3 -252 2 2
-212 3 -213 37 -3 c20 -2 38 -8 41 -15 2 -7 1 -55 -2 -107 l-6 -95 -34 -3
c-19 -2 -50 -1 -68 3 l-33 6 0 483 c0 552 -11 497 100 486 36 -4 59 -8 52 -8
-10 -2 -12 -26 -10 -99 l3 -98 105 -8 c113 -9 289 -5 308 7 8 5 12 50 12 140
0 184 -27 263 -127 367 -59 62 -135 102 -223 119 -62 12 -257 11 -316 0z m36
-100 c0 -10 5 -22 10 -25 19 -12 10 -34 -24 -54 -45 -28 -56 -26 -56 7 0 16
-7 37 -15 48 -25 33 -19 52 18 56 41 5 67 -8 67 -32z m168 -67 c-2 -20 -11
-30 -30 -37 -31 -11 -33 -10 -42 22 -6 17 -2 24 16 31 44 18 60 14 56 -16z
m232 -8 c18 -34 3 -46 -21 -16 -22 27 -24 41 -6 41 8 0 20 -11 27 -25z m-40
-55 c7 -13 7 -20 1 -20 -6 0 -15 9 -21 20 -7 13 -7 20 -1 20 6 0 15 -9 21 -20z
m-37 -35 c1 -5 -6 -11 -15 -13 -11 -2 -18 3 -18 13 0 17 30 18 33 0z m-223
-25 c0 -5 -4 -10 -9 -10 -6 0 -13 5 -16 10 -3 6 1 10 9 10 9 0 16 -4 16 -10z
m270 -920 c0 -5 -4 -10 -10 -10 -5 0 -10 5 -10 10 0 6 5 10 10 10 6 0 10 -4
10 -10z m-80 -35 c0 -8 -4 -15 -9 -15 -13 0 -22 16 -14 24 11 11 23 6 23 -9z"/>
<path d="M5087 6743 c-4 -3 -7 -415 -7 -915 l0 -908 448 2 447 3 3 207 2 208
-232 2 -233 3 0 175 0 175 195 5 195 5 3 190 c1 105 0 201 -3 214 l-6 24 -195
-5 -194 -4 0 98 0 98 223 0 c160 0 226 3 235 12 9 9 12 69 12 209 0 170 -2
198 -16 203 -21 8 -869 8 -877 -1z m291 -194 c3 -19 -31 -32 -46 -17 -16 16
-2 39 22 36 11 -2 22 -10 24 -19z m82 11 c0 -5 -4 -10 -10 -10 -5 0 -10 5 -10
10 0 6 5 10 10 10 6 0 10 -4 10 -10z m300 -29 c0 -5 -7 -14 -15 -21 -12 -10
-15 -10 -15 2 0 8 3 18 7 21 9 10 23 9 23 -2z m-160 -21 c0 -5 -5 -10 -11 -10
-5 0 -7 5 -4 10 3 6 8 10 11 10 2 0 4 -4 4 -10z m-295 -30 c3 -5 -3 -10 -15
-10 -12 0 -18 5 -15 10 3 6 10 10 15 10 5 0 12 -4 15 -10z m365 -31 c0 -10 -4
-19 -9 -19 -12 0 -23 29 -15 41 8 14 24 0 24 -22z m-65 11 c8 -13 -24 -60 -41
-60 -18 0 -17 4 1 40 16 31 29 37 40 20z m-190 -56 c13 -10 15 -15 5 -13 -8 2
-25 -2 -38 -9 -22 -13 -42 -9 -42 7 0 7 37 29 50 30 3 0 14 -7 25 -15z m-15
-84 c14 -10 21 -22 17 -26 -12 -12 -61 10 -65 29 -4 22 17 21 48 -3z m-130
-140 c0 -5 -7 -10 -15 -10 -8 0 -15 5 -15 10 0 6 7 10 15 10 8 0 15 -4 15 -10z
m155 -61 c4 -11 4 -23 1 -27 -8 -7 -36 30 -30 40 9 14 23 8 29 -13z m-127 -49
c24 -48 14 -59 -22 -25 -25 24 -33 45 -19 58 13 13 21 6 41 -33z m75 -21 c7
-25 -9 -25 -23 0 -13 26 -13 31 4 25 8 -3 16 -14 19 -25z"/>
<path d="M7199 6741 c-98 -21 -225 -112 -275 -198 -15 -24 -35 -71 -45 -104
-18 -56 -19 -100 -19 -609 0 -517 1 -551 20 -611 37 -120 118 -211 236 -266
58 -28 62 -28 249 -28 l190 0 64 33 c88 46 154 116 199 210 37 76 37 79 40
220 l4 142 -214 -2 -213 -3 -3 -85 c-2 -52 -8 -87 -15 -92 -16 -11 -125 -10
-131 1 -3 4 -3 225 1 490 l6 482 66 -3 66 -3 5 -100 5 -100 85 -7 c112 -8 289
-9 318 -2 21 6 22 10 22 140 0 143 -15 214 -62 294 -49 81 -139 153 -233 183
-57 19 -307 31 -366 18z m-39 -250 c0 -32 26 -45 52 -27 12 9 34 16 48 15 l25
0 -22 -16 c-13 -8 -23 -21 -23 -28 0 -13 -47 -14 -67 -2 -7 4 -16 -7 -22 -25
-9 -25 -14 -29 -23 -20 -10 10 -10 17 0 32 9 15 10 26 2 40 -16 30 -12 50 10
50 13 0 20 -7 20 -19z m70 4 c0 -8 -4 -15 -10 -15 -5 0 -10 7 -10 15 0 8 5 15
10 15 6 0 10 -7 10 -15z m300 -140 c0 -12 -24 -55 -32 -55 -12 0 -10 34 4 48
12 12 28 16 28 7z m160 -139 c0 -8 -4 -18 -10 -21 -5 -3 -10 3 -10 14 0 12 5
21 10 21 6 0 10 -6 10 -14z m-518 -348 c-9 -9 -15 -9 -24 0 -9 9 -7 12 12 12
19 0 21 -3 12 -12z m-222 -77 c0 -17 -27 -13 -34 5 -3 9 -6 25 -6 36 0 19 1
19 20 -5 11 -14 20 -30 20 -36z m65 -371 c27 -17 38 -18 61 -10 24 9 31 8 41
-6 17 -23 17 -25 -10 -65 -12 -18 -33 -36 -47 -39 -17 -4 -25 -13 -25 -28 0
-25 -20 -30 -20 -4 -1 9 -9 29 -19 44 -14 22 -15 30 -4 47 11 17 9 23 -10 44
-39 41 -21 51 33 17z m733 -47 c2 -16 -2 -23 -12 -23 -9 0 -22 -15 -29 -32
-11 -28 -11 -37 2 -59 14 -24 13 -30 -2 -65 -9 -22 -16 -48 -14 -59 1 -14 -4
-20 -18 -20 -39 -1 -85 -17 -85 -30 0 -7 -7 -18 -15 -25 -14 -11 -13 -14 2
-25 39 -29 -36 -66 -129 -66 -29 1 -83 -2 -119 -5 -55 -5 -67 -3 -72 10 -5 12
0 16 17 16 37 0 57 11 67 36 4 13 15 24 24 24 9 0 15 9 15 24 0 17 8 27 33 36
17 6 42 16 54 20 12 5 32 23 44 39 13 17 30 31 38 32 11 0 12 2 4 6 -22 8 -14
30 10 29 17 -1 22 5 23 24 0 33 28 74 59 88 14 6 25 18 25 26 0 34 73 33 78
-1z m-787 -89 c10 -13 10 -17 -1 -24 -15 -9 -30 4 -30 28 0 17 15 15 31 -4z
m832 4 c15 3 16 0 5 -22 -13 -29 -30 -33 -48 -11 -15 18 -5 49 12 38 7 -4 21
-6 31 -5z m-308 -9 c11 -17 2 -18 -19 -3 -17 12 -17 14 -4 14 9 0 20 -5 23
-11z m65 -19 c0 -5 -4 -10 -10 -10 -5 0 -10 5 -10 10 0 6 5 10 10 10 6 0 10
-4 10 -10z m-129 -39 c-6 -11 -8 -27 -4 -37 4 -12 2 -15 -8 -12 -21 7 -23 47
-3 70 21 22 31 9 15 -21z m86 -17 c-3 -3 -12 -4 -19 -1 -8 3 -5 6 6 6 11 1 17
-2 13 -5z m243 -55 c0 -5 -7 -9 -15 -9 -15 0 -20 12 -9 23 8 8 24 -1 24 -14z
m-80 -93 c0 -15 -37 -32 -47 -22 -3 3 -3 12 0 21 8 19 47 20 47 1z"/>
<path d="M8295 6727 c-143 -54 -247 -165 -285 -306 -8 -31 -11 -204 -11 -596
0 -537 0 -554 21 -616 42 -122 118 -207 237 -262 44 -20 62 -22 238 -22 l190
0 65 31 c81 39 145 96 187 165 61 102 62 115 59 729 l-3 555 -28 75 c-23 59
-41 87 -85 131 -111 109 -192 137 -392 138 -114 0 -142 -3 -193 -22z m122
-110 c-2 -7 -18 -16 -35 -22 -26 -7 -32 -14 -32 -37 0 -31 -29 -49 -85 -52
-24 -1 -31 3 -33 22 -2 13 2 30 9 39 11 13 10 17 -4 28 -23 17 -10 26 21 14
23 -9 41 0 42 21 0 3 15 10 33 16 36 11 91 -8 84 -29z m147 27 c4 -9 4 -19 2
-21 -8 -8 -26 8 -26 23 0 19 16 18 24 -2z m171 -4 c3 -5 2 -10 -4 -10 -5 0
-13 5 -16 10 -3 6 -2 10 4 10 5 0 13 -4 16 -10z m-205 -40 c0 -5 -6 -10 -14
-10 -8 0 -18 5 -21 10 -3 6 3 10 14 10 12 0 21 -4 21 -10z m32 -42 c-6 -6 -15
-8 -19 -4 -4 4 -1 11 7 16 19 12 27 3 12 -12z m138 -153 c16 -19 37 -19 57 1
9 8 25 14 37 12 24 -3 36 -38 12 -38 -9 0 -16 -12 -18 -32 -2 -24 -10 -36 -30
-46 -44 -21 -50 -72 -7 -72 28 0 23 -24 -12 -65 -24 -27 -39 -35 -58 -33 -36
4 -34 33 2 33 30 1 49 20 44 45 -3 16 -10 16 -39 5 -14 -5 -18 -2 -18 14 0 12
5 21 10 21 6 0 10 11 10 25 0 18 -5 25 -19 25 -16 0 -21 9 -27 45 -3 25 -4 52
0 60 7 19 40 19 56 0z m-140 -85 c13 -8 15 -73 18 -468 2 -298 -1 -468 -8
-486 -10 -26 -12 -27 -77 -24 l-68 3 0 485 0 485 30 6 c46 10 88 10 105 -1z
m370 -41 c0 -6 -4 -7 -10 -4 -5 3 -10 11 -10 16 0 6 5 7 10 4 6 -3 10 -11 10
-16z m-22 -51 c-6 -18 -28 -21 -28 -4 0 9 7 16 16 16 9 0 14 -5 12 -12z m-575
-53 c1 -5 -6 -11 -15 -13 -11 -2 -18 3 -18 13 0 17 30 18 33 0z m497 -556 c0
-7 -53 -20 -59 -13 -2 2 4 16 14 30 17 26 18 27 31 9 8 -10 14 -22 14 -26z
m80 -33 c0 -11 -19 -15 -25 -6 -3 5 1 10 9 10 9 0 16 -2 16 -4z m-215 -36 c-3
-5 -10 -10 -16 -10 -5 0 -9 5 -9 10 0 6 7 10 16 10 8 0 12 -4 9 -10z m-31 -46
c16 -6 22 -35 9 -47 -10 -11 -33 13 -33 34 0 21 1 22 24 13z"/>
<path d="M9300 6724 c-6 -14 -10 -43 -10 -64 0 -21 -4 -72 -10 -112 -5 -40
-14 -134 -20 -208 -23 -287 -40 -501 -54 -650 -8 -85 -20 -207 -26 -270 -20
-218 -40 -405 -46 -432 -3 -15 -3 -37 1 -48 6 -19 14 -20 184 -20 98 0 192 3
209 6 35 7 36 10 55 245 8 87 17 144 23 146 7 2 18 -28 27 -79 23 -120 45
-216 60 -268 l13 -45 203 0 c171 0 205 2 212 15 4 8 22 93 40 188 31 164 42
202 53 191 3 -2 12 -76 21 -164 9 -88 18 -177 22 -197 l6 -38 208 0 209 0 0
33 c0 17 -5 73 -10 122 -5 50 -16 176 -25 280 -8 105 -22 258 -31 340 -8 83
-19 193 -24 245 -6 52 -12 111 -15 130 -2 19 -9 91 -15 160 -24 305 -41 470
-50 494 l-10 26 -222 -2 -222 -3 -22 -115 c-13 -63 -37 -180 -54 -260 -17 -80
-38 -182 -46 -227 -16 -81 -27 -101 -38 -65 -3 9 -21 96 -40 192 -19 96 -49
240 -66 320 -16 80 -30 148 -30 152 0 5 -101 8 -225 8 l-225 0 -10 -26z m225
-80 c27 -18 25 -34 -4 -34 -10 0 -24 -7 -31 -15 -7 -8 -16 -15 -21 -15 -5 0
-9 7 -9 15 0 8 8 15 17 15 15 0 15 1 -2 13 -19 15 -13 37 11 37 8 0 26 -7 39
-16z m130 -44 c3 -5 -2 -24 -12 -42 l-18 -33 -3 28 c-6 46 15 76 33 47z m-119
-42 c3 -4 -3 -11 -15 -17 -13 -8 -19 -20 -18 -39 l2 -27 83 1 c76 1 83 -1 79
-18 -6 -20 10 -34 34 -30 18 3 46 -25 35 -35 -4 -4 -41 -6 -83 -5 -42 1 -81
-2 -89 -8 -18 -16 -54 9 -54 38 0 19 -4 22 -20 17 -18 -6 -20 -3 -14 19 7 31
-6 34 -30 7 -19 -21 -46 -18 -46 5 0 8 -9 14 -20 14 -27 0 -25 28 2 32 13 2
29 15 36 30 12 25 17 27 62 25 28 -2 52 -6 56 -9z m171 -220 c18 -24 22 -56 6
-62 -11 -4 -14 -19 -11 -58 3 -45 0 -53 -16 -56 -17 -4 -18 1 -13 37 4 31 0
47 -14 65 -22 28 -22 27 -9 60 10 28 41 35 57 14z m-97 -33 c0 -19 -21 -65
-30 -65 -4 0 -10 8 -13 18 -4 9 -14 27 -23 40 -16 22 -16 22 25 22 29 0 41 -4
41 -15z m644 -14 c3 -5 -1 -11 -9 -15 -15 -6 -29 7 -18 18 9 9 21 8 27 -3z
m76 -11 c0 -5 -4 -10 -10 -10 -5 0 -10 5 -10 10 0 6 5 10 10 10 6 0 10 -4 10
-10z m-280 -30 c0 -5 -4 -10 -10 -10 -5 0 -10 5 -10 10 0 6 5 10 10 10 6 0 10
-4 10 -10z m-430 -20 c0 -5 -4 -10 -10 -10 -5 0 -10 5 -10 10 0 6 5 10 10 10
6 0 10 -4 10 -10z m-25 -81 c3 -4 -4 -13 -16 -20 -19 -10 -25 -9 -36 7 -7 10
-13 21 -13 24 0 9 59 -1 65 -11z m627 6 c0 -5 -5 -11 -11 -13 -6 -2 -11 4 -11
13 0 9 5 15 11 13 6 -2 11 -8 11 -13z m-928 -120 c3 -8 12 -15 21 -15 17 0 18
-2 9 -24 -3 -9 -11 -16 -16 -16 -15 0 -37 32 -38 53 0 21 16 23 24 2z m1244
-263 c2 -7 -5 -12 -17 -12 -14 0 -19 5 -14 15 6 17 25 15 31 -3z m-1109 -38
c3 -16 1 -17 -13 -5 -19 16 -21 34 -3 29 6 -3 14 -13 16 -24z m1046 -14 c3 -5
-1 -10 -10 -10 -9 0 -13 5 -10 10 3 6 8 10 10 10 2 0 7 -4 10 -10z m-987 -72
c-3 -7 -13 -13 -23 -13 -10 0 -20 6 -22 13 -3 7 5 12 22 12 17 0 25 -5 23 -12z
m-9 -74 c37 -47 21 -60 -25 -21 -16 14 -24 29 -20 35 11 18 23 14 45 -14z
m-159 -109 c0 -8 -4 -15 -10 -15 -5 0 -10 7 -10 15 0 8 5 15 10 15 6 0 10 -7
10 -15z m4 -91 c7 -19 -1 -34 -19 -34 -18 0 -28 17 -21 35 7 20 32 19 40 -1z
m135 -16 c0 -28 -2 -30 -9 -13 -12 28 -12 45 0 45 6 0 10 -15 9 -32z m-2 -150
c-3 -8 -6 -5 -6 6 -1 11 2 17 5 13 3 -3 4 -12 1 -19z m563 -154 c0 -8 -4 -12
-10 -9 -5 3 -10 10 -10 16 0 5 5 9 10 9 6 0 10 -7 10 -16z m53 -26 c6 -20 -15
-58 -32 -58 -46 1 -53 54 -8 63 12 2 25 5 29 6 3 0 8 -5 11 -11z"/>
<path d="M10818 6745 c-11 -11 -10 -1797 0 -1813 7 -9 56 -12 213 -10 l204 3
3 282 2 282 58 6 c136 14 230 53 310 129 115 107 168 230 182 416 22 294 -57
504 -233 619 -123 80 -136 82 -452 88 -154 3 -283 2 -287 -2z m346 -424 c3 -4
3 -11 0 -14 -8 -8 -34 3 -34 14 0 11 27 12 34 0z m170 -31 c30 -36 39 -91 34
-202 -4 -96 -20 -134 -66 -161 -60 -35 -62 -30 -62 193 l0 200 34 0 c26 0 41
-7 60 -30z m146 -75 c0 -17 -17 -28 -30 -20 -7 4 -7 13 0 26 12 21 30 17 30
-6z m220 -51 c0 -14 -6 -24 -14 -24 -18 0 -29 -45 -16 -70 14 -27 13 -28 -17
-32 -24 -3 -28 -7 -26 -33 1 -16 5 -44 8 -62 6 -27 4 -32 -17 -38 -12 -4 -33
-19 -45 -34 -14 -16 -26 -22 -30 -16 -5 6 -15 10 -23 10 -8 0 -15 5 -15 11 0
5 -17 25 -37 43 -21 18 -35 37 -32 43 3 5 -1 15 -10 21 -14 10 -16 22 -10 56
6 35 13 47 40 63 19 11 34 26 34 34 0 8 3 14 7 14 15 0 43 -34 43 -53 0 -13 5
-17 16 -13 9 3 31 6 50 6 38 0 42 10 19 54 -8 15 -13 31 -11 35 2 3 23 7 45 7
37 1 41 -1 41 -22z m-750 -24 c0 -5 -9 -19 -20 -30 -21 -21 -27 -10 -14 24 7
17 34 22 34 6z m79 -69 c16 -10 8 -26 -20 -41 -17 -10 -19 -7 -19 20 0 30 13
37 39 21z m639 -213 c-2 -13 -10 -23 -18 -23 -8 0 -16 10 -18 23 -3 17 2 22
18 22 16 0 21 -5 18 -22z m-208 -33 c7 -9 10 -18 7 -22 -8 -7 -37 15 -37 28 0
14 16 11 30 -6z m163 -10 c-3 -9 -8 -14 -10 -11 -3 3 -2 9 2 15 9 16 15 13 8
-4z m-98 -35 c3 -5 1 -10 -4 -10 -6 0 -11 5 -11 10 0 6 2 10 4 10 3 0 8 -4 11
-10z m125 -30 c0 -5 -5 -10 -11 -10 -5 0 -7 5 -4 10 3 6 8 10 11 10 2 0 4 -4
4 -10z m-185 -43 c0 -30 3 -32 38 -35 20 -2 37 -8 37 -14 0 -20 -74 -78 -108
-84 -41 -8 -52 4 -52 60 0 31 3 37 16 32 35 -13 54 3 54 46 0 23 3 38 8 34 4
-4 7 -22 7 -39z m-225 -165 c0 -4 -12 -20 -26 -35 -18 -19 -31 -26 -43 -21 -9
4 -27 7 -40 8 -28 1 -42 26 -14 26 10 0 27 7 37 15 20 15 86 21 86 7z m-110
-302 c0 -5 -4 -10 -10 -10 -5 0 -10 5 -10 10 0 6 5 10 10 10 6 0 10 -4 10 -10z
m-225 -121 c10 -15 -1 -23 -20 -15 -9 3 -13 10 -10 16 8 13 22 13 30 -1z"/>
<path d="M11927 6465 c-9 -365 -9 -1423 0 -1493 l6 -52 206 2 206 3 2 70 c1
39 2 152 2 253 1 100 5 182 9 182 5 0 46 -96 92 -212 45 -117 91 -232 101
-256 l18 -42 226 0 c124 1 225 4 225 7 0 7 -1 10 -165 425 -58 146 -105 274
-105 283 0 9 12 28 26 43 35 37 91 150 109 219 17 65 21 313 6 403 -34 205
-180 377 -366 429 -22 6 -163 14 -316 17 l-276 6 -6 -287z m460 190 c30 -29
42 -35 64 -30 22 5 28 2 33 -18 3 -14 15 -27 26 -30 11 -3 20 -12 20 -21 0
-21 29 -21 45 0 17 23 55 2 55 -31 0 -31 -13 -38 -44 -24 -41 19 -72 -1 -81
-50 -4 -27 -12 -41 -22 -41 -20 0 -11 -24 12 -29 10 -1 22 5 28 14 9 16 11 16
23 -6 7 -13 13 -36 14 -51 0 -24 -3 -26 -40 -25 -22 1 -40 5 -40 10 0 14 -65
47 -83 41 -10 -3 -27 2 -37 11 -35 31 -52 8 -54 -76 -3 -81 -15 -159 -25 -159
-15 0 -61 71 -61 95 0 25 0 25 -25 9 -21 -13 -40 -16 -93 -11 -60 6 -70 10
-92 38 -22 28 -25 44 -28 123 -8 208 -6 259 13 273 25 17 64 6 97 -29 29 -31
73 -37 108 -16 16 10 23 10 36 -4 28 -28 7 -78 -41 -104 -22 -11 -41 -28 -43
-36 -3 -17 31 -34 47 -24 10 7 81 -21 81 -32 0 -4 18 -8 40 -9 35 -1 40 2 40
22 0 28 22 47 44 39 19 -7 45 21 46 50 0 27 -75 111 -112 126 -44 18 -59 30
-52 42 12 18 64 -1 101 -37z m163 -45 c0 -5 -2 -10 -4 -10 -3 0 -8 5 -11 10
-3 6 -1 10 4 10 6 0 11 -4 11 -10z m-212 -134 c2 -9 -2 -24 -9 -32 -11 -14
-14 -13 -21 5 -9 25 0 53 16 48 6 -2 12 -11 14 -21z m102 -181 c29 -26 42 -95
38 -201 -4 -112 -18 -152 -62 -173 -57 -27 -61 -16 -64 204 l-2 198 36 -6 c20
-3 44 -13 54 -22z m-326 -120 c17 -27 8 -32 -24 -15 -11 6 -17 17 -14 25 9 21
19 19 38 -10z m-117 -37 c-3 -8 -6 -5 -6 6 -1 11 2 17 5 13 3 -3 4 -12 1 -19z
m263 -357 c0 -11 6 -22 13 -24 9 -4 8 -8 -3 -16 -23 -16 -35 -8 -38 27 -2 24
1 32 12 32 9 0 16 -8 16 -19z m320 -45 c0 -3 -4 -8 -10 -11 -5 -3 -10 -1 -10
4 0 6 5 11 10 11 6 0 10 -2 10 -4z m66 -23 c-4 -10 1 -23 14 -35 26 -24 35
-64 23 -97 -7 -20 -5 -35 11 -66 11 -22 24 -43 29 -46 5 -4 6 -21 2 -39 -7
-30 -6 -31 15 -20 29 16 35 7 20 -29 -6 -16 -9 -34 -6 -40 4 -5 2 -12 -3 -15
-14 -9 -100 35 -106 54 -3 10 -16 22 -29 28 -17 7 -25 22 -30 51 -6 42 -26 57
-26 20 0 -14 -5 -19 -17 -17 -20 4 -29 48 -15 74 8 14 10 14 24 0 15 -14 18
-13 32 9 9 13 16 27 16 30 0 9 -57 5 -86 -5 -21 -8 -31 -8 -42 4 -20 19 -6 38
26 34 20 -2 27 2 32 21 9 38 33 48 65 27 17 -11 24 -23 21 -33 -7 -18 10 -43
30 -43 23 0 16 47 -11 76 -28 30 -32 54 -10 54 8 0 15 5 15 10 0 6 3 10 6 10
3 0 3 -7 0 -17z m-273 -22 c7 -28 -2 -32 -24 -10 -24 24 -24 29 0 29 10 0 21
-9 24 -19z m-255 -448 c2 -8 -5 -13 -18 -13 -18 0 -21 -5 -18 -32 2 -24 -1
-33 -14 -36 -26 -5 -40 30 -27 68 10 27 15 31 42 28 17 -2 32 -9 35 -15z m-88
-143 c0 -5 -7 -10 -16 -10 -8 0 -12 5 -9 10 3 6 10 10 16 10 5 0 9 -4 9 -10z"/>
<path d="M13157 6743 c-4 -3 -7 -415 -7 -915 l0 -908 448 2 447 3 3 207 2 208
-232 2 -233 3 0 175 0 175 195 5 195 5 3 190 c1 105 0 201 -3 214 l-6 24 -195
-5 -194 -4 0 98 0 98 219 0 c121 0 226 3 235 6 14 5 16 33 16 209 0 176 -2
204 -16 209 -21 8 -869 8 -877 -1z m291 -194 c3 -19 -31 -32 -46 -17 -16 16
-2 39 22 36 11 -2 22 -10 24 -19z m82 11 c0 -5 -4 -10 -10 -10 -5 0 -10 5 -10
10 0 6 5 10 10 10 6 0 10 -4 10 -10z m300 -29 c0 -5 -7 -14 -15 -21 -12 -10
-15 -10 -15 2 0 8 3 18 7 21 9 10 23 9 23 -2z m-160 -21 c0 -5 -5 -10 -11 -10
-5 0 -7 5 -4 10 3 6 8 10 11 10 2 0 4 -4 4 -10z m-295 -30 c3 -5 -3 -10 -15
-10 -12 0 -18 5 -15 10 3 6 10 10 15 10 5 0 12 -4 15 -10z m365 -31 c0 -10 -4
-19 -9 -19 -12 0 -23 29 -15 41 8 14 24 0 24 -22z m-65 11 c8 -13 -24 -60 -41
-60 -18 0 -17 4 1 40 16 31 29 37 40 20z m-190 -56 c13 -10 15 -15 5 -13 -8 2
-25 -2 -38 -9 -22 -13 -42 -9 -42 7 0 7 37 29 50 30 3 0 14 -7 25 -15z m-16
-83 c13 -10 21 -23 17 -30 -10 -15 -66 14 -66 34 0 20 20 18 49 -4z m-129
-141 c0 -5 -7 -10 -15 -10 -8 0 -15 5 -15 10 0 6 7 10 15 10 8 0 15 -4 15 -10z
m155 -61 c4 -11 4 -23 1 -27 -8 -7 -36 30 -30 40 9 14 23 8 29 -13z m-127 -49
c24 -48 14 -59 -22 -25 -25 24 -33 45 -19 58 13 13 21 6 41 -33z m75 -21 c7
-25 -9 -25 -23 0 -13 26 -13 31 4 25 8 -3 16 -14 19 -25z"/>
<path d="M14509 6736 c-71 -20 -145 -64 -200 -120 -107 -107 -129 -180 -129
-437 0 -202 9 -247 71 -345 91 -144 210 -204 406 -204 81 0 93 -2 94 -17 5
-67 6 -204 2 -235 l-5 -38 -69 0 -68 0 -3 73 -3 72 -162 3 c-90 1 -184 -1
-210 -5 l-48 -8 -3 -104 c-6 -205 69 -335 238 -415 l65 -31 190 0 c215 0 250
8 341 76 57 42 127 139 146 202 9 29 13 118 13 287 l0 245 -33 67 c-45 92
-116 168 -194 206 -72 35 -181 57 -238 48 -21 -3 -52 -3 -69 0 l-31 7 0 128 0
129 70 0 c68 0 76 -4 71 -34 -1 -6 1 -32 4 -58 l7 -48 209 0 209 0 0 103 c0
113 -16 178 -65 261 -41 71 -121 137 -206 171 -68 27 -85 30 -214 32 -91 1
-156 -3 -186 -11z m-79 -166 c0 -5 -7 -10 -15 -10 -8 0 -15 5 -15 10 0 6 7 10
15 10 8 0 15 -4 15 -10z m-26 -98 c35 -18 36 -19 18 -35 -24 -22 -41 -21 -71
2 -16 12 -22 24 -18 35 8 21 25 20 71 -2z m-137 -63 c8 -8 8 -18 1 -34 -13
-30 14 -85 43 -85 17 0 18 -3 9 -21 -7 -11 -9 -27 -6 -35 3 -9 -1 -14 -13 -14
-29 0 -65 66 -64 115 4 92 6 98 30 74z m139 -55 c3 -12 3 -27 0 -33 -4 -5 4
-17 16 -25 20 -14 20 -18 8 -41 -16 -30 -26 -31 -40 -6 -5 11 -19 23 -30 26
-11 3 -20 15 -20 26 0 12 -10 23 -26 29 -35 14 -26 32 22 46 47 14 62 9 70
-22z m344 -1274 c0 -5 -5 -10 -11 -10 -5 0 -7 5 -4 10 3 6 8 10 11 10 2 0 4
-4 4 -10z m-255 -10 c18 -7 19 -8 3 -15 -22 -9 -51 1 -43 15 7 12 13 12 40 0z"/>
<path d="M15640 6734 c-79 -21 -137 -58 -207 -131 -102 -107 -108 -130 -108
-418 l0 -240 28 -54 c65 -123 125 -181 242 -231 38 -17 79 -24 170 -29 l120
-6 7 -60 c8 -66 0 -204 -12 -220 -5 -5 -35 -8 -68 -7 l-60 4 -9 71 -8 72 -145
3 c-80 2 -174 0 -208 -3 l-64 -7 4 -136 c3 -127 6 -141 33 -195 38 -77 114
-151 194 -189 64 -31 71 -32 216 -34 82 -2 179 1 214 6 123 17 220 87 286 205
47 86 58 163 54 396 l-4 195 -38 76 c-45 92 -123 174 -198 210 -64 30 -186 53
-235 43 -20 -3 -49 -3 -65 0 l-29 7 0 129 0 129 70 0 70 0 0 -47 c0 -100 -16
-93 215 -93 176 0 204 2 209 16 3 9 6 51 6 94 0 97 -26 185 -78 266 -60 92
-120 135 -244 175 -76 24 -274 26 -358 3z m-70 -164 c0 -5 -7 -10 -15 -10 -8
0 -15 5 -15 10 0 6 7 10 15 10 8 0 15 -4 15 -10z m-31 -97 c35 -20 37 -26 16
-43 -17 -14 -50 -8 -80 13 -16 13 -17 17 -6 31 17 20 32 20 70 -1z m-132 -69
c3 -9 1 -25 -6 -36 -10 -16 -8 -24 9 -48 12 -17 28 -30 36 -30 16 0 19 -16 5
-24 -5 -3 -7 -15 -4 -26 7 -25 -18 -27 -39 -2 -33 37 -40 63 -33 123 7 58 20
75 32 43z m137 -79 c-4 -16 0 -26 11 -32 12 -7 14 -17 10 -36 -8 -31 -31 -36
-40 -8 -3 11 -15 23 -26 26 -10 4 -19 15 -19 26 0 12 -10 23 -25 29 -38 15
-30 36 18 47 36 9 44 7 59 -10 11 -12 16 -28 12 -42z m341 -1245 c3 -5 1 -10
-4 -10 -6 0 -11 5 -11 10 0 6 2 10 4 10 3 0 8 -4 11 -10z m-261 -6 c9 -3 16
-10 16 -16 0 -14 -43 -5 -48 10 -4 13 7 15 32 6z"/>
<path d="M16770 6731 c-141 -45 -242 -146 -290 -290 -21 -63 -21 -73 -18 -635
l4 -571 31 -68 c38 -79 114 -163 180 -199 75 -41 141 -50 314 -46 l155 3 76
38 c91 44 152 108 200 205 l33 67 2 535 c1 296 -2 567 -7 607 -23 176 -143
313 -310 356 -83 22 -300 21 -370 -2z m107 -114 c-2 -7 -18 -16 -35 -22 -26
-7 -32 -14 -32 -37 0 -29 -19 -42 -81 -55 -21 -4 -28 -1 -34 16 -3 11 -1 30 5
42 9 15 9 24 1 32 -19 19 -12 27 16 16 25 -9 42 0 43 24 0 4 11 7 24 7 14 0
28 4 31 10 8 14 67 -18 62 -33z m151 19 c3 -12 -1 -17 -10 -14 -7 3 -15 13
-16 22 -3 12 1 17 10 14 7 -3 15 -13 16 -22z m167 4 c3 -5 2 -10 -4 -10 -5 0
-13 5 -16 10 -3 6 -2 10 4 10 5 0 13 -4 16 -10z m-205 -40 c0 -13 -11 -13 -30
0 -12 8 -11 10 8 10 12 0 22 -4 22 -10z m35 -39 c-3 -6 -11 -11 -17 -11 -6 0
-6 6 2 15 14 17 26 13 15 -4z m135 -156 c16 -19 44 -19 60 0 7 9 23 15 34 13
26 -4 35 -38 11 -38 -12 0 -16 -6 -12 -19 6 -25 -10 -50 -39 -61 -32 -13 -35
-70 -4 -70 29 0 25 -24 -11 -65 -24 -27 -39 -35 -58 -33 -30 4 -37 34 -6 31
28 -2 55 15 55 36 0 26 -10 32 -32 20 -26 -14 -35 -3 -20 21 19 30 15 60 -7
60 -15 0 -20 10 -26 50 -4 27 -4 54 0 60 9 15 41 12 55 -5z m-140 -85 c13 -8
15 -75 18 -481 2 -352 0 -475 -9 -486 -9 -10 -30 -13 -78 -11 l-66 3 0 485 0
485 30 6 c46 10 88 10 105 -1z m370 -40 c0 -5 -2 -10 -4 -10 -3 0 -8 5 -11 10
-3 6 -1 10 4 10 6 0 11 -4 11 -10z m-22 -52 c-6 -18 -28 -21 -28 -4 0 9 7 16
16 16 9 0 14 -5 12 -12z m-575 -53 c1 -5 -6 -11 -15 -13 -11 -2 -18 3 -18 13
0 17 30 18 33 0z m497 -550 c0 -12 -50 -28 -59 -19 -2 2 4 15 13 29 14 21 20
24 32 14 8 -6 14 -17 14 -24z m80 -45 c0 -5 -4 -10 -9 -10 -6 0 -13 5 -16 10
-3 6 1 10 9 10 9 0 16 -4 16 -10z m-210 -24 c0 -11 -19 -15 -25 -6 -3 5 1 10
9 10 9 0 16 -2 16 -4z m-24 -61 c4 -8 3 -22 0 -31 -5 -13 -9 -14 -21 -4 -8 7
-15 21 -15 31 0 23 28 25 36 4z"/>
<path d="M17597 6465 c-9 -365 -9 -1423 0 -1493 l6 -52 206 2 206 3 2 75 c0
41 2 155 2 253 1 97 5 177 9 177 5 0 53 -115 108 -255 l99 -255 228 1 c125 0
227 3 227 6 0 7 -1 10 -165 425 -58 146 -105 274 -105 283 0 9 11 28 25 43 34
35 92 153 110 222 17 65 20 303 5 398 -34 209 -169 370 -359 428 -32 10 -128
16 -322 20 l-276 6 -6 -287z m460 190 c30 -29 42 -35 65 -30 24 6 28 3 28 -14
0 -14 9 -25 25 -31 14 -5 25 -16 25 -25 0 -20 30 -19 45 1 17 23 55 2 55 -31
0 -31 -13 -38 -44 -24 -39 18 -72 -1 -80 -45 -4 -19 -14 -39 -23 -44 -17 -10
-10 -32 11 -32 8 0 19 7 27 16 11 14 14 13 25 -8 18 -32 18 -78 0 -78 -8 0
-18 5 -21 10 -4 7 -13 7 -26 0 -13 -8 -19 -7 -19 0 0 17 -63 50 -83 44 -10 -3
-27 2 -37 11 -35 31 -52 8 -54 -76 -3 -81 -15 -159 -25 -159 -15 0 -61 72 -61
96 0 26 0 26 -27 9 -21 -14 -39 -16 -92 -12 -59 6 -69 10 -94 39 -22 26 -27
39 -22 64 3 17 1 43 -4 56 -6 17 -6 29 1 36 8 8 8 22 -2 51 -17 52 -6 171 17
188 23 17 63 5 95 -29 29 -31 73 -37 108 -16 16 10 23 10 36 -4 28 -28 7 -78
-41 -104 -53 -27 -55 -59 -5 -60 38 -1 90 -19 90 -31 0 -5 18 -9 40 -10 35 -1
40 2 40 22 0 29 28 55 39 36 6 -9 14 -5 30 15 29 36 27 44 -18 102 -28 35 -54
55 -85 67 -46 18 -53 25 -39 39 15 15 64 -4 100 -39z m163 -45 c0 -5 -2 -10
-4 -10 -3 0 -8 5 -11 10 -3 6 -1 10 4 10 6 0 11 -4 11 -10z m-215 -140 c0 -27
-20 -38 -28 -15 -8 20 3 47 17 42 6 -2 11 -14 11 -27z m105 -175 c29 -26 42
-95 38 -201 -4 -112 -18 -152 -62 -173 -57 -27 -61 -16 -64 204 l-2 198 36 -6
c20 -3 44 -13 54 -22z m-326 -120 c17 -27 8 -32 -24 -15 -11 6 -17 17 -14 25
9 21 19 19 38 -10z m146 -394 c0 -11 6 -22 13 -24 9 -4 8 -8 -3 -16 -23 -16
-35 -8 -38 27 -2 24 1 32 12 32 9 0 16 -8 16 -19z m320 -45 c0 -3 -4 -8 -10
-11 -5 -3 -10 -1 -10 4 0 6 5 11 10 11 6 0 10 -2 10 -4z m66 -22 c-4 -9 4 -28
19 -46 27 -32 30 -52 16 -91 -7 -18 -6 -30 4 -43 8 -11 15 -27 15 -37 0 -10 7
-20 15 -23 17 -7 20 -40 5 -49 -20 -12 1 -25 21 -14 28 14 35 4 19 -25 -7 -14
-10 -32 -7 -40 3 -8 2 -18 -3 -21 -13 -8 -99 37 -105 55 -3 10 -16 22 -29 28
-17 8 -26 22 -31 51 -7 45 -20 53 -30 20 -4 -11 -12 -18 -18 -16 -15 5 -21 52
-9 73 8 14 11 14 23 2 12 -13 16 -12 31 8 10 12 18 25 18 28 0 10 -56 7 -86
-4 -29 -11 -54 1 -54 27 0 10 9 14 32 11 27 -2 33 1 38 21 9 37 33 48 64 28
16 -11 23 -23 20 -32 -7 -18 12 -45 32 -45 23 0 16 47 -11 76 -28 30 -32 54
-10 54 8 0 15 5 15 10 0 6 3 10 6 10 3 0 3 -7 0 -16z m-273 -23 c7 -28 -2 -32
-24 -10 -24 24 -24 29 0 29 10 0 21 -9 24 -19z m-255 -448 c2 -8 -5 -13 -18
-13 -18 0 -21 -5 -18 -24 6 -32 -6 -51 -26 -43 -24 10 -30 34 -16 68 11 25 18
30 43 27 17 -2 32 -9 35 -15z m-88 -143 c0 -5 -7 -10 -16 -10 -8 0 -12 5 -9
10 3 6 10 10 16 10 5 0 9 -4 9 -10z"/>
<path d="M2825 4271 c-3 -5 -14 -65 -25 -133 -11 -68 -26 -157 -34 -198 -8
-41 -22 -113 -31 -160 -8 -47 -31 -164 -50 -260 -18 -96 -50 -267 -70 -380
-73 -412 -85 -477 -104 -570 -12 -52 -21 -101 -21 -107 0 -10 49 -13 214 -13
l213 0 16 78 c21 103 87 440 87 447 0 3 43 5 95 5 90 0 95 -1 100 -22 13 -61
56 -284 70 -368 26 -155 0 -140 245 -140 118 0 210 4 210 9 0 5 -23 130 -51
278 -27 147 -54 291 -59 318 -9 51 -59 323 -86 470 -8 44 -19 103 -24 130 -5
28 -23 127 -40 220 -17 94 -38 208 -46 255 -8 47 -18 99 -23 115 l-7 30 -287
2 c-164 2 -288 -1 -292 -6z m125 -245 c0 -16 -18 -31 -27 -22 -8 8 5 36 17 36
5 0 10 -6 10 -14z m164 -11 c2 -7 -4 -15 -14 -18 -14 -3 -21 -18 -26 -47 -5
-30 -11 -40 -21 -36 -8 4 -19 6 -25 6 -6 0 -8 7 -5 15 4 8 2 17 -3 20 -6 4
-10 22 -10 42 0 32 2 35 24 29 14 -3 27 -2 30 3 8 12 43 2 50 -14z m76 -120
c0 -2 -5 -16 -12 -30 -15 -33 -42 -29 -46 8 -3 24 0 27 27 27 17 0 31 -2 31
-5z m-310 -31 c0 -16 -16 -19 -25 -4 -8 13 4 32 16 25 5 -4 9 -13 9 -21z m544
-89 c-18 -13 -18 -14 -1 -20 42 -17 66 -147 32 -175 -20 -16 -19 -27 3 -33 11
-3 9 -5 -8 -6 -14 0 -32 4 -40 9 -11 7 -20 4 -32 -13 l-18 -22 0 27 c0 28 -21
50 -28 30 -5 -16 -22 -5 -22 14 0 8 7 14 16 14 13 0 15 7 11 33 -3 20 0 40 9
52 8 10 12 27 9 36 -6 18 16 81 36 106 9 10 15 8 31 -13 20 -24 20 -25 2 -39z
m-219 25 c3 -5 1 -10 -4 -10 -6 0 -11 5 -11 10 0 6 2 10 4 10 3 0 8 -4 11 -10z
m-63 -256 c19 -148 19 -148 -25 -152 -47 -4 -52 7 -37 89 34 199 43 208 62 63z
m191 -66 c3 -10 9 -10 27 0 12 7 24 11 26 9 7 -7 -19 -24 -49 -31 -24 -6 -30
-3 -34 14 -3 11 -10 20 -15 20 -5 0 -6 5 -3 10 8 12 41 -4 48 -22z m237 -513
c20 -24 7 -26 -25 -5 -27 18 -28 20 -9 20 12 0 27 -7 34 -15z m-950 -245 c0
-5 -4 -10 -10 -10 -5 0 -10 5 -10 10 0 6 5 10 10 10 6 0 10 -4 10 -10z m798
-78 c2 -15 -2 -22 -12 -22 -11 0 -16 9 -16 26 0 31 23 28 28 -4z m-790 0 c2
-7 -3 -12 -12 -12 -9 0 -16 7 -16 16 0 17 22 14 28 -4z m859 -64 c-3 -8 -6 -5
-6 6 -1 11 2 17 5 13 3 -3 4 -12 1 -19z"/>
<path d="M3876 4264 c-8 -21 -8 -1742 0 -1783 l7 -31 208 0 209 0 0 271 c0
237 2 270 15 259 8 -6 23 -36 35 -66 11 -30 50 -130 86 -222 36 -92 71 -183
79 -202 15 -40 -16 -35 270 -41 l150 -3 3 917 2 917 -204 0 c-113 0 -207 -4
-210 -9 -3 -5 -6 -136 -7 -291 0 -189 -3 -280 -10 -278 -6 2 -40 80 -75 173
-36 94 -85 223 -110 288 l-46 117 -198 0 c-171 0 -199 -2 -204 -16z m774 -169
c0 -8 -4 -15 -9 -15 -13 0 -22 16 -14 24 11 11 23 6 23 -9z m-50 -45 c0 -5 7
-10 15 -10 8 0 15 -7 15 -15 0 -9 -9 -15 -24 -15 -28 0 -40 14 -32 35 6 17 26
20 26 5z m258 -53 c-6 -25 -15 -44 -20 -41 -9 6 -1 48 14 77 16 31 19 12 6
-36z m-173 -37 c3 -5 1 -10 -4 -10 -6 0 -11 5 -11 10 0 6 2 10 4 10 3 0 8 -4
11 -10z m120 -30 c17 -19 17 -21 0 -40 -10 -11 -28 -20 -39 -20 -12 0 -30 -7
-40 -15 -32 -24 -46 -20 -33 10 7 14 18 25 25 25 6 0 12 11 12 24 0 18 7 26
23 29 12 2 25 5 28 6 3 0 14 -8 24 -19z m-595 -539 c0 -11 -4 -23 -10 -26 -5
-3 -10 -2 -10 4 0 5 -3 16 -6 25 -4 11 -1 16 10 16 9 0 16 -8 16 -19z m675
-221 c9 -53 -3 -69 -24 -34 -13 22 -15 33 -7 51 16 33 23 28 31 -17z m-919
-27 c-3 -4 -1 -12 5 -20 13 -15 -4 -43 -27 -43 -17 0 -33 30 -27 50 12 42 12
41 34 30 11 -7 18 -14 15 -17z m850 -9 c27 -28 31 -54 10 -54 -8 0 -21 -2 -29
-6 -8 -3 -21 5 -30 19 -14 22 -14 26 1 46 21 26 20 26 48 -5z m-23 -93 c33
-13 42 -40 20 -57 -24 -18 -53 -17 -53 1 0 8 -3 15 -7 15 -5 0 -14 4 -22 9
-12 8 -12 12 -2 25 15 18 30 20 64 7z m101 -147 c18 -18 21 -40 6 -49 -5 -3
-10 1 -10 10 0 8 -7 18 -15 21 -16 7 -21 34 -6 34 5 0 17 -7 25 -16z m-440
-39 c25 -38 18 -53 -9 -22 -14 15 -25 32 -25 38 0 17 18 9 34 -16z m267 15 c5
0 18 -18 29 -40 17 -34 18 -40 5 -40 -24 0 -89 65 -81 79 5 7 15 10 23 7 8 -3
19 -6 24 -6z m-201 -10 c0 -5 -4 -10 -9 -10 -6 0 -13 5 -16 10 -3 6 1 10 9 10
9 0 16 -4 16 -10z m-295 -34 c25 -11 33 -19 29 -31 -4 -9 -13 -14 -21 -11 -8
4 -26 9 -39 12 -15 4 -24 13 -24 25 0 23 10 24 55 5z m645 -46 c0 -5 -7 -10
-15 -10 -8 0 -15 -7 -15 -16 0 -8 -4 -12 -10 -9 -6 4 -5 13 3 25 12 21 37 27
37 10z"/>
<path d="M5087 4274 c-16 -5 -17 -55 -15 -912 l3 -907 260 -3 c156 -1 281 2
311 8 175 36 333 179 398 359 19 53 21 83 24 525 4 529 3 533 -75 664 -70 119
-154 190 -282 240 -65 25 -72 26 -336 28 -148 2 -278 0 -288 -2z m503 -440
c54 -27 55 -33 55 -473 0 -372 -2 -409 -18 -434 -21 -32 -70 -59 -100 -55
l-22 3 -3 480 c-1 264 0 486 3 493 5 14 42 8 85 -14z m-220 6 c0 -5 -4 -10
-10 -10 -5 0 -10 5 -10 10 0 6 5 10 10 10 6 0 10 -4 10 -10z m640 -110 c0 -11
-4 -20 -10 -20 -5 0 -10 9 -10 20 0 11 5 20 10 20 6 0 10 -9 10 -20z m-204
-21 c21 -20 23 -20 47 -4 36 23 40 6 8 -33 -28 -35 -54 -36 -65 -4 -3 9 -13
27 -22 40 -22 29 1 30 32 1z m154 6 c0 -8 -4 -15 -10 -15 -5 0 -10 7 -10 15 0
8 5 15 10 15 6 0 10 -7 10 -15z m-221 -20 c28 -14 61 -68 61 -99 0 -26 -52
-20 -72 8 -18 25 -36 106 -24 106 4 0 20 -7 35 -15z m-319 -639 c0 -2 -7 -6
-15 -10 -8 -3 -15 -1 -15 4 0 6 7 10 15 10 8 0 15 -2 15 -4z m285 -15 c3 -5 1
-12 -5 -16 -5 -3 -10 1 -10 9 0 18 6 21 15 7z m-315 -71 c0 -5 -2 -10 -4 -10
-3 0 -8 5 -11 10 -3 6 -1 10 4 10 6 0 11 -4 11 -10z m407 -70 c14 -11 34 -20
43 -20 14 0 19 -10 22 -40 5 -52 1 -57 -46 -65 -28 -6 -40 -4 -47 6 -7 11 -14
11 -44 0 -44 -15 -50 -12 -29 17 11 16 25 22 55 22 21 0 39 2 39 4 0 18 -17
39 -46 57 -19 11 -34 25 -34 30 0 17 62 9 87 -11z m93 -11 c0 -6 -4 -7 -10 -4
-5 3 -10 11 -10 16 0 6 5 7 10 4 6 -3 10 -11 10 -16z m-209 -62 c-18 -18 -25
1 -11 30 l14 28 4 -24 c2 -13 -1 -28 -7 -34z m312 47 c3 -4 -6 -29 -20 -58
-36 -69 -56 -83 -68 -47 -3 11 0 29 7 40 10 17 10 25 1 40 -11 18 -9 20 20 24
18 2 37 5 43 5 6 1 13 -1 17 -4z m-533 -64 c0 -5 -4 -10 -10 -10 -5 0 -10 5
-10 10 0 6 5 10 10 10 6 0 10 -4 10 -10z m140 -58 c0 -5 -9 -17 -20 -27 -14
-13 -24 -15 -31 -8 -8 8 -4 15 12 27 26 18 39 20 39 8z m300 -52 c0 -5 -4 -10
-10 -10 -5 0 -10 5 -10 10 0 6 5 10 10 10 6 0 10 -4 10 -10z"/>
<path d="M7254 4256 c-139 -51 -248 -168 -284 -305 -15 -58 -16 -1105 0 -1174
28 -126 111 -232 228 -289 l67 -33 190 0 191 0 76 38 c91 45 153 108 201 206
l32 66 0 580 0 580 -29 80 c-24 66 -40 90 -86 136 -113 110 -190 137 -392 138
-114 0 -142 -3 -194 -23z m123 -109 c-2 -7 -18 -16 -35 -22 -26 -7 -32 -14
-32 -37 0 -31 -29 -49 -85 -52 -24 -1 -31 3 -33 22 -2 13 2 30 9 39 11 13 10
17 -4 28 -23 17 -10 26 21 14 23 -9 41 0 42 21 0 3 15 10 33 16 36 11 91 -8
84 -29z m147 27 c4 -9 4 -19 2 -21 -8 -8 -26 8 -26 23 0 19 16 18 24 -2z m171
-4 c3 -5 2 -10 -4 -10 -5 0 -13 5 -16 10 -3 6 -2 10 4 10 5 0 13 -4 16 -10z
m-205 -40 c0 -5 -6 -10 -14 -10 -8 0 -18 5 -21 10 -3 6 3 10 14 10 12 0 21 -4
21 -10z m32 -42 c-6 -6 -15 -8 -19 -4 -4 4 -1 11 7 16 8 5 17 7 19 4 3 -2 -1
-10 -7 -16z m138 -153 c16 -19 37 -19 57 1 9 8 25 14 37 12 24 -3 36 -38 12
-38 -9 0 -16 -12 -18 -32 -2 -24 -10 -36 -30 -46 -44 -21 -50 -72 -7 -72 28 0
23 -24 -12 -65 -24 -27 -39 -35 -58 -33 -36 4 -34 33 2 33 30 1 49 20 44 45
-3 16 -10 16 -39 5 -14 -5 -18 -2 -18 14 0 12 5 21 10 21 6 0 10 11 10 25 0
18 -5 25 -19 25 -16 0 -21 9 -27 45 -3 25 -4 52 0 60 7 19 40 19 56 0z m-140
-85 c13 -8 15 -75 18 -481 2 -352 0 -475 -9 -486 -9 -10 -30 -13 -78 -11 l-66
3 0 485 0 485 30 6 c46 10 88 10 105 -1z m370 -41 c0 -6 -4 -7 -10 -4 -5 3
-10 11 -10 16 0 6 5 7 10 4 6 -3 10 -11 10 -16z m-22 -51 c-6 -18 -28 -21 -28
-4 0 9 7 16 16 16 9 0 14 -5 12 -12z m-575 -53 c1 -5 -6 -11 -15 -13 -11 -2
-18 3 -18 13 0 17 30 18 33 0z m497 -556 c0 -7 -53 -20 -59 -13 -2 2 4 16 14
30 17 26 18 27 31 9 8 -10 14 -22 14 -26z m80 -39 c0 -5 -4 -10 -9 -10 -6 0
-13 5 -16 10 -3 6 1 10 9 10 9 0 16 -4 16 -10z m-215 -30 c-3 -5 -10 -10 -16
-10 -5 0 -9 5 -9 10 0 6 7 10 16 10 8 0 12 -4 9 -10z m-19 -55 c4 -8 3 -22 0
-31 -5 -13 -9 -14 -21 -4 -8 7 -15 21 -15 31 0 23 28 25 36 4z"/>
<path d="M8098 4275 c-11 -11 -10 -1797 0 -1813 7 -9 56 -12 213 -10 l204 3 3
282 2 282 58 6 c136 14 230 53 310 129 115 107 168 230 182 416 22 294 -57
504 -233 619 -123 80 -136 82 -452 88 -154 3 -283 2 -287 -2z m346 -424 c3 -4
3 -11 0 -14 -8 -8 -34 3 -34 14 0 11 27 12 34 0z m170 -31 c30 -36 39 -91 34
-202 -4 -96 -20 -134 -66 -161 -60 -35 -62 -30 -62 193 l0 200 34 0 c26 0 41
-7 60 -30z m146 -75 c0 -17 -17 -28 -30 -20 -7 4 -7 13 0 26 12 21 30 17 30
-6z m220 -51 c0 -14 -6 -24 -14 -24 -18 0 -29 -45 -16 -70 14 -27 13 -28 -17
-32 -24 -3 -28 -7 -26 -33 1 -16 5 -44 8 -62 6 -27 4 -32 -17 -38 -12 -4 -33
-19 -45 -34 -14 -16 -26 -22 -30 -16 -5 6 -15 10 -23 10 -8 0 -15 5 -15 11 0
5 -17 25 -37 43 -21 18 -35 37 -32 43 3 5 -1 15 -10 21 -14 10 -16 22 -10 56
6 35 13 47 40 63 19 11 34 26 34 34 0 8 3 14 7 14 15 0 43 -34 43 -53 0 -13 5
-17 16 -13 9 3 31 6 50 6 38 0 42 10 19 54 -8 15 -13 31 -11 35 2 3 23 7 45 7
37 1 41 -1 41 -22z m-750 -24 c0 -5 -9 -19 -20 -30 -21 -21 -27 -10 -14 24 7
17 34 22 34 6z m79 -69 c16 -10 8 -26 -20 -41 -17 -10 -19 -7 -19 20 0 30 13
37 39 21z m639 -213 c-2 -13 -10 -23 -18 -23 -8 0 -16 10 -18 23 -3 17 2 22
18 22 16 0 21 -5 18 -22z m-208 -33 c7 -9 10 -18 7 -22 -8 -7 -37 15 -37 28 0
14 16 11 30 -6z m163 -10 c-3 -9 -8 -14 -10 -11 -3 3 -2 9 2 15 9 16 15 13 8
-4z m-98 -35 c3 -5 1 -10 -4 -10 -6 0 -11 5 -11 10 0 6 2 10 4 10 3 0 8 -4 11
-10z m125 -30 c0 -5 -5 -10 -11 -10 -5 0 -7 5 -4 10 3 6 8 10 11 10 2 0 4 -4
4 -10z m-185 -43 c0 -30 3 -32 38 -35 20 -2 37 -8 37 -14 0 -20 -74 -78 -108
-84 -41 -8 -52 4 -52 60 0 31 3 37 16 32 35 -13 54 3 54 46 0 23 3 38 8 34 4
-4 7 -22 7 -39z m-225 -165 c0 -4 -12 -20 -26 -35 -18 -19 -31 -26 -43 -21 -9
4 -27 7 -40 8 -28 1 -42 26 -14 26 10 0 27 7 37 15 20 15 86 21 86 7z m-110
-302 c0 -5 -4 -10 -10 -10 -5 0 -10 5 -10 10 0 6 5 10 10 10 6 0 10 -4 10 -10z
m-225 -121 c10 -15 -1 -23 -20 -15 -9 3 -13 10 -10 16 8 13 22 13 30 -1z"/>
<path d="M9210 4071 l0 -208 46 -7 c26 -3 98 -6 160 -6 l114 0 2 -132 c0 -73
0 -371 -2 -663 -1 -291 1 -547 5 -567 l7 -38 197 0 c108 0 202 4 208 8 10 6
13 161 15 698 l3 689 150 6 c83 3 156 9 163 13 9 5 12 59 12 196 0 103 -3 195
-6 204 -5 14 -62 16 -540 16 l-534 0 0 -209z m184 139 c35 -13 32 -38 -10 -82
-38 -41 -58 -47 -68 -22 -11 29 -6 43 17 46 15 2 21 9 19 22 -3 19 4 46 12 46
3 0 16 -4 30 -10z m243 -96 c-3 -3 -12 -4 -19 -1 -8 3 -5 6 6 6 11 1 17 -2 13
-5z m-30 -165 c15 -29 6 -40 -25 -33 -14 4 -22 14 -22 28 0 43 27 46 47 5z
m73 -654 c14 9 18 -8 8 -35 l-9 -24 -24 29 c-14 15 -25 33 -25 40 0 22 13 25
27 5 8 -11 18 -18 23 -15z m120 -282 c0 -13 -3 -13 -15 -3 -8 7 -12 16 -9 21
8 13 24 1 24 -18z m73 -82 c5 -1 5 -5 2 -11 -10 -16 -55 -12 -55 5 0 10 7 14
23 11 12 -3 26 -5 30 -5z m7 -108 c0 -7 -3 -13 -8 -13 -6 0 -41 21 -61 36 -2
2 2 11 9 19 12 14 15 13 37 -6 12 -13 23 -28 23 -36z m-170 -83 c0 -5 -7 -10
-16 -10 -8 0 -12 5 -9 10 3 6 10 10 16 10 5 0 9 -4 9 -10z m140 -97 c-1 -27
-1 -27 -15 -9 -12 16 -12 22 -2 28 17 11 17 11 17 -19z m-137 -4 c3 -13 0 -22
-9 -26 -20 -7 -38 11 -31 31 9 23 34 20 40 -5z m142 -138 c3 -5 1 -12 -5 -16
-5 -3 -10 1 -10 9 0 18 6 21 15 7z"/>
<path d="M10432 4272 c-10 -7 -12 -177 -13 -818 0 -445 0 -853 0 -907 l1 -97
208 2 207 3 0 910 0 910 -195 2 c-107 2 -201 -1 -208 -5z m268 -106 c0 -2 -7
-6 -15 -10 -8 -3 -15 -1 -15 4 0 6 7 10 15 10 8 0 15 -2 15 -4z m-187 -284
c-12 -33 -25 -43 -39 -31 -27 22 -8 61 26 52 12 -3 17 -11 13 -21z m262 -76
c18 -13 17 -15 -19 -30 -49 -20 -56 -20 -56 2 0 39 40 54 75 28z m-240 -6 c3
-5 -1 -10 -10 -10 -9 0 -13 5 -10 10 3 6 8 10 10 10 2 0 7 -4 10 -10z m259
-90 c7 -45 -10 -127 -30 -150 -12 -12 -14 -11 -14 8 0 12 -3 22 -6 22 -13 0
-44 -44 -44 -62 0 -10 -7 -18 -15 -18 -12 0 -13 4 -6 19 6 10 8 21 4 24 -3 4
0 13 7 22 10 13 10 19 -4 33 -18 21 -21 64 -6 92 7 13 7 21 0 25 -22 13 3 25
54 25 l53 0 7 -40z m-214 -9 c0 -6 -4 -13 -10 -16 -5 -3 -10 1 -10 9 0 9 5 16
10 16 6 0 10 -4 10 -9z m65 -121 c3 -5 1 -10 -4 -10 -6 0 -11 5 -11 10 0 6 2
10 4 10 3 0 8 -4 11 -10z m10 -100 c10 -11 13 -20 7 -20 -7 0 -15 0 -19 -1 -4
0 -10 9 -15 20 -9 27 4 27 27 1z m53 -2 c-6 -18 -28 -21 -28 -4 0 9 7 16 16
16 9 0 14 -5 12 -12z m38 -845 c-7 -17 -8 -17 -21 0 -8 11 -11 26 -8 34 5 13
8 13 21 0 9 -10 12 -23 8 -34z"/>
<path d="M11144 4269 c-4 -6 -11 -48 -15 -93 -18 -172 -40 -419 -54 -601 -8
-104 -21 -264 -30 -355 -9 -91 -20 -210 -25 -265 -5 -55 -17 -170 -26 -255 -8
-85 -16 -175 -17 -200 l-2 -45 207 0 c113 0 209 2 212 5 4 4 23 183 38 354 6
68 25 26 56 -125 18 -88 38 -177 45 -197 l12 -37 203 -3 c238 -3 208 -25 247
183 33 174 44 215 54 215 8 0 11 -25 31 -230 5 -58 13 -119 16 -137 l6 -33
209 0 209 0 0 28 c0 15 -6 95 -14 177 -8 83 -22 233 -31 335 -9 102 -23 246
-30 320 -8 74 -21 203 -29 285 -9 83 -25 260 -37 394 -11 135 -25 255 -30 268
l-9 23 -222 -2 -222 -3 -53 -255 c-28 -140 -60 -294 -69 -342 -17 -86 -27
-106 -38 -70 -6 20 -53 246 -66 317 -19 103 -70 337 -75 346 -9 14 -442 12
-451 -2z m221 -95 c26 -17 25 -34 -2 -34 -9 0 -25 -8 -35 -17 -17 -15 -20 -15
-28 -3 -7 11 -5 16 6 18 12 3 12 7 4 17 -27 32 14 46 55 19z m128 -46 c6 -18
-22 -70 -33 -63 -13 8 -13 31 0 56 12 22 26 25 33 7z m-118 -37 c5 0 0 -8 -12
-16 -15 -10 -21 -24 -20 -43 l2 -27 83 1 c66 1 82 -2 78 -13 -10 -24 5 -43 28
-37 23 5 55 -20 42 -33 -4 -4 -41 -6 -83 -5 -42 1 -81 -2 -89 -8 -18 -16 -54
9 -54 38 0 19 -4 22 -22 17 -17 -6 -20 -4 -14 10 11 29 -5 38 -29 15 l-23 -22
-21 21 c-12 12 -25 21 -31 21 -20 0 -9 29 12 32 13 2 29 15 36 30 11 25 17 27
60 24 26 -2 51 -4 57 -5z m172 -223 c19 -24 22 -56 6 -62 -11 -5 -14 -19 -11
-59 3 -46 1 -52 -17 -52 -17 0 -19 6 -17 46 2 32 -1 49 -12 58 -19 16 -19 21
-6 55 10 28 41 35 57 14z m-103 -27 c7 -11 -13 -71 -24 -71 -4 0 -10 8 -13 18
-4 9 -14 27 -23 40 -16 22 -16 22 19 22 20 0 38 -4 41 -9z m650 -20 c3 -5 -1
-11 -9 -15 -15 -6 -29 7 -18 18 9 9 21 8 27 -3z m76 -5 c0 -3 -4 -8 -10 -11
-5 -3 -10 -1 -10 4 0 6 5 11 10 11 6 0 10 -2 10 -4z m-280 -36 c0 -5 -4 -10
-10 -10 -5 0 -10 5 -10 10 0 6 5 10 10 10 6 0 10 -4 10 -10z m-430 -20 c0 -5
-7 -10 -16 -10 -8 0 -12 5 -9 10 3 6 10 10 16 10 5 0 9 -4 9 -10z m-25 -81 c3
-4 -4 -13 -16 -20 -19 -10 -25 -9 -36 7 -7 10 -13 21 -13 24 0 9 59 -1 65 -11z
m55 11 c0 -5 -5 -10 -11 -10 -5 0 -7 5 -4 10 3 6 8 10 11 10 2 0 4 -4 4 -10z
m572 -5 c0 -5 -5 -11 -11 -13 -6 -2 -11 4 -11 13 0 9 5 15 11 13 6 -2 11 -8
11 -13z m-928 -120 c3 -8 12 -15 21 -15 17 0 19 -9 5 -30 -14 -22 -44 0 -48
34 -4 28 12 36 22 11z m1244 -263 c2 -7 -5 -12 -17 -12 -14 0 -19 5 -14 15 6
17 25 15 31 -3z m-1109 -38 c3 -16 1 -17 -13 -5 -19 16 -21 34 -3 29 6 -3 14
-13 16 -24z m1046 -14 c3 -5 -1 -10 -9 -10 -9 0 -16 5 -16 10 0 6 4 10 9 10 6
0 13 -4 16 -10z m-987 -72 c-3 -7 -13 -13 -23 -13 -10 0 -20 6 -22 13 -3 7 5
12 22 12 17 0 25 -5 23 -12z m-9 -77 c23 -32 26 -41 12 -41 -19 0 -64 47 -57
58 11 19 23 14 45 -17z m-159 -106 c0 -8 -4 -15 -10 -15 -5 0 -10 7 -10 15 0
8 5 15 10 15 6 0 10 -7 10 -15z m0 -100 c0 -25 -23 -35 -35 -15 -10 16 2 40
20 40 9 0 15 -9 15 -25z m140 -7 c0 -25 -3 -29 -10 -18 -13 20 -13 50 0 50 6
0 10 -15 10 -32z m-3 -150 c-3 -8 -6 -5 -6 6 -1 11 2 17 5 13 3 -3 4 -12 1
-19z m563 -153 c0 -8 -4 -15 -10 -15 -5 0 -10 7 -10 15 0 8 5 15 10 15 6 0 10
-7 10 -15z m46 -59 c-7 -27 -29 -33 -55 -17 -19 12 -4 49 22 53 30 5 41 -6 33
-36z"/>
<path d="M12669 4273 c-16 -4 -17 -77 -15 -911 l1 -907 210 0 210 0 0 910 0
910 -195 1 c-107 1 -202 0 -211 -3z m261 -107 c0 -11 -19 -15 -25 -6 -3 5 1
10 9 10 9 0 16 -2 16 -4z m-180 -279 c0 -17 -20 -37 -37 -37 -7 0 -13 11 -13
25 0 20 5 25 25 25 14 0 25 -6 25 -13z m254 -73 c27 -11 18 -30 -21 -42 -44
-13 -47 -11 -39 23 6 25 27 32 60 19z m-234 -14 c0 -5 -4 -10 -10 -10 -5 0
-10 5 -10 10 0 6 5 10 10 10 6 0 10 -4 10 -10z m258 -127 c-2 -43 -11 -89 -19
-103 l-14 -25 -3 23 c-2 12 -6 22 -8 22 -11 0 -42 -37 -45 -54 -2 -11 -9 -21
-15 -23 -14 -5 -6 46 9 66 8 10 7 16 -5 25 -23 17 -33 63 -18 81 6 7 11 22 10
32 -4 31 -1 33 56 33 l57 0 -5 -77z m-214 22 c-4 -8 -8 -15 -10 -15 -2 0 -4 7
-4 15 0 8 4 15 10 15 5 0 7 -7 4 -15z m71 -115 c3 -5 2 -10 -4 -10 -5 0 -13 5
-16 10 -3 6 -2 10 4 10 5 0 13 -4 16 -10z m5 -95 c10 -12 15 -13 21 -4 4 7 14
9 24 6 20 -8 11 -26 -13 -25 -9 0 -23 -1 -30 -3 -8 -2 -18 6 -23 19 -10 25 2
29 21 7z m97 -849 c-6 -19 -25 -17 -32 3 -10 31 5 48 22 25 7 -10 12 -23 10
-28z"/>
<path d="M13650 4271 l-425 -6 0 -205 0 -205 270 -6 c326 -8 305 -6 305 -22 0
-6 -24 -53 -54 -102 -29 -50 -107 -182 -173 -295 -66 -113 -175 -299 -242
-413 l-121 -208 2 -182 3 -182 435 -6 c239 -3 482 -3 540 0 l105 6 3 208 2
207 -270 0 c-228 0 -272 2 -276 15 -3 8 10 40 29 72 19 32 58 101 87 153 29
52 73 127 97 165 25 39 64 104 87 145 24 41 89 154 146 250 147 248 139 222
133 433 l-6 177 -76 0 c-42 0 -98 2 -126 3 -27 2 -241 1 -475 -2z m-190 -272
c0 -24 -23 -21 -28 4 -2 10 3 17 12 17 10 0 16 -9 16 -21z m-121 -52 c20 -22
20 -25 6 -37 -14 -11 -19 -10 -37 7 -12 13 -18 28 -15 37 9 22 20 20 46 -7z
m568 -127 c14 0 14 -3 -2 -20 -25 -27 -32 -25 -40 10 -4 20 -2 37 7 47 12 15
13 14 16 -10 2 -17 9 -27 19 -27z m-14 -284 c6 -16 -2 -28 -14 -20 -12 7 -11
34 0 34 5 0 11 -6 14 -14z m-49 -62 c7 -18 -1 -37 -13 -29 -5 2 -11 14 -14 25
-6 24 18 28 27 4z m84 -47 c18 4 22 1 22 -16 0 -11 -4 -21 -10 -21 -5 0 -10
-9 -10 -20 0 -11 -4 -20 -10 -20 -5 0 -10 8 -10 19 0 10 -10 25 -22 33 -13 9
-18 19 -14 27 5 8 12 9 20 2 7 -6 22 -8 34 -4z m-121 -39 c-3 -8 -6 -5 -6 6
-1 11 2 17 5 13 3 -3 4 -12 1 -19z m66 -42 c14 -43 -7 -56 -28 -17 -16 32 -12
55 8 48 6 -2 15 -16 20 -31z m-183 -37 c0 -5 -4 -9 -10 -9 -5 0 -10 7 -10 16
0 8 5 12 10 9 6 -3 10 -10 10 -16z m-40 -84 c0 -18 -5 -25 -20 -25 -20 0 -28
28 -13 43 15 16 33 6 33 -18z m130 -49 c0 -8 -4 -18 -10 -21 -5 -3 -10 3 -10
14 0 12 5 21 10 21 6 0 10 -6 10 -14z m-65 -145 c3 -5 1 -12 -5 -16 -5 -3 -10
1 -10 9 0 18 6 21 15 7z m160 -231 c3 -5 1 -10 -4 -10 -6 0 -11 5 -11 10 0 6
2 10 4 10 3 0 8 -4 11 -10z m-442 -145 c-4 -15 -36 -12 -41 3 -3 9 3 13 19 10
13 -1 23 -7 22 -13z"/>
<path d="M14477 4273 c-4 -3 -7 -415 -7 -915 l0 -908 448 2 447 3 0 205 0 205
-224 3 c-145 1 -229 6 -238 13 -10 9 -13 50 -13 168 0 86 4 162 8 168 6 9 62
13 201 15 l193 3 -2 205 c0 113 -5 209 -10 214 -5 5 -91 7 -194 4 -153 -4
-186 -2 -191 10 -7 19 -6 147 1 166 5 14 35 16 228 16 159 0 225 3 234 12 9 9
12 69 12 209 0 170 -2 198 -16 203 -21 8 -869 8 -877 -1z m289 -185 c4 -6 -1
-17 -12 -25 -15 -11 -20 -11 -32 1 -8 8 -11 19 -8 25 9 14 43 14 52 -1z m84 2
c0 -5 -7 -10 -16 -10 -8 0 -12 5 -9 10 3 6 10 10 16 10 5 0 9 -4 9 -10z m300
-29 c0 -5 -7 -14 -15 -21 -13 -10 -15 -9 -15 9 0 12 6 21 15 21 8 0 15 -4 15
-9z m-160 -21 c0 -5 -4 -10 -10 -10 -5 0 -10 5 -10 10 0 6 5 10 10 10 6 0 10
-4 10 -10z m-293 -37 c3 -7 -3 -9 -16 -6 -12 3 -21 10 -21 15 0 13 32 6 37 -9z
m363 -24 c0 -20 -15 -26 -25 -9 -9 15 3 43 15 35 5 -3 10 -15 10 -26z m-65 11
c8 -13 -24 -60 -41 -60 -18 0 -18 15 2 45 17 27 29 31 39 15z m-190 -57 c14
-11 15 -14 4 -10 -9 3 -26 -1 -38 -9 -20 -14 -41 -12 -41 5 0 7 37 29 50 30 3
0 14 -7 25 -16z m-108 -85 c-3 -8 -6 -5 -6 6 -1 11 2 17 5 13 3 -3 4 -12 1
-19z m94 -4 l24 -27 -35 7 c-39 7 -55 19 -46 35 12 18 31 13 57 -15z m-136
-134 c3 -5 -1 -10 -9 -10 -9 0 -16 5 -16 10 0 6 4 10 9 10 6 0 13 -4 16 -10z
m157 -65 c3 -14 2 -25 -3 -25 -12 0 -30 36 -22 44 12 12 21 6 25 -19z m-134
-30 c2 -11 11 -27 19 -37 10 -12 11 -18 3 -23 -18 -11 -72 47 -64 69 9 22 38
16 42 -9z m80 -33 c13 -19 13 -22 0 -22 -8 0 -20 12 -27 26 -14 32 5 29 27 -4z"/>
<path d="M15505 4269 c-3 -8 -4 -419 -3 -914 l3 -900 207 -3 206 -2 5 27 c3
16 5 131 5 256 0 126 2 230 5 233 4 4 124 -289 189 -464 l20 -52 224 1 c191 1
224 3 224 16 0 8 -13 47 -29 86 -92 231 -212 538 -226 576 -15 43 -15 43 15
78 36 41 87 138 107 207 24 81 24 392 -1 471 -58 186 -178 317 -338 366 -52
16 -105 20 -335 26 -226 4 -274 3 -278 -8z m459 -83 c38 -36 60 -44 71 -26 9
15 25 2 25 -22 0 -11 8 -22 20 -25 11 -3 20 -12 20 -19 0 -23 31 -29 46 -10
18 25 51 12 57 -22 6 -30 -9 -46 -33 -35 -39 17 -100 -3 -84 -28 2 -4 0 -10
-6 -14 -5 -3 -10 -15 -10 -26 0 -10 -7 -19 -15 -19 -23 0 -18 -18 7 -26 15 -4
25 -1 34 11 11 15 14 14 28 -14 9 -16 16 -39 16 -51 0 -21 -24 -28 -35 -10 -4
7 -13 7 -26 0 -15 -8 -21 -7 -25 4 -8 20 -61 46 -80 39 -8 -3 -23 2 -34 12
-12 11 -26 14 -40 10 -17 -5 -20 -12 -14 -40 6 -33 -12 -178 -26 -204 -6 -11
-12 -7 -23 16 -9 17 -23 33 -32 37 -11 4 -14 13 -9 32 6 25 5 27 -17 19 -78
-25 -172 -12 -201 29 -15 21 -20 72 -17 171 0 11 -5 46 -12 78 -8 43 -8 62 0
70 6 6 11 26 11 44 0 24 5 33 18 35 42 3 66 -5 89 -33 26 -31 78 -40 100 -18
6 6 20 8 32 4 16 -5 21 -15 21 -39 0 -35 -28 -69 -68 -81 -16 -5 -22 -13 -20
-28 2 -17 10 -22 35 -22 17 0 35 -3 39 -7 4 -5 16 -8 26 -8 10 0 18 -6 18 -13
0 -9 14 -13 43 -13 37 1 42 4 45 26 5 34 19 47 34 32 9 -9 16 -8 30 5 45 40
-2 130 -90 173 -58 28 -55 26 -47 40 12 20 58 4 99 -34z m166 -46 c0 -5 -2
-10 -4 -10 -3 0 -8 5 -11 10 -3 6 -1 10 4 10 6 0 11 -4 11 -10z m-216 -125 c8
-21 -3 -45 -20 -45 -8 0 -14 10 -14 23 0 36 22 51 34 22z m81 -175 c45 -17 57
-65 53 -211 -3 -122 -4 -130 -28 -153 -28 -27 -60 -39 -76 -28 -15 9 -16 30
-15 235 1 158 2 167 20 167 11 0 31 -4 46 -10z m-304 -138 c10 -25 1 -28 -26
-9 -10 8 -15 19 -11 26 11 17 28 9 37 -17z m-111 -22 c0 -5 -5 -10 -11 -10 -5
0 -7 5 -4 10 3 6 8 10 11 10 2 0 4 -4 4 -10z m259 -376 c12 -28 7 -44 -14 -44
-17 0 -27 27 -20 51 9 26 20 24 34 -7z m311 -44 c0 -5 -4 -10 -10 -10 -5 0
-10 5 -10 10 0 6 5 10 10 10 6 0 10 -4 10 -10z m-202 -48 c2 -12 -1 -22 -7
-22 -6 0 -11 7 -11 15 0 8 -4 15 -10 15 -5 0 -10 5 -10 11 0 20 35 4 38 -19z
m279 11 c32 -41 45 -84 33 -114 -10 -23 -9 -32 4 -51 9 -12 16 -30 16 -40 0
-10 7 -18 15 -18 18 0 19 -14 4 -42 -14 -26 -6 -33 20 -17 27 18 37 5 18 -24
-10 -15 -12 -29 -6 -39 16 -28 -17 -29 -66 -2 -25 14 -45 32 -45 40 0 7 -11
16 -24 20 -24 6 -36 29 -36 72 0 30 -24 24 -28 -7 -3 -21 -5 -22 -22 -6 -16
15 -17 30 -4 74 3 11 7 11 19 1 12 -10 18 -10 30 0 8 7 15 19 15 26 0 17 -52
19 -80 4 -14 -8 -25 -7 -40 2 -28 18 -19 33 19 33 25 0 33 5 37 22 3 12 12 28
20 34 21 17 64 -7 64 -36 0 -26 24 -50 40 -40 17 10 11 30 -20 70 -28 36 -31
55 -8 55 6 0 17 -8 25 -17z m-537 -447 c0 -7 -8 -16 -18 -18 -15 -4 -18 -12
-14 -37 4 -31 -2 -36 -32 -25 -19 7 -22 64 -4 82 17 17 68 15 68 -2z m-90
-146 c0 -5 -4 -10 -10 -10 -5 0 -10 5 -10 10 0 6 5 10 10 10 6 0 10 -4 10 -10z"/>
</g>
</svg>
