<?xml version="1.0" standalone="no"?>
<!DOCTYPE svg PUBLIC "-//W3C//DTD SVG 20010904//EN"
 "http://www.w3.org/TR/2001/REC-SVG-20010904/DTD/svg10.dtd">
<svg version="1.0" xmlns="http://www.w3.org/2000/svg"
 width="2328.000000pt" height="580.000000pt" viewBox="0 0 2328.000000 580.000000"
 preserveAspectRatio="xMidYMid meet">

<g transform="translate(0.000000,580.000000) scale(0.100000,-0.100000)"
fill="#0091ff" stroke="none">
<path d="M14646 5361 c-16 -494 -13 -2068 5 -2085 3 -3 119 -3 257 1 l252 6 1
241 c1 133 4 275 8 316 l6 75 26 -50 c14 -27 75 -173 135 -324 l109 -274 274
6 c151 4 276 8 278 11 2 2 -62 172 -143 377 -81 206 -157 404 -169 440 l-23
66 58 87 c32 48 73 126 91 174 31 85 32 91 37 293 6 254 -6 329 -75 469 -38
78 -61 110 -128 177 -66 66 -99 90 -166 123 l-84 40 -175 10 c-96 5 -263 11
-371 13 l-196 3 -7 -195z m500 124 c19 -8 54 -31 77 -50 31 -27 49 -35 71 -33
22 2 33 -3 41 -17 5 -11 25 -35 44 -53 l34 -34 33 18 c32 17 34 17 53 -1 38
-34 19 -92 -24 -74 -60 24 -95 3 -114 -68 -8 -28 -17 -43 -28 -43 -13 0 -13
-3 -3 -15 16 -19 29 -19 50 0 15 14 18 14 30 0 7 -8 15 -35 18 -60 l5 -45 -42
0 c-30 0 -52 8 -75 25 -18 14 -54 29 -80 34 -26 5 -53 14 -59 20 -18 18 -44
12 -50 -11 -3 -13 -8 -59 -12 -103 -9 -114 -24 -187 -38 -182 -18 6 -65 78
-72 110 -5 22 -11 27 -23 20 -10 -4 -58 -8 -108 -8 -101 0 -120 9 -151 69 -17
32 -31 363 -19 429 13 68 70 71 142 7 37 -32 95 -41 134 -20 25 14 49 3 56
-26 11 -43 -5 -73 -62 -115 -45 -33 -53 -43 -43 -55 6 -8 27 -14 46 -14 20 0
57 -12 83 -26 63 -35 111 -31 121 10 9 34 24 46 60 46 35 0 57 40 41 75 -20
43 -94 116 -143 141 -54 27 -68 42 -48 55 18 11 14 11 55 -6z m274 -106 c0 -5
-4 -9 -10 -9 -5 0 -10 7 -10 16 0 8 5 12 10 9 6 -3 10 -10 10 -16z m-266 -154
c7 -20 -14 -67 -28 -62 -6 2 -12 20 -14 40 -3 31 0 37 16 37 11 0 22 -7 26
-15z m123 -230 c37 -25 48 -78 48 -235 0 -121 -3 -151 -19 -183 -27 -54 -102
-88 -123 -54 -7 12 -24 486 -17 498 5 10 85 -10 111 -26z m-404 -154 c21 -36
13 -44 -24 -25 -28 14 -37 33 -22 47 13 14 29 6 46 -22z m-146 -43 c-3 -8 -6
-5 -6 6 -1 11 2 17 5 13 3 -3 4 -12 1 -19z m338 -460 c15 -30 15 -34 -1 -45
-25 -18 -44 1 -44 43 0 44 23 45 45 2z m386 -61 c-13 -13 -26 -3 -16 12 3 6
11 8 17 5 6 -4 6 -10 -1 -17z m116 -71 c23 -28 25 -36 20 -91 -5 -54 -3 -66
24 -114 16 -30 29 -69 29 -86 0 -29 2 -32 26 -27 26 5 27 4 19 -34 -4 -21 -8
-47 -7 -56 1 -28 -15 -30 -65 -8 -64 28 -148 115 -157 163 -7 39 -26 51 -26
18 0 -27 -15 -34 -34 -15 -19 18 -21 75 -4 92 9 9 16 8 29 -4 15 -14 19 -12
39 15 l21 31 -33 0 c-18 0 -50 -5 -71 -11 -43 -12 -67 0 -67 32 0 15 7 19 34
19 28 0 36 5 46 30 18 43 43 54 80 35 22 -12 30 -23 30 -43 0 -30 16 -52 37
-52 23 0 14 41 -19 93 l-32 49 25 19 c24 18 24 18 27 -4 2 -12 15 -35 29 -51z
m-379 42 c13 -13 17 -48 5 -48 -10 0 -53 42 -53 52 0 12 34 10 48 -4z m-334
-558 c33 -12 33 -24 0 -38 -14 -7 -22 -17 -19 -23 13 -20 -4 -59 -25 -59 -42
0 -51 78 -14 114 18 19 24 19 58 6z m-84 -190 c0 -12 -28 -25 -36 -17 -9 9 6
27 22 27 8 0 14 -5 14 -10z"/>
<path d="M21736 5487 c-3 -39 -9 -461 -13 -937 -6 -810 0 -1242 16 -1268 5 -9
76 -10 259 -5 l252 6 1 271 c0 149 4 291 8 316 l8 45 18 -40 c10 -22 69 -166
130 -320 l111 -280 105 -3 c57 -1 184 1 281 5 l177 8 -94 240 c-52 132 -129
330 -171 440 l-76 201 55 80 c111 165 145 313 133 594 -7 172 -23 245 -78 360
-79 164 -255 305 -413 330 -33 5 -161 12 -285 15 -124 3 -268 7 -321 10 l-96
5 -7 -73z m497 -1 c18 -7 52 -30 76 -50 36 -30 49 -36 73 -31 22 5 30 2 35
-12 10 -28 83 -95 96 -89 7 3 19 11 28 18 22 15 47 4 60 -26 21 -45 6 -59 -54
-52 -28 3 -57 3 -63 -1 -6 -5 -24 -37 -41 -71 -24 -51 -27 -65 -16 -69 7 -3
22 2 32 11 24 22 28 21 46 -14 29 -56 12 -110 -27 -89 -11 6 -26 8 -35 5 -8
-4 -28 5 -45 19 -16 14 -42 27 -56 30 -15 3 -40 10 -57 16 -58 21 -62 21 -69
2 -4 -10 -11 -68 -16 -129 -10 -119 -23 -169 -41 -158 -20 12 -69 98 -69 121
0 23 -1 23 -31 7 -24 -12 -52 -15 -110 -12 -76 3 -80 5 -116 40 l-37 37 -3
108 c-1 59 -5 140 -9 179 -8 91 9 171 40 185 27 13 58 1 110 -40 41 -33 98
-41 137 -20 16 8 25 7 40 -7 34 -31 17 -91 -36 -124 -17 -11 -40 -29 -50 -40
-16 -18 -17 -23 -5 -30 8 -6 29 -10 46 -10 17 0 53 -11 80 -25 27 -14 63 -25
80 -25 26 0 33 5 39 27 10 40 24 54 50 47 26 -7 55 26 55 63 0 38 -80 125
-143 156 -53 26 -67 44 -50 60 9 10 20 9 56 -7z m274 -112 c-9 -9 -28 6 -21
18 4 6 10 6 17 -1 6 -6 8 -13 4 -17z m-269 -159 c3 -26 -13 -50 -27 -41 -6 4
-11 21 -11 37 0 24 4 30 18 27 9 -2 18 -12 20 -23z m134 -234 c37 -41 52 -122
45 -252 -3 -58 -12 -122 -20 -141 -29 -70 -108 -103 -127 -54 -10 29 -26 456
-17 479 9 24 86 3 119 -32z m-420 -128 c23 -21 23 -43 -1 -43 -24 0 -45 25
-37 45 7 19 15 19 38 -2z m194 -505 c4 -13 12 -26 18 -31 13 -8 -22 -39 -38
-34 -12 4 -28 58 -21 75 7 20 33 14 41 -10z m394 -57 c0 -6 -4 -13 -10 -16 -5
-3 -10 1 -10 9 0 9 5 16 10 16 6 0 10 -4 10 -9z m117 -92 c22 -34 25 -45 19
-92 -6 -42 -3 -62 14 -99 11 -26 25 -50 30 -53 13 -8 13 -55 0 -55 -5 0 -10
-5 -10 -10 0 -7 13 -8 37 -4 35 7 36 6 28 -17 -4 -13 -9 -41 -12 -61 -3 -21
-9 -38 -14 -38 -23 0 -108 53 -150 93 -32 30 -48 55 -53 80 -8 43 -22 55 -31
27 -4 -13 -14 -20 -23 -18 -13 2 -17 14 -17 48 0 42 2 45 26 45 26 0 59 20 59
36 0 11 -56 12 -95 0 -39 -11 -75 3 -75 28 0 16 8 20 37 23 28 2 40 9 53 32
25 46 45 54 77 30 15 -12 30 -32 31 -45 5 -30 20 -49 39 -49 23 0 9 55 -22 92
-31 37 -32 60 -2 73 18 8 23 7 25 -9 2 -11 15 -36 29 -57z m-379 49 c13 -13
17 -48 5 -48 -10 0 -53 42 -53 52 0 12 34 10 48 -4z m-334 -558 c33 -12 33
-28 1 -36 -21 -5 -25 -12 -25 -40 0 -38 -21 -54 -45 -34 -20 16 -19 70 1 98
17 24 30 27 68 12z m-89 -190 c3 -6 -1 -13 -10 -16 -19 -8 -30 0 -20 15 8 14
22 14 30 1z"/>
<path d="M237 5536 c-7 -17 -9 -353 -8 -1448 l1 -808 260 0 260 0 0 1135 0
1135 -254 0 c-211 0 -255 -2 -259 -14z m333 -126 c0 -5 -9 -10 -20 -10 -11 0
-20 5 -20 10 0 6 9 10 20 10 11 0 20 -4 20 -10z m-237 -333 c16 -11 16 -14 2
-35 -24 -33 -55 -29 -55 7 0 25 9 37 31 40 3 1 13 -5 22 -12z m321 -97 c14 -5
26 -17 26 -25 0 -16 -55 -45 -85 -45 -20 0 -19 39 2 62 19 21 23 21 57 8z
m-293 -23 c-1 -12 -15 -9 -19 4 -3 6 1 10 8 8 6 -3 11 -8 11 -12z m332 -141
c-2 -43 -8 -96 -13 -117 -12 -42 -35 -52 -45 -19 -6 20 -7 20 -26 -3 -10 -14
-23 -36 -29 -51 -5 -14 -14 -26 -20 -26 -13 0 -13 43 1 74 10 21 8 29 -10 52
-22 28 -28 78 -11 89 6 3 10 21 10 40 0 40 8 44 85 42 l60 -2 -2 -79z m-263
25 c0 -12 -20 -25 -27 -18 -7 7 6 27 18 27 5 0 9 -4 9 -9z m77 -167 c-9 -9
-28 6 -21 18 4 6 10 6 17 -1 6 -6 8 -13 4 -17z m8 -104 c3 -5 19 -7 35 -3 25
5 30 2 30 -15 0 -15 -8 -21 -36 -24 -38 -4 -64 11 -64 38 0 16 26 19 35 4z
m113 -1056 c-2 -15 -8 -29 -15 -31 -18 -6 -28 44 -13 63 18 20 32 4 28 -32z"/>
<path d="M1126 5518 c-6 -30 -35 -341 -96 -1048 -17 -195 -47 -512 -65 -705
-19 -192 -37 -375 -40 -405 -3 -30 -2 -60 3 -66 4 -6 33 -15 65 -18 64 -8 429
3 445 13 6 3 20 110 32 236 27 295 41 316 79 120 12 -60 34 -166 49 -235 l28
-125 260 -3 260 -2 38 192 c21 106 46 218 56 248 17 54 17 55 28 28 6 -15 21
-117 32 -225 11 -109 23 -208 26 -220 l4 -23 255 0 c156 0 256 4 260 10 3 5
-3 105 -14 222 -12 117 -32 344 -46 503 -14 160 -37 389 -50 510 -13 121 -36
355 -50 520 -29 337 -44 486 -51 497 -3 5 -130 8 -283 8 l-278 0 -72 -357
c-94 -462 -101 -493 -111 -493 -19 0 -32 51 -112 444 l-82 406 -282 0 -281 0
-7 -32z m274 -88 c43 -22 50 -37 23 -46 -10 -3 -35 -13 -56 -21 -41 -18 -54
-13 -41 14 4 10 9 25 9 33 1 8 3 21 4 28 2 17 16 15 61 -8z m166 -82 c-4 -18
-13 -40 -22 -48 -13 -13 -16 -13 -24 0 -17 26 9 80 37 80 12 0 14 -7 9 -32z
m-162 -27 c3 -5 -1 -22 -9 -38 -8 -16 -12 -38 -9 -50 6 -20 10 -21 79 -16 95
7 125 0 125 -32 0 -19 6 -24 31 -27 33 -3 60 -31 45 -45 -4 -4 -60 -11 -124
-14 -125 -7 -152 1 -152 43 0 13 -7 18 -25 18 -18 0 -25 5 -25 19 0 27 -14 33
-36 16 -28 -21 -61 -19 -67 5 -3 12 -14 20 -27 20 -31 0 -20 22 23 45 21 11
40 30 43 43 6 20 12 22 64 22 33 0 61 -4 64 -9z m26 -266 c0 -8 -4 -15 -10
-15 -5 0 -10 7 -10 15 0 8 5 15 10 15 6 0 10 -7 10 -15z m212 -20 c8 -19 8
-38 -2 -79 -7 -30 -10 -68 -7 -84 8 -40 -18 -66 -38 -39 -7 10 -11 26 -8 36 2
9 -5 44 -16 76 -11 32 -18 63 -14 69 28 50 67 60 85 21z m-136 -30 c10 -24
-16 -87 -34 -83 -8 2 -16 11 -18 21 -1 10 -10 27 -18 36 -26 29 -19 41 24 41
26 0 43 -5 46 -15z m812 -23 c2 -7 -6 -12 -17 -12 -21 0 -27 11 -14 24 9 9 26
2 31 -12z m97 -1 c7 -12 -12 -24 -25 -16 -11 7 -4 25 10 25 5 0 11 -4 15 -9z
m-345 -52 c0 -5 -7 -9 -15 -9 -15 0 -20 12 -9 23 8 8 24 -1 24 -14z m-542 -21
c-6 -18 -28 -21 -28 -4 0 9 7 16 16 16 9 0 14 -5 12 -12z m-59 -89 c36 -13 39
-24 12 -39 -23 -12 -48 -4 -61 20 -16 30 -1 36 49 19z m821 -3 c0 -18 -30 -30
-43 -17 -5 5 -6 14 -3 20 10 16 46 13 46 -3z m-1163 -151 c38 -23 40 -34 15
-65 l-19 -23 -21 35 c-21 34 -30 84 -14 76 4 -2 22 -12 39 -23z m1543 -320 c0
-16 -27 -32 -37 -22 -3 4 -3 13 0 22 8 20 37 20 37 0z m-1393 -40 c3 -9 3 -19
-1 -22 -7 -7 -36 16 -36 28 0 15 30 10 37 -6z m1321 -37 c-3 -7 -11 -13 -18
-13 -7 0 -15 6 -17 13 -3 7 4 12 17 12 13 0 20 -5 18 -12z m-1233 -88 c0 -18
-43 -26 -59 -10 -8 8 -7 13 4 20 21 14 55 8 55 -10z m-115 -75 c0 -8 -4 -15
-10 -15 -5 0 -10 7 -10 15 0 8 5 15 10 15 6 0 10 -7 10 -15z m100 -17 c35 -58
20 -78 -25 -33 -28 27 -33 65 -10 65 8 0 24 -15 35 -32z m-197 -132 c6 -15 -1
-26 -15 -26 -4 0 -8 9 -8 20 0 23 15 27 23 6z m5 -122 c4 -25 -20 -47 -42 -38
-16 6 -22 45 -9 58 14 14 48 1 51 -20z m172 -3 c0 -37 -15 -48 -29 -22 -13 23
-4 51 15 51 9 0 14 -11 14 -29z m-4 -198 c-10 -10 -19 5 -10 18 6 11 8 11 12
0 2 -7 1 -15 -2 -18z m704 -187 c0 -8 -4 -17 -9 -21 -12 -7 -24 12 -16 25 9
15 25 12 25 -4z m58 -52 c4 -41 -18 -69 -50 -61 -46 12 -47 62 -2 73 13 3 24
11 24 16 0 24 25 -1 28 -28z"/>
<path d="M3431 5513 c-5 -21 -24 -119 -41 -218 -17 -99 -60 -331 -95 -515 -35
-184 -101 -537 -145 -785 -45 -247 -90 -488 -100 -535 -10 -47 -21 -109 -25
-137 l-7 -53 160 0 c87 0 206 3 264 6 l106 7 16 76 c8 42 31 159 51 261 20
102 43 216 52 254 l15 68 109 -4 c60 -2 114 -9 120 -15 10 -10 58 -236 103
-487 14 -76 29 -143 34 -148 13 -13 314 -21 433 -11 l96 8 -28 145 c-61 313
-389 2094 -389 2109 0 8 -111 11 -360 11 l-359 0 -10 -37z m162 -260 c8 -7
-21 -43 -35 -43 -10 0 -11 34 -1 43 8 9 28 9 36 0z m182 -15 l27 -21 -22 -17
c-14 -10 -25 -33 -29 -56 -6 -37 -8 -39 -41 -39 -34 0 -35 1 -43 53 -11 67 -5
82 33 82 16 0 30 5 30 10 0 16 15 12 45 -12z m113 -170 c2 -10 -8 -29 -23 -44
-21 -21 -29 -23 -40 -14 -18 15 -19 52 -3 68 18 18 62 11 66 -10z m-388 -29
c0 -20 -15 -26 -25 -9 -9 15 3 43 15 35 5 -3 10 -15 10 -26z m672 -56 c32 -31
34 -40 11 -65 -15 -17 -15 -18 1 -18 23 0 58 -80 59 -136 0 -32 -7 -54 -22
-75 -13 -17 -21 -32 -19 -33 1 -2 12 -8 23 -14 20 -11 20 -11 -2 -12 -12 0
-33 4 -46 9 -20 8 -29 6 -43 -10 -23 -26 -32 -24 -36 9 -2 23 -8 27 -33 27
-35 0 -48 31 -18 42 28 10 33 23 33 86 0 33 9 82 21 115 12 31 23 67 26 80 7
28 11 28 45 -5z m-261 -26 c-1 -12 -15 -9 -19 4 -3 6 1 10 8 8 6 -3 11 -8 11
-12z m59 -135 c0 -13 -12 -22 -22 -16 -10 6 -1 24 13 24 5 0 9 -4 9 -8z m-145
-148 c7 -43 17 -112 21 -151 8 -83 0 -93 -65 -77 l-36 9 3 55 c4 66 30 239 38
252 12 20 25 -10 39 -88z m225 -100 c27 -23 34 -25 56 -15 31 14 34 14 34 0 0
-14 -68 -41 -89 -34 -15 4 -51 53 -51 69 0 13 20 5 50 -20z m319 -660 c8 -7
12 -17 8 -21 -11 -10 -79 25 -72 37 8 13 44 4 64 -16z m-195 -397 c12 -32 5
-41 -23 -32 -13 4 -21 15 -21 29 0 45 29 46 44 3z m-984 -7 c0 -23 -4 -24 -31
-9 -23 12 -16 29 12 29 12 0 19 -7 19 -20z"/>
<path d="M5065 5536 c-155 -38 -301 -178 -364 -350 l-26 -71 0 -700 0 -700 28
-80 c53 -149 132 -239 275 -313 l80 -42 214 0 c240 0 284 7 373 61 110 66 192
165 238 287 20 55 21 76 25 515 l3 457 -317 0 -317 0 6 -127 c4 -71 7 -187 7
-259 l0 -131 38 -7 c65 -11 64 -9 57 -149 l-8 -126 -41 -6 c-22 -3 -61 -2 -86
2 l-45 9 -3 519 c-3 564 0 653 27 686 16 20 23 21 89 14 l72 -7 0 -123 c0
-103 3 -124 16 -129 28 -11 387 -18 444 -9 l55 8 3 154 c1 84 -2 179 -8 210
-34 191 -212 370 -408 410 -70 15 -364 13 -427 -3z m71 -124 c13 -24 20 -50
17 -58 -7 -20 -90 -67 -103 -59 -5 3 -10 17 -10 31 0 14 -9 43 -21 65 -27 54
-14 71 49 67 42 -3 47 -6 68 -46z m204 -71 c0 -56 -72 -83 -91 -34 -9 24 -7
30 11 45 12 10 35 18 51 18 25 0 29 -4 29 -29z m284 -3 c18 -25 21 -58 7 -58
-13 0 -51 50 -51 66 0 22 27 16 44 -8z m-44 -79 c7 -11 9 -23 6 -26 -8 -9 -36
17 -36 33 0 21 18 17 30 -7z m-46 -38 c8 -12 -21 -34 -34 -26 -17 11 -11 35 9
35 11 0 22 -4 25 -9z m-276 -39 c3 -9 -2 -13 -14 -10 -9 1 -19 9 -22 16 -3 9
2 13 14 10 9 -1 19 -9 22 -16z m337 -1141 c7 -12 -12 -24 -25 -16 -11 7 -4 25
10 25 5 0 11 -4 15 -9z m-101 -46 c3 -9 -1 -18 -10 -22 -19 -7 -28 2 -21 22 8
19 23 19 31 0z"/>
<path d="M6088 5268 c-2 -156 -4 -670 -6 -1142 l-3 -859 278 6 c153 4 405 7
561 7 l282 0 0 255 0 255 -117 0 c-65 0 -196 3 -290 7 l-173 6 0 217 0 217
107 6 c58 4 168 7 245 7 l138 0 -2 263 -3 262 -245 0 -245 0 -3 121 -3 121
281 5 c201 3 284 8 293 17 13 13 24 443 12 488 l-5 23 -550 0 -549 0 -3 -282z
m467 42 c-5 -8 -11 -8 -17 -2 -6 6 -7 16 -3 22 5 8 11 8 17 2 6 -6 7 -16 3
-22z m-106 6 c9 -11 8 -18 -4 -30 -9 -9 -20 -16 -25 -16 -16 0 -39 31 -34 45
8 19 48 19 63 1z m481 -29 c0 -14 -20 -37 -32 -37 -12 0 -10 24 4 38 16 16 28
15 28 -1z m-200 -32 c0 -8 -4 -15 -10 -15 -5 0 -10 7 -10 15 0 8 5 15 10 15 6
0 10 -7 10 -15z m-370 -33 c0 -14 -11 -21 -26 -15 -21 8 -17 23 6 23 11 0 20
-4 20 -8z m454 -18 c10 -26 7 -44 -8 -44 -8 0 -17 9 -21 20 -11 34 16 57 29
24z m-76 -15 c4 -20 -35 -69 -54 -69 -20 0 -18 19 6 58 21 34 42 38 48 11z
m-234 -68 c4 -5 -14 -16 -38 -24 -38 -13 -47 -13 -56 -2 -9 11 -5 18 21 34 32
19 58 16 73 -8z m-6 -124 c5 -23 -29 -22 -59 1 -15 13 -20 25 -16 36 7 17 9
17 39 -1 18 -11 34 -27 36 -36z m-180 -149 c-7 -19 -38 -22 -38 -4 0 10 9 16
21 16 12 0 19 -5 17 -12z m192 -67 c13 -25 13 -51 0 -51 -14 0 -43 48 -35 60
10 16 23 12 35 -9z m-162 -61 c23 -35 29 -70 11 -70 -18 0 -69 57 -69 78 0 43
25 40 58 -8z m86 -16 c18 -17 21 -44 7 -44 -11 0 -41 39 -41 52 0 13 18 9 34
-8z"/>
<path d="M8716 5540 c-66 -17 -173 -80 -241 -142 -78 -72 -139 -185 -155 -288
-12 -81 -13 -1311 -1 -1395 25 -171 130 -310 298 -396 l68 -34 242 -3 243 -3
72 37 c102 53 203 156 251 254 47 96 57 151 57 323 l0 140 -256 -6 c-140 -3
-258 -7 -261 -10 -2 -3 -8 -48 -11 -101 -4 -52 -13 -101 -20 -108 -17 -17
-124 -23 -152 -8 l-23 12 6 412 c4 226 7 498 7 604 l0 193 88 -3 87 -3 5 -117
c3 -64 9 -121 14 -125 19 -20 462 -31 497 -13 17 10 19 23 19 158 0 245 -34
346 -155 468 -80 81 -166 128 -260 144 -86 15 -373 21 -419 10z m-35 -309 c13
-37 33 -45 69 -26 16 8 41 15 55 15 l27 0 -29 -35 c-25 -31 -33 -34 -73 -33
-40 2 -46 -1 -58 -25 -22 -46 -52 -26 -34 23 5 14 5 34 -1 50 -6 15 -7 34 -4
44 10 26 37 19 48 -13z m89 9 c0 -11 -7 -20 -15 -20 -15 0 -21 21 -8 33 12 13
23 7 23 -13z m370 -185 c0 -22 -30 -66 -41 -59 -14 8 -10 41 7 58 20 20 34 20
34 1z m207 -161 c1 -5 -2 -16 -7 -24 -12 -20 -33 0 -24 24 7 17 25 17 31 0z
m-649 -436 c-3 -7 -11 -13 -18 -13 -7 0 -15 6 -17 13 -3 7 4 12 17 12 13 0 20
-5 18 -12z m-292 -70 c11 -21 13 -33 5 -41 -14 -14 -37 7 -44 41 -10 52 12 52
39 0z m90 -489 c27 -16 43 -19 74 -14 71 12 91 -30 44 -92 -14 -18 -38 -40
-53 -48 -16 -8 -32 -26 -35 -40 -7 -26 -26 -35 -26 -12 0 7 -9 30 -21 51 -15
28 -19 48 -14 73 4 25 1 40 -14 60 -12 14 -21 30 -21 34 0 15 32 10 66 -12z
m905 -39 c24 -14 25 -47 1 -55 -36 -11 -52 -73 -30 -120 9 -21 8 -35 -5 -73
-9 -26 -17 -58 -19 -72 -2 -18 -10 -26 -28 -28 -52 -6 -87 -23 -109 -53 -21
-29 -22 -32 -6 -49 20 -22 14 -35 -27 -56 -33 -17 -333 -42 -363 -30 -28 10
-17 36 15 36 23 0 42 11 75 46 25 25 45 51 45 58 0 19 30 42 74 56 42 14 151
106 136 115 -18 11 -11 23 20 34 22 7 30 16 30 33 0 30 44 95 70 103 11 4 27
20 35 36 17 31 49 38 86 19z m-967 -137 c8 -19 -1 -33 -20 -33 -17 0 -28 24
-20 45 6 17 32 10 40 -12z m656 -13 c0 -14 -14 -12 -28 2 -19 19 -14 30 8 18
11 -6 20 -15 20 -20z m399 14 c7 -7 -29 -54 -42 -54 -20 0 -37 22 -37 48 0 23
3 24 38 17 20 -4 39 -8 41 -11z m-319 -29 c0 -8 -7 -15 -15 -15 -8 0 -15 7
-15 15 0 8 7 15 15 15 8 0 15 -7 15 -15z m-155 -27 c-4 -13 -8 -35 -10 -51 -1
-15 -5 -27 -8 -27 -4 0 -11 0 -17 0 -16 0 -11 62 7 82 22 25 37 23 28 -4z m98
-45 c-7 -2 -19 -2 -25 0 -7 3 -2 5 12 5 14 0 19 -2 13 -5z m302 -63 c0 -22
-29 -18 -33 3 -3 14 1 18 15 15 10 -2 18 -10 18 -18z m-100 -110 c10 -16 -15
-40 -41 -40 -26 0 -31 19 -12 38 15 15 45 16 53 2z"/>
<path d="M10109 5527 c-85 -29 -189 -97 -245 -161 -25 -28 -61 -85 -81 -126
-35 -72 -37 -81 -44 -220 -11 -202 -10 -1143 0 -1269 8 -93 14 -113 51 -188
52 -106 127 -183 230 -238 l75 -40 247 -3 247 -4 83 44 c166 86 267 221 288
383 7 51 10 328 8 760 l-3 680 -34 80 c-29 67 -48 93 -115 161 -133 133 -225
164 -486 164 -134 -1 -164 -4 -221 -23z m331 -118 c0 -11 -4 -19 -9 -19 -16 0
-33 30 -27 46 5 13 9 14 21 4 8 -7 15 -21 15 -31z m-202 9 c21 -21 13 -37 -25
-55 -29 -14 -39 -26 -43 -48 -6 -37 -59 -67 -110 -63 -30 3 -35 7 -38 30 -2
15 1 36 7 46 8 15 7 23 -4 32 -26 22 -17 33 21 26 30 -6 39 -3 59 18 19 21 33
26 73 26 26 0 53 -5 60 -12z m412 -4 c0 -14 -3 -14 -15 -4 -8 7 -15 14 -15 16
0 2 7 4 15 4 8 0 15 -7 15 -16z m-260 -44 c0 -14 -15 -19 -29 -10 -17 10 -5
31 14 23 8 -3 15 -9 15 -13z m48 -42 c-3 -7 -13 -15 -24 -17 -16 -3 -17 -1 -5
13 16 19 34 21 29 4z m166 -199 l28 -22 45 23 45 22 22 -22 21 -22 -22 -15
c-13 -9 -23 -25 -23 -36 0 -11 -18 -37 -41 -58 -46 -42 -51 -82 -11 -87 35 -5
28 -44 -18 -91 -40 -41 -62 -49 -89 -32 -20 13 -5 41 22 41 28 0 62 33 52 50
-4 7 -19 10 -35 6 -34 -6 -45 13 -25 41 20 26 18 54 -4 60 -52 13 -57 163 -5
163 6 0 24 -10 38 -21z m-163 -132 c10 -37 19 -956 11 -1079 -9 -127 -14 -133
-116 -123 l-76 7 0 608 0 609 23 4 c12 3 51 4 86 3 62 -1 65 -2 72 -29z m449
-23 c0 -14 -3 -14 -15 -4 -8 7 -15 14 -15 16 0 2 7 4 15 4 8 0 15 -7 15 -16z
m-20 -63 c0 -13 -26 -32 -33 -24 -14 13 -6 33 13 33 11 0 20 -4 20 -9z m-722
-68 c5 -17 -26 -29 -40 -15 -6 6 -7 15 -3 22 9 14 37 9 43 -7z m610 -673 c16
-26 9 -37 -29 -45 -40 -9 -44 -3 -24 34 18 36 35 39 53 11z m112 -70 c0 -5 -9
-10 -20 -10 -11 0 -20 5 -20 10 0 6 9 10 20 10 11 0 20 -4 20 -10z m-270 -39
c0 -14 -18 -23 -30 -16 -6 4 -8 11 -5 16 8 12 35 12 35 0z m-32 -63 c20 -20
15 -58 -7 -58 -20 0 -31 18 -31 51 0 21 20 25 38 7z"/>
<path d="M11361 5528 c-11 -29 -41 -340 -86 -888 -19 -234 -54 -609 -77 -835
-22 -225 -42 -435 -42 -465 l-1 -55 50 -8 c51 -8 423 -1 449 9 22 9 26 27 42
194 16 176 30 280 39 288 11 11 23 -20 40 -107 10 -47 33 -153 52 -234 l35
-148 253 3 c139 2 256 6 259 9 3 3 24 95 46 205 48 237 58 274 70 274 14 0 17
-22 40 -235 11 -104 23 -207 26 -227 l6 -38 259 0 c142 0 259 3 259 8 0 29
-76 864 -101 1102 -16 162 -43 444 -59 625 -29 322 -46 477 -57 523 l-5 22
-278 0 -277 0 -12 -62 c-39 -203 -155 -757 -163 -777 -6 -16 -12 -21 -19 -14
-8 8 -153 683 -174 811 l-7 42 -279 0 -279 0 -9 -22z m267 -98 c36 -22 43 -50
11 -50 -11 0 -32 -9 -47 -20 -28 -23 -55 -12 -33 13 6 8 9 22 5 31 -8 21 2 46
18 46 7 0 28 -9 46 -20z m170 -69 c2 -12 -5 -36 -16 -53 l-20 -31 -6 30 c-8
35 9 86 27 81 6 -3 13 -15 15 -27z m-153 -42 c4 -6 -2 -19 -14 -30 -12 -11
-21 -31 -21 -44 0 -25 1 -25 89 -25 106 0 121 -4 121 -36 0 -19 5 -24 25 -24
32 0 74 -39 54 -50 -8 -4 -70 -9 -139 -11 l-125 -4 -14 33 c-9 19 -22 32 -33
32 -13 0 -18 7 -18 25 0 28 -12 32 -30 10 -16 -20 -60 -20 -60 0 0 8 -11 17
-25 21 -33 8 -32 30 4 48 15 8 36 26 45 40 15 23 23 26 76 26 32 0 62 -5 65
-11z m217 -276 c25 -28 30 -59 14 -76 -9 -9 -16 -39 -18 -78 -2 -51 -6 -64
-20 -67 -15 -3 -18 4 -18 45 0 31 -7 60 -21 82 -40 67 15 149 63 94z m-119
-36 c6 -17 -23 -87 -37 -87 -10 0 -56 75 -56 93 0 13 88 8 93 -6z m802 -28 c0
-7 -8 -15 -17 -17 -18 -3 -25 18 -11 32 10 10 28 1 28 -15z m95 -9 c0 -5 -4
-10 -10 -10 -5 0 -10 5 -10 10 0 6 5 10 10 10 6 0 10 -4 10 -10z m-345 -29 c7
-12 -12 -24 -25 -16 -11 7 -4 25 10 25 5 0 11 -4 15 -9z m-537 -33 c-6 -18
-28 -21 -28 -4 0 9 7 16 16 16 9 0 14 -5 12 -12z m-35 -95 c11 -7 -22 -43 -39
-43 -13 0 -44 37 -44 53 0 9 66 1 83 -10z m787 2 c0 -8 -7 -15 -15 -15 -8 0
-15 7 -15 15 0 8 7 15 15 15 8 0 15 -7 15 -15z m-1160 -150 c7 -8 19 -15 26
-15 17 0 18 -32 2 -48 -16 -16 -44 2 -56 37 -14 40 3 56 28 26z m1554 -336
c-3 -5 -14 -9 -25 -9 -21 0 -26 26 -6 33 15 5 39 -12 31 -24z m-1390 -32 c6
-9 7 -19 3 -23 -9 -9 -37 15 -37 33 0 18 20 12 34 -10z m1307 -30 c-1 -12 -15
-9 -19 4 -3 6 1 10 8 8 6 -3 11 -8 11 -12z m-1236 -87 c0 -8 -7 -16 -15 -17
-22 -4 -44 13 -35 26 10 17 50 9 50 -9z m0 -97 c29 -43 31 -53 10 -53 -25 0
-79 55 -72 73 10 28 35 19 62 -20z m-205 -133 c0 -21 -15 -27 -25 -10 -7 12 2
30 16 30 5 0 9 -9 9 -20z m0 -105 c17 -20 8 -50 -14 -50 -23 0 -41 27 -33 49
8 20 31 21 47 1z m174 -1 c9 -23 7 -54 -3 -54 -11 0 -21 25 -21 51 0 23 15 25
24 3z m-2 -216 c-9 -9 -12 -7 -12 12 0 19 3 21 12 12 9 -9 9 -15 0 -24z m703
-186 c0 -18 -20 -15 -23 4 -3 10 1 15 10 12 7 -3 13 -10 13 -16z m68 -35 c8
-20 -20 -77 -38 -77 -28 0 -55 20 -55 40 0 37 81 69 93 37z"/>
<path d="M13257 5543 c-9 -8 -9 -2225 -1 -2247 5 -14 38 -16 260 -16 l254 0 1
223 c1 122 2 227 4 232 1 6 3 65 3 131 l2 121 74 7 c98 9 208 40 276 78 90 51
200 170 249 269 51 106 68 172 83 326 20 207 -8 388 -82 538 -51 104 -112 172
-213 238 -110 72 -147 85 -280 97 -125 11 -620 14 -630 3z m433 -529 c0 -10
-7 -14 -22 -12 -32 5 -35 28 -4 28 17 0 26 -5 26 -16z m193 -14 c47 -37 59
-93 55 -242 -3 -100 -8 -142 -21 -168 -19 -39 -72 -80 -104 -80 -13 0 -23 8
-27 23 -3 12 -6 127 -6 255 l0 232 39 0 c23 0 48 -8 64 -20z m197 -111 c0 -23
-27 -36 -42 -21 -9 9 -7 17 7 32 20 22 35 18 35 -11z m268 -41 c17 -17 15 -35
-9 -57 -22 -21 -27 -49 -15 -93 7 -24 5 -27 -25 -33 l-32 -7 6 -74 c6 -69 5
-74 -16 -85 -12 -7 -37 -25 -55 -40 -29 -26 -35 -27 -60 -16 -15 6 -33 20 -40
30 -8 10 -24 28 -37 40 -13 12 -35 43 -49 69 -36 65 -25 117 34 168 22 19 40
41 40 48 0 26 35 6 55 -31 20 -38 20 -39 70 -32 28 3 53 9 57 13 4 4 -2 26
-12 50 l-19 43 22 9 c32 13 71 12 85 -2z m-928 -51 c0 -8 -11 -24 -24 -36 -30
-28 -45 -11 -22 24 18 27 46 34 46 12z m101 -93 c11 -14 10 -19 -10 -35 -28
-23 -37 -24 -44 -5 -17 43 25 74 54 40z m796 -250 c7 -19 -20 -49 -36 -40 -6
4 -11 18 -11 32 0 17 5 24 20 24 11 0 23 -7 27 -16z m-263 -50 c19 -19 21 -34
3 -34 -17 0 -37 20 -37 37 0 18 15 16 34 -3z m202 -20 c-4 -9 -9 -15 -11 -12
-3 3 -3 13 1 22 4 9 9 15 11 12 3 -3 3 -13 -1 -22z m-119 -50 c-9 -9 -28 6
-21 18 4 6 10 6 17 -1 6 -6 8 -13 4 -17z m149 -41 c-10 -10 -19 5 -10 18 6 11
8 11 12 0 2 -7 1 -15 -2 -18z m-222 -32 c5 -36 9 -39 51 -50 25 -6 45 -15 45
-20 0 -15 -81 -82 -118 -98 -50 -21 -80 -11 -87 31 -4 18 -5 44 -3 57 2 20 8
24 35 21 36 -4 53 17 53 67 0 44 16 38 24 -8z m-284 -215 c0 -21 -69 -78 -88
-72 -9 2 -32 7 -49 11 -47 9 -41 27 20 52 61 26 117 30 117 9z m-140 -376 c0
-5 -4 -10 -10 -10 -5 0 -10 5 -10 10 0 6 5 10 10 10 6 0 10 -4 10 -10z m-274
-151 c3 -6 2 -15 -3 -20 -13 -13 -43 -1 -43 17 0 16 36 19 46 3z"/>
<path d="M16177 5458 c-2 -51 -4 -564 -5 -1141 l-2 -1047 552 6 c304 4 554 8
556 10 2 1 6 115 9 253 l6 251 -119 0 c-65 0 -197 3 -291 7 l-173 6 0 219 0
218 43 1 c23 1 132 4 242 8 l200 6 3 240 c1 132 0 251 -3 264 l-6 24 -245 -7
-244 -6 0 123 0 124 286 6 c157 3 289 8 292 12 12 12 14 458 3 488 l-11 27
-544 0 -545 0 -4 -92z m361 -150 c2 -9 -5 -21 -16 -27 -25 -14 -58 9 -49 33 9
23 61 18 65 -6z m102 12 c0 -5 -4 -10 -10 -10 -5 0 -10 5 -10 10 0 6 5 10 10
10 6 0 10 -4 10 -10z m370 -55 c-7 -8 -16 -15 -21 -15 -14 0 -11 38 4 43 20 7
31 -11 17 -28z m-190 -3 c0 -13 -12 -22 -22 -16 -10 6 -1 24 13 24 5 0 9 -4 9
-8z m-372 -44 c-3 -7 -11 -13 -18 -13 -7 0 -15 6 -17 13 -3 7 4 12 17 12 13 0
20 -5 18 -12z m459 -42 c-4 -9 -11 -16 -17 -16 -15 0 -24 26 -16 47 6 15 8 15
23 1 9 -9 13 -24 10 -32z m-79 13 c4 -22 -36 -69 -58 -69 -17 0 -18 3 -9 27
21 55 60 79 67 42z m-234 -68 c8 -13 -78 -41 -94 -31 -11 7 -11 11 0 25 28 34
76 36 94 6z m-36 -91 c38 -23 43 -50 9 -50 -22 0 -67 32 -67 49 0 9 11 21 19
21 3 0 21 -9 39 -20z m-153 -179 c3 -5 1 -13 -5 -16 -15 -9 -43 3 -35 15 8 13
32 13 40 1z m205 -102 c0 -18 -18 -17 -35 1 -11 12 -15 26 -10 37 6 16 8 16
26 -6 10 -13 19 -27 19 -32z m-173 -35 c26 -45 29 -64 9 -64 -19 0 -66 57 -66
79 0 45 27 38 57 -15z m85 -11 c21 -19 24 -43 5 -43 -11 0 -37 39 -37 55 0 10
14 4 32 -12z"/>
<path d="M17882 5539 c-122 -24 -298 -159 -359 -276 -52 -99 -58 -143 -58
-423 0 -293 3 -306 97 -446 110 -164 258 -233 505 -234 50 0 95 -4 98 -10 11
-17 18 -205 11 -283 l-8 -77 -88 0 -87 0 -5 85 c-2 47 -8 88 -12 92 -10 10
-431 10 -478 0 l-38 -8 0 -112 c0 -203 39 -318 142 -421 44 -43 89 -75 147
-104 l83 -42 207 0 c239 0 314 10 391 51 100 53 224 202 250 299 5 19 12 173
16 341 l7 305 -43 84 c-86 163 -179 249 -323 296 -67 22 -104 27 -204 29 -67
2 -126 6 -132 10 -7 4 -11 62 -11 166 l0 160 88 -3 87 -3 9 -82 8 -83 260 0
261 0 -5 143 c-6 156 -21 215 -83 312 -69 108 -220 211 -345 235 -62 12 -327
11 -388 -1z m-114 -207 c2 -7 -6 -12 -17 -12 -21 0 -27 11 -14 24 9 9 26 2 31
-12z m-33 -119 c41 -20 44 -36 11 -58 -27 -18 -60 -9 -90 23 -40 46 10 68 79
35z m-167 -134 c-1 -53 12 -76 50 -90 19 -7 22 -13 16 -32 -4 -12 -7 -30 -6
-40 1 -28 -27 -32 -53 -7 -37 34 -58 110 -50 173 9 64 13 71 31 56 8 -7 13
-29 12 -60z m160 9 c7 -7 12 -25 12 -42 0 -17 9 -40 21 -52 19 -21 20 -26 9
-54 -7 -16 -17 -30 -22 -30 -15 0 -98 73 -98 86 0 7 -14 22 -30 34 -34 24 -31
36 14 56 39 17 78 18 94 2z m442 -1616 c0 -13 -12 -22 -22 -16 -10 6 -1 24 13
24 5 0 9 -4 9 -8z m-314 -16 c18 -14 18 -15 -9 -21 -17 -5 -33 -2 -42 5 -32
27 15 42 51 16z"/>
<path d="M19301 5539 c-85 -17 -166 -64 -254 -148 -147 -142 -156 -175 -157
-585 l0 -259 48 -85 c64 -116 139 -189 243 -241 89 -44 176 -61 319 -61 36 0
72 -5 80 -10 21 -13 22 -318 1 -343 -10 -13 -31 -17 -87 -17 -83 0 -79 -5 -90
107 l-6 71 -107 8 c-124 8 -390 -1 -404 -15 -5 -5 -5 -75 0 -178 9 -165 10
-170 44 -233 48 -92 138 -179 234 -226 l79 -39 204 -3 c232 -4 307 5 397 48
103 49 204 166 246 284 29 84 40 243 33 471 -7 200 -7 200 -39 265 -64 128
-161 233 -260 283 -64 32 -160 50 -275 52 -64 0 -121 5 -128 9 -9 5 -12 53
-12 167 l0 159 95 0 95 0 0 -75 c0 -63 3 -76 19 -85 23 -12 469 -14 488 -2 20
13 26 140 9 229 -43 242 -205 409 -440 454 -60 11 -314 10 -375 -2z m-111
-204 c0 -8 -6 -15 -14 -15 -17 0 -28 14 -19 24 12 12 33 6 33 -9z m-32 -125
c17 -11 32 -27 32 -35 0 -36 -81 -35 -121 1 -14 13 -16 21 -8 35 13 25 55 24
97 -1z m-172 -122 c-6 -44 -4 -51 21 -77 16 -15 35 -30 43 -33 12 -4 13 -8 3
-19 -7 -7 -13 -26 -13 -41 0 -15 -5 -28 -11 -28 -22 0 -77 69 -83 103 -7 38 1
111 16 140 17 33 31 7 24 -45z m156 -5 c10 -9 18 -30 18 -48 0 -18 7 -38 15
-45 25 -20 16 -80 -11 -80 -16 0 -71 58 -91 96 -7 12 -22 26 -34 29 -43 14 3
65 60 65 14 0 33 -7 43 -17z m448 -1613 c0 -5 -4 -10 -10 -10 -5 0 -10 5 -10
10 0 6 5 10 10 10 6 0 10 -4 10 -10z m-326 -6 c20 -8 21 -34 2 -34 -25 0 -46
12 -46 26 0 15 18 18 44 8z"/>
<path d="M20731 5539 c-25 -5 -78 -24 -119 -44 -147 -69 -264 -225 -292 -386
-8 -47 -11 -271 -8 -760 l3 -694 31 -60 c46 -88 116 -177 177 -223 105 -81
163 -94 430 -93 l207 1 78 39 c135 68 207 141 279 285 l35 70 -5 715 c-5 778
-4 757 -63 880 -36 73 -151 189 -224 224 -86 42 -177 57 -340 56 -80 -1 -165
-5 -189 -10z m279 -109 c14 -26 3 -45 -16 -29 -16 13 -19 49 -4 49 5 0 14 -9
20 -20z m-206 -11 c14 -11 26 -24 26 -28 0 -4 -18 -16 -39 -26 -31 -14 -40
-24 -45 -50 -5 -24 -15 -37 -39 -48 -55 -25 -84 -28 -101 -11 -19 18 -19 22
-5 63 9 24 9 35 0 44 -20 20 -12 28 23 21 28 -5 37 -2 48 15 7 12 22 21 33 21
11 0 27 5 35 10 22 14 34 12 64 -11z m422 -7 c-9 -9 -37 8 -31 18 5 8 11 7 21
-1 8 -6 12 -14 10 -17z m-272 -28 c22 -9 20 -24 -3 -24 -21 0 -34 13 -24 24 8
7 8 7 27 0z m64 -56 c-3 -7 -13 -15 -24 -17 -16 -3 -17 -1 -5 13 16 19 34 21
29 4z m162 -199 l38 -22 36 22 c28 18 39 20 56 11 24 -13 26 -38 5 -46 -8 -4
-15 -18 -15 -34 0 -21 -10 -37 -40 -60 -48 -38 -54 -75 -15 -90 35 -13 31 -33
-18 -85 -45 -46 -75 -56 -97 -30 -16 20 -4 35 29 35 33 0 51 16 51 48 0 20 -4
22 -22 17 -38 -12 -43 -11 -40 10 14 84 14 85 -2 85 -20 0 -32 24 -39 79 -6
46 5 81 24 81 6 0 28 -10 49 -21z m-169 -116 c11 -13 15 -120 17 -575 2 -308
1 -575 -3 -594 -8 -46 -39 -58 -128 -49 l-67 7 2 606 3 606 25 7 c51 14 137
10 151 -8z m456 -49 c-9 -9 -28 6 -21 18 4 6 10 6 17 -1 6 -6 8 -13 4 -17z
m-27 -58 c0 -8 -5 -18 -11 -22 -14 -8 -33 11 -25 25 10 16 36 13 36 -3z m-722
-69 c2 -12 -3 -17 -17 -17 -12 0 -21 6 -21 13 0 31 32 34 38 4z m616 -666 c16
-18 16 -20 -6 -35 -47 -33 -74 -13 -42 32 19 27 26 27 48 3z m107 -76 c-1 -15
-24 -12 -29 3 -3 9 2 13 12 10 10 -1 17 -7 17 -13z m-261 -35 c0 -5 -7 -10
-15 -10 -8 0 -15 5 -15 10 0 6 7 10 15 10 8 0 15 -4 15 -10z m-30 -70 c8 -14
7 -26 -1 -42 l-12 -22 -18 23 c-20 24 -24 43 -12 54 12 13 32 7 43 -13z"/>
<path d="M4628 2463 l-46 -4 -5 -57 c-7 -93 -8 -1970 -1 -2096 l7 -116 259 0
258 0 0 284 c0 356 7 417 41 354 7 -13 65 -157 129 -322 64 -164 123 -302 131
-306 8 -4 123 -11 257 -15 l242 -7 0 1148 0 1147 -251 -5 c-137 -3 -253 -9
-256 -12 -3 -3 -8 -158 -11 -343 -2 -186 -8 -345 -13 -353 -11 -20 -41 48
-180 413 l-114 297 -200 -2 c-110 -1 -221 -3 -247 -5z m916 -218 c3 -9 -1 -18
-10 -22 -19 -7 -28 2 -21 22 8 19 23 19 31 0z m-48 -70 c31 -28 23 -49 -16
-43 -32 4 -48 32 -31 52 17 20 15 21 47 -9z m320 -12 c-2 -10 -7 -32 -11 -50
-3 -17 -13 -37 -21 -44 -12 -9 -14 -7 -14 15 0 34 26 96 40 96 6 0 9 -8 6 -17z
m-226 -93 c0 -5 -4 -10 -10 -10 -5 0 -10 5 -10 10 0 6 5 10 10 10 6 0 10 -4
10 -10z m138 -26 c41 -29 19 -75 -43 -90 -16 -4 -39 -13 -50 -20 -11 -8 -25
-14 -32 -14 -22 0 -14 38 12 58 14 11 25 30 25 41 0 13 9 25 23 31 32 13 40
12 65 -6z m-735 -676 c6 -18 -12 -50 -24 -43 -15 10 -11 55 5 55 8 0 16 -6 19
-12z m841 -260 c10 -38 7 -88 -5 -88 -32 0 -52 73 -27 98 17 17 25 15 32 -10z
m-1155 -41 c20 -25 24 -72 7 -86 -38 -32 -78 18 -57 72 11 29 32 35 50 14z
m1075 -30 c33 -43 33 -63 0 -71 -58 -15 -94 27 -66 77 21 35 35 34 66 -6z
m-16 -123 c33 -23 29 -59 -8 -74 -28 -12 -32 -10 -55 14 -13 14 -29 26 -35 26
-14 0 -13 23 2 38 17 17 69 15 96 -4z m111 -178 c13 -13 21 -32 19 -42 -4 -20
-28 -32 -28 -13 0 7 -9 23 -21 35 -12 12 -18 27 -14 33 10 16 19 13 44 -13z
m-546 -54 c11 -18 16 -36 12 -40 -8 -8 -65 53 -65 69 0 22 35 3 53 -29z m315
32 c27 -8 79 -91 65 -105 -20 -20 -124 75 -109 100 8 13 12 13 44 5z m-238
-19 c0 -8 -7 -15 -15 -15 -8 0 -15 7 -15 15 0 8 7 15 15 15 8 0 15 -7 15 -15z
m-365 -42 c22 -11 35 -24 35 -36 0 -17 -5 -19 -42 -13 -49 8 -68 21 -68 47 0
24 27 25 75 2z m805 -49 c0 -7 -48 -54 -56 -54 -10 0 -3 25 13 42 15 17 43 25
43 12z"/>
<path d="M8917 2460 c-75 -6 -99 -13 -174 -50 -114 -57 -205 -145 -258 -254
l-39 -77 -9 -197 c-5 -108 -6 -438 -4 -732 6 -587 5 -581 69 -703 43 -80 148
-177 241 -221 l74 -36 232 0 233 0 87 45 c48 25 107 62 130 81 48 41 111 130
147 207 l24 52 0 728 0 728 -31 82 c-18 45 -47 103 -65 128 -72 99 -212 189
-324 208 -81 14 -233 19 -333 11z m217 -116 c9 -24 7 -34 -8 -34 -16 0 -29 27
-20 41 8 14 21 11 28 -7z m-215 -5 c41 -15 40 -39 -5 -64 -25 -14 -40 -31 -48
-55 -9 -28 -19 -37 -51 -48 -21 -7 -51 -12 -65 -10 -20 2 -26 9 -28 36 -2 18
1 39 7 46 8 10 7 17 -4 26 -27 22 -17 33 25 26 31 -5 42 -3 46 9 7 18 51 44
75 45 9 0 30 -5 48 -11z m429 -8 c3 -8 -1 -12 -9 -9 -7 2 -15 10 -17 17 -3 8
1 12 9 9 7 -2 15 -10 17 -17z m-260 -48 c2 -8 -5 -13 -17 -13 -12 0 -21 6 -21
16 0 18 31 15 38 -3z m52 -42 c0 -14 -18 -23 -30 -16 -6 4 -8 11 -5 16 8 12
35 12 35 0z m155 -191 c16 -26 42 -29 79 -9 21 11 46 17 56 14 27 -9 33 -36
12 -51 -11 -7 -22 -27 -25 -43 -4 -17 -20 -40 -42 -56 -43 -34 -48 -71 -10
-81 38 -9 31 -40 -20 -91 -36 -36 -48 -43 -67 -38 -30 10 -32 11 -25 30 4 8
16 15 27 15 24 0 63 36 57 53 -2 7 -19 12 -38 12 -28 0 -33 3 -31 20 2 11 8
22 13 23 18 7 9 50 -11 55 -35 9 -56 117 -28 145 15 15 45 16 53 2z m-160
-122 c26 -24 31 -1172 5 -1203 -9 -11 -35 -15 -96 -15 l-84 0 0 610 0 609 38
6 c20 4 44 8 52 10 22 4 73 -5 85 -17z m455 -45 c0 -13 -3 -13 -15 -3 -8 7
-12 16 -9 21 8 13 24 1 24 -18z m-22 -65 c-7 -19 -38 -22 -38 -4 0 10 9 16 21
16 12 0 19 -5 17 -12z m-720 -65 c5 -17 -26 -29 -40 -15 -6 6 -7 15 -3 22 9
14 37 9 43 -7z m619 -697 c-5 -14 -66 -26 -73 -15 -3 5 5 23 17 41 l22 31 19
-23 c10 -13 17 -28 15 -34z m103 -44 c0 -14 -11 -21 -26 -15 -21 8 -17 23 6
23 11 0 20 -4 20 -8z m-270 -43 c0 -5 -7 -9 -15 -9 -15 0 -20 12 -9 23 8 8 24
-1 24 -14z m-22 -78 c2 -13 -1 -28 -7 -34 -15 -15 -41 10 -41 40 0 20 4 24 23
21 14 -2 23 -11 25 -27z"/>
<path d="M11250 2211 c0 -143 1 -262 3 -263 1 0 90 -4 197 -7 l195 -6 5 -870
c3 -478 6 -871 8 -872 1 -2 114 -3 251 -3 227 0 250 2 256 18 4 9 10 400 13
868 l4 852 137 6 c75 4 164 9 198 12 l62 6 6 52 c11 89 2 433 -13 448 -9 9
-161 13 -667 16 l-655 5 0 -262z m220 174 c35 -18 41 -33 24 -66 -16 -31 -79
-89 -98 -89 -16 0 -26 21 -26 55 0 16 7 25 25 29 20 5 25 13 25 40 0 29 6 46
17 46 2 0 17 -7 33 -15z m307 -121 c-3 -3 -12 -4 -19 -1 -8 3 -5 6 6 6 11 1
17 -2 13 -5z m-41 -199 c19 -29 12 -55 -14 -55 -24 0 -42 19 -42 45 0 42 31
48 56 10z m69 -805 c10 -11 25 -20 33 -20 11 0 13 -8 8 -32 -8 -42 -12 -45
-37 -22 -27 24 -48 65 -42 82 7 17 17 15 38 -8z m173 -368 c3 -16 -1 -20 -12
-16 -19 7 -22 48 -3 42 6 -3 13 -14 15 -26z m97 -111 c10 -17 -33 -33 -55 -21
-11 6 -20 15 -20 20 0 13 67 13 75 1z m5 -133 c0 -23 -4 -23 -51 4 -44 24 -46
30 -23 53 15 15 19 14 45 -11 16 -15 29 -36 29 -46z m-210 -98 c0 -12 -28 -25
-36 -17 -9 9 6 27 22 27 8 0 14 -5 14 -10z m178 -126 c-4 -23 -18 -24 -32 -1
-8 14 -8 20 4 27 18 11 33 -2 28 -26z m-177 5 c9 -17 8 -25 -4 -37 -9 -8 -23
-12 -31 -9 -19 8 -21 53 -3 60 21 9 26 7 38 -14z m179 -195 c0 -8 -4 -14 -10
-14 -5 0 -10 9 -10 21 0 11 5 17 10 14 6 -3 10 -13 10 -21z"/>
<path d="M13742 2463 c-66 -4 -74 -6 -82 -28 -9 -24 -44 -379 -80 -815 -28
-341 -56 -645 -90 -990 -16 -162 -32 -328 -35 -367 l-6 -73 229 0 c270 0 289
2 296 39 5 23 46 419 46 442 0 18 17 8 28 -15 6 -14 27 -98 47 -188 20 -90 43
-189 52 -221 l16 -57 245 2 245 3 18 25 c12 16 30 85 49 190 46 249 69 315 84
243 3 -16 15 -116 26 -223 11 -107 22 -205 25 -217 l5 -23 261 0 260 0 -6 58
c-3 31 -23 257 -45 502 -22 245 -52 553 -65 685 -14 132 -38 389 -55 570 -33
349 -44 443 -58 457 -4 4 -130 5 -279 1 -265 -6 -271 -7 -276 -27 -2 -12 -39
-192 -82 -401 -80 -393 -88 -425 -104 -425 -11 0 -24 53 -107 460 -87 429 -70
386 -152 393 -66 7 -268 6 -410 0z m189 -120 c33 -19 38 -41 12 -49 -10 -3
-31 -12 -46 -21 -33 -17 -59 -4 -39 19 7 9 7 19 2 28 -10 17 5 40 27 40 8 0
28 -8 44 -17z m166 -59 c8 -21 -24 -87 -40 -81 -6 2 -11 18 -10 36 2 50 36 80
50 45z m-147 -50 c0 -3 -9 -17 -20 -31 -11 -14 -20 -36 -20 -49 0 -23 3 -23
102 -26 101 -3 103 -3 103 -28 0 -19 7 -25 32 -31 43 -8 67 -29 53 -43 -13
-13 -240 -26 -262 -15 -9 5 -19 22 -23 38 -5 22 -10 28 -26 24 -15 -4 -19 0
-19 21 0 32 -7 32 -36 5 l-23 -22 -30 26 c-17 14 -36 27 -42 29 -19 6 -3 37
26 48 14 5 30 21 37 35 10 23 16 25 80 25 37 0 68 -3 68 -6z m227 -299 c15
-32 15 -36 0 -53 -12 -13 -17 -37 -17 -81 0 -59 -1 -62 -22 -59 -20 3 -23 10
-26 60 -2 34 -9 61 -17 68 -33 28 -4 100 41 100 18 0 29 -9 41 -35z m-144 -14
c11 -11 3 -49 -16 -75 -13 -17 -16 -15 -45 32 -21 35 -27 52 -19 56 16 7 69
-2 80 -13z m813 -22 c10 -17 -13 -36 -27 -22 -12 12 -4 33 11 33 5 0 12 -5 16
-11z m94 -8 c0 -6 -4 -13 -10 -16 -5 -3 -10 1 -10 9 0 9 5 16 10 16 6 0 10 -4
10 -9z m-345 -40 c7 -12 -12 -24 -25 -16 -11 7 -4 25 10 25 5 0 11 -4 15 -9z
m-545 -41 c-9 -6 -19 -5 -25 1 -6 6 -5 13 5 19 9 6 19 5 25 -1 6 -6 5 -13 -5
-19z m41 -83 c-13 -13 -26 -3 -16 12 3 6 11 8 17 5 6 -4 6 -10 -1 -17z m-68
-6 c6 -6 -1 -16 -18 -27 -27 -18 -28 -18 -46 5 -11 13 -19 28 -19 33 0 13 69
3 83 -11z m787 4 c0 -8 -7 -15 -15 -15 -8 0 -15 7 -15 15 0 8 7 15 15 15 8 0
15 -7 15 -15z m-1160 -145 c6 -11 18 -20 26 -20 23 0 13 -44 -10 -48 -25 -5
-46 23 -46 60 0 33 15 37 30 8z m1549 -323 c13 -16 5 -27 -21 -27 -18 0 -25
20 -11 33 10 10 19 8 32 -6z m-1384 -48 c4 -11 5 -23 2 -25 -6 -6 -37 25 -37
37 0 18 29 9 35 -12z m1315 -30 c0 -5 -9 -9 -20 -9 -19 0 -26 11 -14 23 8 8
34 -3 34 -14z m-1240 -83 c0 -17 -24 -28 -45 -20 -29 12 -14 34 22 34 13 0 23
-6 23 -14z m-6 -103 c24 -34 26 -53 6 -53 -15 0 -70 58 -70 74 0 30 38 17 64
-21z m-206 -130 c-4 -22 -22 -20 -26 1 -2 10 3 16 13 16 10 0 15 -7 13 -17z
m2 -122 c0 -31 -21 -46 -39 -28 -12 12 -15 40 -4 50 3 4 15 7 25 7 13 0 18 -8
18 -29z m178 -9 c2 -18 -1 -32 -6 -32 -12 0 -22 24 -22 52 0 32 25 15 28 -20z
m-3 -171 c3 -5 1 -12 -5 -16 -5 -3 -10 1 -10 9 0 18 6 21 15 7z m700 -211 c0
-7 -6 -15 -12 -17 -8 -3 -13 4 -13 17 0 13 5 20 13 18 6 -3 12 -11 12 -18z
m55 -35 c13 -16 6 -47 -16 -66 -11 -9 -21 -9 -39 -1 -31 14 -32 46 -3 66 28
20 42 20 58 1z"/>
<path d="M17979 2463 l-146 -4 -6 -142 c-4 -78 -7 -589 -7 -1134 l0 -993 555
0 555 0 0 254 0 253 -272 6 c-150 2 -281 8 -290 12 -11 4 -19 23 -23 49 -9 57
-2 372 8 382 6 6 260 19 455 23 l32 1 0 199 c0 109 -3 226 -6 260 l-7 61 -231
0 c-167 0 -235 3 -244 12 -17 17 -16 189 1 213 13 16 37 18 285 23 148 3 276
8 284 13 10 7 13 60 13 253 0 134 -3 247 -6 251 -8 7 -736 14 -950 8z m201
-223 c12 -7 12 -13 4 -27 -15 -24 -58 -24 -62 1 -6 30 28 45 58 26z m115 0 c3
-6 -1 -13 -10 -16 -19 -8 -30 0 -20 15 8 14 22 14 30 1z m370 -40 c7 -12 -12
-40 -26 -40 -10 0 -12 34 -2 43 9 10 21 9 28 -3z m-200 -40 c-5 -8 -11 -8 -17
-2 -6 6 -7 16 -3 22 5 8 11 8 17 2 6 -6 7 -16 3 -22z m-381 -16 c15 -6 23 -34
10 -34 -15 0 -44 22 -39 31 7 11 9 11 29 3z m471 -35 c8 -23 -7 -45 -24 -35
-12 8 -15 39 -4 49 12 12 22 7 28 -14z m-80 1 c8 -13 -22 -70 -41 -77 -31 -11
-38 14 -14 51 21 35 43 46 55 26z m-244 -70 l24 -19 -27 -1 c-15 0 -30 -4 -33
-10 -9 -15 -55 -12 -55 3 0 11 46 46 61 47 4 0 17 -9 30 -20z m-129 -112 c-9
-9 -12 -7 -12 12 0 19 3 21 12 12 9 -9 9 -15 0 -24z m118 -3 c36 -37 30 -42
-32 -25 -42 12 -51 21 -42 44 10 26 38 19 74 -19z m-170 -170 c0 -8 -7 -15
-15 -15 -8 0 -15 7 -15 15 0 8 7 15 15 15 8 0 15 -7 15 -15z m194 -61 c9 -24
7 -54 -4 -54 -14 0 -32 39 -26 56 7 19 22 18 30 -2z m-157 -69 c26 -46 29 -65
9 -65 -17 0 -76 65 -76 84 0 41 39 31 67 -19z m87 -17 c20 -28 20 -38 1 -38
-14 0 -35 29 -35 49 0 18 18 12 34 -11z"/>
<path d="M19155 2461 l-40 -6 -3 -1132 -2 -1133 260 0 260 0 1 38 c1 20 5 165
8 322 l6 285 28 -60 c16 -33 71 -168 123 -300 52 -132 99 -250 104 -262 l10
-23 270 0 c235 0 271 2 277 16 3 8 -25 92 -62 187 -204 521 -265 679 -265 685
0 4 19 32 41 62 51 67 101 166 126 246 27 87 26 500 -1 588 -42 139 -135 282
-230 355 -118 91 -207 118 -414 125 -293 11 -458 13 -497 7z m501 -86 c27 -19
59 -42 71 -51 18 -13 25 -13 42 -2 18 11 23 11 31 -2 5 -8 10 -22 10 -31 0 -9
11 -21 25 -27 14 -6 25 -18 25 -26 0 -21 25 -26 49 -10 31 22 63 14 74 -19 16
-48 4 -60 -52 -52 -56 8 -91 -6 -91 -35 0 -10 -4 -22 -10 -25 -5 -3 -10 -15
-10 -26 0 -11 -10 -23 -22 -28 l-22 -8 21 -12 c28 -14 29 -14 47 5 20 20 33
12 51 -34 24 -56 17 -67 -40 -67 -37 0 -54 5 -71 22 -12 12 -35 25 -51 28 -15
3 -41 10 -58 16 -16 6 -42 14 -57 16 l-28 5 0 -75 c0 -72 -23 -223 -36 -236
-3 -3 -12 3 -20 14 -8 11 -26 33 -40 48 -19 20 -25 35 -21 53 4 22 2 25 -17
19 -56 -17 -147 -17 -190 -1 -74 28 -79 40 -89 194 -16 239 -10 335 21 347 25
9 80 -6 104 -30 45 -43 109 -60 135 -34 7 7 23 9 37 5 60 -15 38 -109 -34
-146 -26 -13 -40 -27 -40 -40 0 -11 1 -20 3 -20 33 0 127 -27 145 -41 45 -35
95 -19 106 32 5 28 9 31 35 26 65 -13 80 68 26 139 -14 18 -47 46 -73 60 -93
53 -94 54 -81 70 18 22 43 17 95 -21z m235 -78 c-1 -12 -15 -9 -19 4 -3 6 1
10 8 8 6 -3 11 -8 11 -12z m-265 -163 c7 -28 -16 -61 -35 -50 -12 8 -15 59 -4
69 14 15 33 6 39 -19z m125 -230 c33 -30 41 -81 37 -252 l-3 -164 -32 -29
c-44 -38 -82 -48 -100 -24 -17 24 -19 475 -2 492 14 14 74 0 100 -23z m-411
-143 c14 -27 13 -41 -3 -41 -19 0 -50 37 -42 49 10 17 33 13 45 -8z m-130 -41
c0 -5 -7 -10 -16 -10 -8 0 -12 5 -9 10 3 6 10 10 16 10 5 0 9 -4 9 -10z m320
-470 c15 -35 7 -63 -16 -58 -25 5 -38 31 -30 61 9 36 31 34 46 -3z m390 -55
c0 -8 -7 -15 -15 -15 -8 0 -15 7 -15 15 0 8 7 15 15 15 8 0 15 -7 15 -15z
m-262 -37 c17 -17 15 -48 -3 -48 -8 0 -15 7 -15 15 0 8 -4 15 -10 15 -5 0 -10
7 -10 15 0 18 21 20 38 3z m369 -25 c24 -31 28 -46 29 -107 2 -79 24 -149 48
-154 19 -4 20 -11 6 -48 -13 -33 -8 -39 19 -24 32 17 43 3 26 -30 -9 -18 -13
-40 -9 -55 5 -21 3 -25 -16 -25 -33 0 -84 27 -118 63 -17 18 -42 40 -56 50
-19 13 -26 27 -26 52 0 43 -17 54 -30 21 -19 -52 -55 -17 -47 45 7 50 10 53
35 40 16 -9 24 -7 36 5 31 31 19 37 -58 30 -58 -5 -76 -4 -85 8 -18 21 -5 36
29 36 24 0 35 8 55 40 16 25 33 40 45 40 25 0 60 -34 60 -58 0 -11 8 -26 19
-36 15 -14 20 -14 29 -3 9 10 4 26 -23 68 -19 30 -35 60 -35 67 0 25 40 11 67
-25z m-690 -538 c3 -9 -2 -22 -13 -30 -12 -8 -19 -26 -19 -46 0 -23 -5 -35
-16 -37 -42 -8 -66 72 -32 110 20 22 71 24 80 3z m-107 -191 c0 -9 -5 -14 -12
-12 -18 6 -21 28 -4 28 9 0 16 -7 16 -16z"/>
<path d="M3260 2454 c0 -23 -72 -424 -125 -701 -36 -182 -96 -509 -135 -725
-39 -216 -89 -486 -110 -599 -22 -114 -40 -214 -40 -223 0 -14 27 -16 263 -16
l263 0 63 323 c35 177 68 325 75 329 19 13 201 9 219 -4 18 -14 37 -97 92
-406 36 -200 44 -225 71 -236 25 -10 504 -7 504 3 0 5 -31 177 -70 382 -38
206 -130 709 -205 1118 -75 409 -138 748 -141 753 -6 9 -724 11 -724 2z m160
-293 c0 -21 -13 -41 -26 -41 -14 0 -19 31 -7 43 10 10 33 8 33 -2z m189 -7
l23 -17 -25 -23 c-13 -12 -28 -39 -31 -59 -8 -39 -25 -52 -52 -37 -18 10 -24
31 -27 97 -2 39 -1 40 30 40 18 1 35 4 39 8 11 10 17 9 43 -9z m106 -164 c9
-14 -23 -70 -40 -70 -19 0 -40 43 -32 64 7 18 62 22 72 6z m-387 -38 c2 -14
-2 -22 -11 -22 -17 0 -30 27 -21 41 9 16 29 4 32 -19z m687 -68 c15 -23 15
-27 1 -42 -13 -16 -13 -19 8 -39 42 -41 63 -176 31 -203 -18 -15 -20 -37 -2
-43 6 -2 9 -8 4 -12 -4 -5 -24 -3 -44 3 -33 10 -40 9 -59 -9 l-22 -20 -6 35
c-7 36 -19 46 -31 26 -4 -6 -11 -8 -16 -5 -14 9 -11 42 5 48 8 3 16 26 19 54
17 147 47 233 82 233 7 0 20 -12 30 -26z m-275 -14 c0 -5 -4 -10 -10 -10 -5 0
-10 5 -10 10 0 6 5 10 10 10 6 0 10 -4 10 -10z m-96 -217 c4 -16 10 -58 31
-224 7 -51 -11 -71 -60 -67 -37 3 -40 5 -43 36 -3 30 33 246 44 264 9 14 22 9
28 -9z m246 -173 c17 -17 24 -18 41 -10 11 6 25 10 32 7 15 -5 -29 -33 -66
-41 -23 -5 -29 -2 -39 19 -6 14 -15 25 -20 25 -4 0 -8 5 -8 10 0 17 39 11 60
-10z m284 -636 c9 -4 21 -15 27 -25 15 -28 -13 -25 -48 6 -21 18 -24 24 -11
25 9 0 24 -3 32 -6z m-1169 -334 c-5 -8 -11 -8 -17 -2 -6 6 -7 16 -3 22 5 8
11 8 17 2 6 -6 7 -16 3 -22z m995 -69 c10 -20 4 -51 -11 -51 -14 0 -29 37 -23
54 8 21 21 20 34 -3z m-982 -18 c2 -8 -5 -13 -17 -13 -12 0 -21 6 -21 16 0 18
31 15 38 -3z m1069 -75 c-3 -8 -6 -5 -6 6 -1 11 2 17 5 13 3 -3 4 -12 1 -19z"/>
<path d="M6083 2448 c-8 -13 -12 -1381 -6 -1965 l4 -293 327 0 c368 0 415 6
530 64 138 69 251 188 320 335 48 105 54 194 50 822 -4 583 -3 567 -75 692
-88 151 -179 238 -318 303 -38 17 -97 37 -129 43 -88 16 -692 15 -703 -1z
m625 -528 c79 -36 77 -23 77 -600 0 -459 -2 -508 -17 -537 -23 -41 -76 -73
-122 -73 l-36 0 0 103 c0 56 -2 302 -4 547 -2 245 -2 475 1 513 5 65 6 67 31
67 15 0 46 -9 70 -20z m-268 0 c0 -5 -4 -10 -10 -10 -5 0 -10 5 -10 10 0 6 5
10 10 10 6 0 10 -4 10 -10z m804 -127 c9 -22 -12 -43 -23 -24 -10 15 -4 41 9
41 4 0 11 -8 14 -17z m-256 -36 c21 -20 24 -20 57 -4 44 21 50 10 20 -35 -43
-63 -67 -61 -107 11 -36 66 -25 76 30 28z m190 6 c-4 -22 -22 -20 -26 1 -2 10
3 16 13 16 10 0 15 -7 13 -17z m-274 -23 c63 -38 98 -141 50 -148 -33 -5 -72
34 -89 90 -25 85 -19 94 39 58z m-406 -802 c-6 -18 -28 -21 -28 -4 0 9 7 16
16 16 9 0 14 -5 12 -12z m364 -23 c0 -5 -5 -11 -11 -13 -6 -2 -11 4 -11 13 0
9 5 15 11 13 6 -2 11 -8 11 -13z m-392 -86 c0 -5 -4 -9 -10 -9 -5 0 -10 7 -10
16 0 8 5 12 10 9 6 -3 10 -10 10 -16z m519 -86 c31 -16 59 -32 63 -38 12 -17
9 -92 -4 -103 -24 -18 -79 -25 -104 -11 -19 10 -32 10 -61 1 -46 -14 -60 -3
-36 27 13 16 33 25 66 28 60 7 61 24 2 65 -25 18 -45 38 -45 45 0 22 59 15
119 -14z m101 -10 c0 -13 -3 -13 -15 -3 -8 7 -12 16 -9 21 8 13 24 1 24 -18z
m-262 -84 c-18 -12 -23 24 -6 53 13 23 13 22 16 -11 2 -20 -2 -37 -10 -42z
m388 39 c-10 -50 -58 -123 -81 -123 -17 0 -20 6 -18 40 1 22 3 45 4 50 1 6 -1
20 -5 32 -7 23 5 29 73 32 33 1 33 0 27 -31z m-658 -56 c2 -7 -3 -12 -12 -12
-9 0 -16 7 -16 16 0 17 22 14 28 -4z m172 -76 c0 -16 -37 -46 -57 -46 -21 0
-15 28 9 44 28 20 48 20 48 2z m372 -61 c0 -5 -5 -11 -11 -13 -6 -2 -11 4 -11
13 0 9 5 15 11 13 6 -2 11 -8 11 -13z"/>
<path d="M9857 2453 c-9 -8 -9 -2225 -1 -2247 5 -14 38 -16 260 -16 l254 0 1
223 c1 122 2 227 4 232 1 6 3 65 3 131 l2 121 70 7 c100 10 174 31 260 73 148
72 280 242 325 418 29 114 40 283 27 413 -25 252 -111 419 -277 537 -94 67
-158 93 -260 105 -99 11 -658 14 -668 3z m417 -509 c19 -7 22 -34 4 -34 -22 0
-41 17 -34 29 8 13 9 13 30 5z m210 -32 c42 -38 56 -90 56 -217 0 -66 -5 -137
-10 -157 -14 -47 -51 -92 -91 -108 -56 -24 -59 -10 -59 268 l0 245 42 -7 c23
-4 51 -15 62 -24z m194 -110 c4 -25 -23 -41 -40 -24 -7 7 -6 17 2 32 14 26 34
22 38 -8z m280 -59 c2 -13 -5 -27 -19 -36 -23 -17 -29 -52 -15 -98 7 -24 4
-27 -25 -33 l-32 -6 7 -75 c4 -46 3 -75 -3 -75 -5 0 -30 -16 -56 -36 -37 -28
-51 -33 -70 -27 -25 9 -125 114 -125 133 0 6 -7 19 -16 27 -11 12 -14 26 -9
50 10 54 23 76 60 101 19 12 35 29 35 37 0 8 6 15 14 15 17 0 56 -47 56 -67 0
-11 10 -13 48 -8 76 10 74 9 52 64 -22 57 -19 61 50 58 38 -2 45 -5 48 -24z
m-938 -36 c0 -19 -47 -61 -54 -49 -11 19 13 62 34 62 11 0 20 -6 20 -13z m107
-93 c5 -15 -29 -53 -48 -54 -11 0 -20 32 -14 51 8 24 53 25 62 3z m777 -230
c19 -7 21 -37 3 -53 -23 -19 -52 31 -30 52 8 8 8 8 27 1z m-245 -73 c6 -10 8
-21 4 -24 -9 -10 -43 12 -43 28 0 21 27 18 39 -4z m205 -6 c-6 -16 -24 -21
-24 -7 0 11 11 22 21 22 5 0 6 -7 3 -15z m-124 -56 c0 -5 -4 -9 -10 -9 -5 0
-10 7 -10 16 0 8 5 12 10 9 6 -3 10 -10 10 -16z m150 -29 c0 -5 -4 -10 -10
-10 -5 0 -10 5 -10 10 0 6 5 10 10 10 6 0 10 -4 10 -10z m-226 -52 c6 -33 10
-37 46 -43 22 -4 42 -10 45 -15 10 -16 -46 -69 -100 -95 -43 -22 -57 -24 -74
-15 -23 12 -34 44 -29 86 3 25 7 29 36 29 38 1 52 17 52 61 0 17 3 34 7 38 8
8 9 7 17 -46z m-284 -211 c0 -7 -13 -26 -30 -42 -26 -25 -34 -27 -77 -21 -26
3 -51 10 -56 15 -12 12 0 31 17 31 8 0 27 7 42 15 37 19 104 20 104 2z m-135
-366 c7 -12 -12 -24 -25 -16 -11 7 -4 25 10 25 5 0 11 -4 15 -9z m-287 -153
c17 -17 15 -28 -7 -28 -22 0 -35 15 -26 30 8 13 18 13 33 -2z"/>
<path d="M12766 2408 c-3 -29 -6 -540 -6 -1135 l0 -1083 255 0 255 0 0 1135 0
1135 -249 0 -248 0 -7 -52z m329 -90 c-19 -11 -30 -5 -21 11 4 6 14 7 22 4 15
-5 14 -7 -1 -15z m-223 -343 c-2 -11 -11 -28 -20 -38 -16 -18 -17 -18 -34 3
-24 30 -8 62 30 58 21 -2 26 -8 24 -23z m318 -90 c17 -9 30 -18 30 -21 0 -10
-92 -45 -106 -40 -20 8 -17 33 6 56 24 24 32 25 70 5z m-292 -16 c-2 -6 -8
-10 -13 -10 -5 0 -11 4 -13 10 -2 6 4 11 13 11 9 0 15 -5 13 -11z m326 -106
c8 -56 -7 -146 -30 -180 -16 -25 -34 -23 -34 4 0 23 -28 -2 -48 -45 -9 -19
-21 -34 -27 -33 -12 2 -7 58 7 84 7 14 5 23 -7 37 -15 17 -16 28 -12 130 1 19
6 38 12 42 5 4 38 8 72 8 l61 0 6 -47z m-271 -9 c8 -8 -3 -34 -14 -34 -5 0 -9
9 -9 20 0 19 11 26 23 14z m84 -170 c-9 -9 -28 6 -21 18 4 6 10 6 17 -1 6 -6
8 -13 4 -17z m21 -128 c4 -19 -19 -21 -36 -4 -7 7 -12 21 -12 31 0 18 2 18 23
5 12 -9 23 -23 25 -32z m60 12 c-7 -19 -38 -22 -38 -4 0 10 9 16 21 16 12 0
19 -5 17 -12z m47 -1029 c4 -10 2 -26 -3 -35 -8 -15 -12 -14 -27 9 -19 30 -14
60 9 51 8 -3 18 -14 21 -25z"/>
<path d="M15556 2408 c-3 -29 -6 -540 -6 -1135 l0 -1083 260 0 260 0 0 1135 0
1135 -254 0 -253 0 -7 -52z m334 -89 c0 -5 -7 -9 -15 -9 -15 0 -20 12 -9 23 8
8 24 -1 24 -14z m-236 -325 c9 -3 16 -11 16 -17 0 -15 -31 -47 -46 -47 -18 0
-28 38 -14 55 14 17 21 18 44 9z m347 -116 c5 -7 3 -18 -3 -25 -12 -15 -77
-35 -90 -27 -10 6 -1 42 15 62 13 16 67 8 78 -10z m-311 -8 c0 -5 -4 -10 -10
-10 -5 0 -10 5 -10 10 0 6 5 10 10 10 6 0 10 -4 10 -10z m327 -154 c-3 -60
-12 -108 -23 -133 -15 -30 -19 -34 -22 -18 -9 48 -32 38 -67 -29 -13 -25 -35
-32 -35 -12 0 9 7 33 15 53 14 34 14 38 -5 58 -23 24 -25 62 -9 114 7 20 13
42 15 49 2 8 25 12 70 12 l67 0 -6 -94z m-267 30 c0 -8 -4 -18 -10 -21 -5 -3
-10 3 -10 14 0 12 5 21 10 21 6 0 10 -6 10 -14z m88 -155 c3 -8 -1 -12 -9 -9
-7 2 -15 10 -17 17 -3 8 1 12 9 9 7 -2 15 -10 17 -17z m2 -106 c7 -9 22 -12
40 -9 33 7 48 -11 21 -25 -43 -24 -91 -7 -91 31 0 22 13 23 30 3z m127 -1069
c-2 -6 -12 -11 -23 -11 -20 0 -30 26 -19 53 6 15 9 14 26 -7 11 -13 18 -29 16
-35z"/>
<path d="M16513 2453 l-253 -3 0 -254 0 -253 313 -7 c366 -8 407 -11 407 -34
0 -10 -40 -84 -88 -167 -49 -82 -213 -363 -365 -623 l-277 -473 0 -228 0 -228
248 -6 c317 -9 961 -9 1041 -1 l61 7 0 253 0 254 -297 1 c-164 0 -316 3 -338
7 -35 7 -40 11 -38 33 1 23 134 264 256 465 87 145 402 685 425 729 33 66 40
138 35 336 l-6 186 -111 7 c-104 6 -421 5 -1013 -1z m41 -319 c9 -25 7 -34 -8
-34 -19 0 -29 17 -22 35 7 20 22 19 30 -1z m-148 -79 c21 -21 23 -29 14 -40
-19 -22 -48 -18 -66 10 -33 51 8 74 52 30z m688 -130 c4 -14 13 -25 21 -25 21
0 19 -14 -5 -35 -29 -26 -50 -13 -50 33 0 56 22 73 34 27z m4 -393 c2 -15 -2
-22 -12 -22 -11 0 -16 9 -16 26 0 31 23 28 28 -4z m-60 -86 c-2 -12 -7 -21
-12 -21 -15 0 -29 31 -22 50 5 14 9 15 22 5 8 -8 14 -23 12 -34z m94 -38 c37
1 45 -19 24 -63 -19 -38 -33 -44 -43 -17 -3 9 -15 27 -26 39 -20 23 -17 60 4
47 7 -4 25 -7 41 -6z m-145 -50 c-3 -8 -6 -5 -6 6 -1 11 2 17 5 13 3 -3 4 -12
1 -19z m82 -44 c16 -35 14 -64 -4 -64 -19 0 -50 63 -42 84 8 21 32 11 46 -20z
m-226 -49 c8 -19 -13 -31 -23 -14 -9 14 -4 29 10 29 4 0 10 -7 13 -15z m-53
-94 c14 -27 2 -53 -24 -49 -24 4 -33 33 -16 53 17 20 27 19 40 -4z m164 -70
c8 -12 -3 -41 -15 -41 -5 0 -9 11 -9 25 0 25 14 34 24 16z m-76 -199 c2 -7 -3
-12 -12 -12 -9 0 -16 7 -16 16 0 17 22 14 28 -4z m197 -282 c3 -5 -1 -10 -9
-10 -9 0 -16 5 -16 10 0 6 4 10 9 10 6 0 13 -4 16 -10z m-559 -171 c3 -6 2
-15 -3 -20 -13 -13 -43 -1 -43 17 0 16 36 19 46 3z"/>
</g>
</svg>
